<?xml version="1.0" encoding="UTF-8"?><svg id="Layer_1" xmlns="http://www.w3.org/2000/svg" viewBox="0 0 426.8 592.15"><defs><style>.cls-1{fill:#5e5d9e;stroke-width:0px;}</style></defs><path class="cls-1" d="m176.65,126.74c-2.39,0-4.33-1.94-4.33-4.33s1.94-4.33,4.33-4.33,4.33,1.94,4.33,4.33-1.94,4.33-4.33,4.33Zm0-7.8c-1.91,0-3.47,1.56-3.47,3.47s1.56,3.47,3.47,3.47,3.47-1.56,3.47-3.47-1.56-3.47-3.47-3.47Z"/><path class="cls-1" d="m183.9,136.22c-.24,0-.43-.19-.43-.43,0-2.46-3.43-3.75-6.82-3.75s-6.82,1.29-6.82,3.75c0,.24-.19.43-.43.43s-.43-.19-.43-.43c0-3.17,3.98-4.61,7.68-4.61s7.68,1.44,7.68,4.61c0,.24-.19.43-.43.43Z"/><path class="cls-1" d="m182.78,39.89h-12.26c-1.32,0-2.66-.72-2.66-2.1v-11.15c0-1.34,1.32-2.66,2.66-2.66h5.02c.14,0,.26.06.34.17l1.54,2.06h5.36c1.32,0,2.66.72,2.66,2.1v9.48c0,1.38-1.34,2.1-2.66,2.1Zm-12.26-15.05c-.87,0-1.8.92-1.8,1.8v11.15c0,.85.93,1.24,1.8,1.24h12.26c.87,0,1.8-.39,1.8-1.24v-9.48c0-.85-.93-1.24-1.8-1.24h-5.57c-.14,0-.26-.06-.34-.17l-1.54-2.06h-4.8Z"/><path class="cls-1" d="m181.11,33.12h-8.92c-.19,0-.34-.15-.34-.34s.15-.34.34-.34h8.92c.19,0,.34.15.34.34s-.15.34-.34.34Z"/><path class="cls-1" d="m181.11,35.91h-8.92c-.19,0-.34-.15-.34-.34s.15-.34.34-.34h8.92c.19,0,.34.15.34.34s-.15.34-.34.34Z"/><path class="cls-1" d="m176.65,319.68c-2.39,0-4.33-1.94-4.33-4.33s1.94-4.33,4.33-4.33,4.33,1.94,4.33,4.33-1.94,4.33-4.33,4.33Zm0-7.8c-1.91,0-3.47,1.56-3.47,3.47s1.56,3.47,3.47,3.47,3.47-1.56,3.47-3.47-1.56-3.47-3.47-3.47Z"/><path class="cls-1" d="m183.9,329.16c-.24,0-.43-.19-.43-.43,0-2.46-3.43-3.75-6.82-3.75s-6.82,1.29-6.82,3.75c0,.24-.19.43-.43.43s-.43-.19-.43-.43c0-3.17,3.98-4.61,7.68-4.61s7.68,1.44,7.68,4.61c0,.24-.19.43-.43.43Z"/><path class="cls-1" d="m182.78,231.99h-12.26c-1.32,0-2.66-.72-2.66-2.1v-11.15c0-1.34,1.32-2.66,2.66-2.66h5.02c.14,0,.26.06.34.17l1.54,2.06h5.36c1.32,0,2.66.72,2.66,2.1v9.48c0,1.38-1.34,2.1-2.66,2.1Zm-12.26-15.05c-.87,0-1.8.92-1.8,1.8v11.15c0,.85.93,1.24,1.8,1.24h12.26c.87,0,1.8-.39,1.8-1.24v-9.48c0-.85-.93-1.24-1.8-1.24h-5.57c-.14,0-.26-.06-.34-.17l-1.54-2.06h-4.8Z"/><path class="cls-1" d="m181.11,225.22h-8.92c-.19,0-.34-.15-.34-.34s.15-.34.34-.34h8.92c.19,0,.34.15.34.34s-.15.34-.34.34Z"/><path class="cls-1" d="m181.11,228h-8.92c-.19,0-.34-.15-.34-.34s.15-.34.34-.34h8.92c.19,0,.34.15.34.34s-.15.34-.34.34Z"/><path class="cls-1" d="m182.78,424.09h-12.26c-1.32,0-2.66-.72-2.66-2.1v-11.15c0-1.34,1.32-2.66,2.66-2.66h5.02c.14,0,.26.06.34.17l1.54,2.06h5.36c1.32,0,2.66.72,2.66,2.1v9.48c0,1.38-1.34,2.1-2.66,2.1Zm-12.26-15.05c-.87,0-1.8.92-1.8,1.8v11.15c0,.85.93,1.24,1.8,1.24h12.26c.87,0,1.8-.39,1.8-1.24v-9.48c0-.85-.93-1.24-1.8-1.24h-5.57c-.14,0-.26-.06-.34-.17l-1.54-2.06h-4.8Z"/><path class="cls-1" d="m181.11,417.32h-8.92c-.19,0-.34-.15-.34-.34s.15-.34.34-.34h8.92c.19,0,.34.15.34.34s-.15.34-.34.34Z"/><path class="cls-1" d="m181.11,420.1h-8.92c-.19,0-.34-.15-.34-.34s.15-.34.34-.34h8.92c.19,0,.34.15.34.34s-.15.34-.34.34Z"/><path class="cls-1" d="m176.65,511.78c-2.39,0-4.33-1.94-4.33-4.33s1.94-4.33,4.33-4.33,4.33,1.94,4.33,4.33-1.94,4.33-4.33,4.33Zm0-7.8c-1.91,0-3.47,1.56-3.47,3.47s1.56,3.47,3.47,3.47,3.47-1.56,3.47-3.47-1.56-3.47-3.47-3.47Z"/><path class="cls-1" d="m183.9,521.26c-.24,0-.43-.19-.43-.43,0-2.46-3.43-3.75-6.82-3.75s-6.82,1.29-6.82,3.75c0,.24-.19.43-.43.43s-.43-.19-.43-.43c0-3.17,3.98-4.61,7.68-4.61s7.68,1.44,7.68,4.61c0,.24-.19.43-.43.43Z"/><path class="cls-1" d="m282.26,133.71h-14.49c-1.16,0-2.1-.94-2.1-2.1v-8.92c0-1.16.94-2.1,2.1-2.1h14.49c1.16,0,2.1.94,2.1,2.1v8.92c0,1.16-.94,2.1-2.1,2.1Zm-14.49-12.26c-.68,0-1.24.56-1.24,1.24v8.92c0,.68.56,1.24,1.24,1.24h14.49c.68,0,1.24-.56,1.24-1.24v-8.92c0-.68-.56-1.24-1.24-1.24h-14.49Z"/><path class="cls-1" d="m282.82,130.28h-3.9c-.8,0-1.46-.65-1.46-1.46v-3.34c0-.8.65-1.46,1.46-1.46h3.9c.8,0,1.46.65,1.46,1.46v3.34c0,.8-.65,1.46-1.46,1.46Zm-3.9-5.57c-.42,0-.77.35-.77.77v3.34c0,.42.35.77.77.77h3.9c.42,0,.77-.35.77-.77v-3.34c0-.42-.35-.77-.77-.77h-3.9Z"/><circle class="cls-1" cx="280.87" cy="127.15" r=".84"/><path class="cls-1" d="m266.09,125.91c-.24,0-.43-.19-.43-.43v-2.79c0-1.38,1.34-2.1,2.66-2.1h13.38c.24,0,.43.19.43.43s-.19.43-.43.43h-13.38c-.87,0-1.8.39-1.8,1.24v2.79c0,.24-.19.43-.43.43Z"/><path class="cls-1" d="m281.7,41.01h-13.38c-1.16,0-2.1-.94-2.1-2.1v-12.26c0-1.16.94-2.1,2.1-2.1h13.38c1.16,0,2.1.94,2.1,2.1v12.26c0,1.16-.94,2.1-2.1,2.1Zm-13.38-15.61c-.68,0-1.24.56-1.24,1.24v12.26c0,.68.56,1.24,1.24,1.24h13.38c.68,0,1.24-.56,1.24-1.24v-12.26c0-.68-.56-1.24-1.24-1.24h-13.38Z"/><rect class="cls-1" x="266.65" y="29.55" width="16.72" height=".86"/><path class="cls-1" d="m271.67,27.07c-.24,0-.43-.19-.43-.43v-3.34c0-.24.19-.43.43-.43s.43.19.43.43v3.34c0,.24-.19.43-.43.43Z"/><path class="cls-1" d="m278.36,27.07c-.24,0-.43-.19-.43-.43v-3.34c0-.24.19-.43.43-.43s.43.19.43.43v3.34c0,.24-.19.43-.43.43Z"/><circle class="cls-1" cx="270.55" cy="33.89" r=".84"/><circle class="cls-1" cx="275.01" cy="33.89" r=".84"/><circle class="cls-1" cx="279.47" cy="33.89" r=".84"/><circle class="cls-1" cx="270.55" cy="37.79" r=".84"/><circle class="cls-1" cx="275.01" cy="37.79" r=".84"/><path class="cls-1" d="m282.26,326.65h-14.49c-1.16,0-2.1-.94-2.1-2.1v-8.92c0-1.16.94-2.1,2.1-2.1h14.49c1.16,0,2.1.94,2.1,2.1v8.92c0,1.16-.94,2.1-2.1,2.1Zm-14.49-12.26c-.68,0-1.24.56-1.24,1.24v8.92c0,.68.56,1.24,1.24,1.24h14.49c.68,0,1.24-.56,1.24-1.24v-8.92c0-.68-.56-1.24-1.24-1.24h-14.49Z"/><path class="cls-1" d="m282.82,323.22h-3.9c-.8,0-1.46-.65-1.46-1.46v-3.34c0-.8.65-1.46,1.46-1.46h3.9c.8,0,1.46.65,1.46,1.46v3.34c0,.8-.65,1.46-1.46,1.46Zm-3.9-5.57c-.42,0-.77.35-.77.77v3.34c0,.42.35.77.77.77h3.9c.42,0,.77-.35.77-.77v-3.34c0-.42-.35-.77-.77-.77h-3.9Z"/><circle class="cls-1" cx="280.87" cy="320.09" r=".84"/><path class="cls-1" d="m266.09,318.84c-.24,0-.43-.19-.43-.43v-2.79c0-1.38,1.34-2.1,2.66-2.1h13.38c.24,0,.43.19.43.43s-.19.43-.43.43h-13.38c-.87,0-1.8.39-1.8,1.24v2.79c0,.24-.19.43-.43.43Z"/><path class="cls-1" d="m281.7,233.11h-13.38c-1.16,0-2.1-.94-2.1-2.1v-12.26c0-1.16.94-2.1,2.1-2.1h13.38c1.16,0,2.1.94,2.1,2.1v12.26c0,1.16-.94,2.1-2.1,2.1Zm-13.38-15.61c-.68,0-1.24.56-1.24,1.24v12.26c0,.68.56,1.24,1.24,1.24h13.38c.68,0,1.24-.56,1.24-1.24v-12.26c0-.68-.56-1.24-1.24-1.24h-13.38Z"/><rect class="cls-1" x="266.65" y="221.65" width="16.72" height=".86"/><path class="cls-1" d="m271.67,219.17c-.24,0-.43-.19-.43-.43v-3.34c0-.24.19-.43.43-.43s.43.19.43.43v3.34c0,.24-.19.43-.43.43Z"/><path class="cls-1" d="m278.36,219.17c-.24,0-.43-.19-.43-.43v-3.34c0-.24.19-.43.43-.43s.43.19.43.43v3.34c0,.24-.19.43-.43.43Z"/><circle class="cls-1" cx="270.55" cy="225.99" r=".84"/><circle class="cls-1" cx="275.01" cy="225.99" r=".84"/><circle class="cls-1" cx="279.47" cy="225.99" r=".84"/><circle class="cls-1" cx="270.55" cy="229.89" r=".84"/><circle class="cls-1" cx="275.01" cy="229.89" r=".84"/><path class="cls-1" d="m282.26,518.75h-14.49c-1.16,0-2.1-.94-2.1-2.1v-8.92c0-1.16.94-2.1,2.1-2.1h14.49c1.16,0,2.1.94,2.1,2.1v8.92c0,1.16-.94,2.1-2.1,2.1Zm-14.49-12.26c-.68,0-1.24.56-1.24,1.24v8.92c0,.68.56,1.24,1.24,1.24h14.49c.68,0,1.24-.56,1.24-1.24v-8.92c0-.68-.56-1.24-1.24-1.24h-14.49Z"/><path class="cls-1" d="m282.82,515.32h-3.9c-.8,0-1.46-.65-1.46-1.46v-3.34c0-.8.65-1.46,1.46-1.46h3.9c.8,0,1.46.65,1.46,1.46v3.34c0,.8-.65,1.46-1.46,1.46Zm-3.9-5.57c-.42,0-.77.35-.77.77v3.34c0,.42.35.77.77.77h3.9c.42,0,.77-.35.77-.77v-3.34c0-.42-.35-.77-.77-.77h-3.9Z"/><circle class="cls-1" cx="280.87" cy="512.19" r=".84"/><path class="cls-1" d="m266.09,510.94c-.24,0-.43-.19-.43-.43v-2.79c0-1.38,1.34-2.1,2.66-2.1h13.38c.24,0,.43.19.43.43s-.19.43-.43.43h-13.38c-.87,0-1.8.39-1.8,1.24v2.79c0,.24-.19.43-.43.43Z"/><path class="cls-1" d="m85.53,133.71h-14.49c-1.16,0-2.1-.94-2.1-2.1v-8.92c0-1.16.94-2.1,2.1-2.1h14.49c1.16,0,2.1.94,2.1,2.1v8.92c0,1.16-.94,2.1-2.1,2.1Zm-14.49-12.26c-.68,0-1.24.56-1.24,1.24v8.92c0,.68.56,1.24,1.24,1.24h14.49c.68,0,1.24-.56,1.24-1.24v-8.92c0-.68-.56-1.24-1.24-1.24h-14.49Z"/><path class="cls-1" d="m86.09,130.28h-3.9c-.8,0-1.46-.65-1.46-1.46v-3.34c0-.8.65-1.46,1.46-1.46h3.9c.8,0,1.46.65,1.46,1.46v3.34c0,.8-.65,1.46-1.46,1.46Zm-3.9-5.57c-.42,0-.77.35-.77.77v3.34c0,.42.35.77.77.77h3.9c.42,0,.77-.35.77-.77v-3.34c0-.42-.35-.77-.77-.77h-3.9Z"/><circle class="cls-1" cx="84.14" cy="127.15" r=".84"/><path class="cls-1" d="m69.37,125.91c-.24,0-.43-.19-.43-.43v-2.79c0-1.38,1.34-2.1,2.66-2.1h13.38c.24,0,.43.19.43.43s-.19.43-.43.43h-13.38c-.87,0-1.8.39-1.8,1.24v2.79c0,.24-.19.43-.43.43Z"/><path class="cls-1" d="m84.98,41.01h-13.38c-1.16,0-2.1-.94-2.1-2.1v-12.26c0-1.16.94-2.1,2.1-2.1h13.38c1.16,0,2.1.94,2.1,2.1v12.26c0,1.16-.94,2.1-2.1,2.1Zm-13.38-15.61c-.68,0-1.24.56-1.24,1.24v12.26c0,.68.56,1.24,1.24,1.24h13.38c.68,0,1.24-.56,1.24-1.24v-12.26c0-.68-.56-1.24-1.24-1.24h-13.38Z"/><rect class="cls-1" x="69.93" y="29.55" width="16.72" height=".86"/><path class="cls-1" d="m74.94,27.07c-.24,0-.43-.19-.43-.43v-3.34c0-.24.19-.43.43-.43s.43.19.43.43v3.34c0,.24-.19.43-.43.43Z"/><path class="cls-1" d="m81.63,27.07c-.24,0-.43-.19-.43-.43v-3.34c0-.24.19-.43.43-.43s.43.19.43.43v3.34c0,.24-.19.43-.43.43Z"/><circle class="cls-1" cx="73.83" cy="33.89" r=".84"/><circle class="cls-1" cx="78.29" cy="33.89" r=".84"/><circle class="cls-1" cx="82.75" cy="33.89" r=".84"/><circle class="cls-1" cx="73.83" cy="37.79" r=".84"/><circle class="cls-1" cx="78.29" cy="37.79" r=".84"/><path class="cls-1" d="m85.53,326.65h-14.49c-1.16,0-2.1-.94-2.1-2.1v-8.92c0-1.16.94-2.1,2.1-2.1h14.49c1.16,0,2.1.94,2.1,2.1v8.92c0,1.16-.94,2.1-2.1,2.1Zm-14.49-12.26c-.68,0-1.24.56-1.24,1.24v8.92c0,.68.56,1.24,1.24,1.24h14.49c.68,0,1.24-.56,1.24-1.24v-8.92c0-.68-.56-1.24-1.24-1.24h-14.49Z"/><path class="cls-1" d="m86.09,323.22h-3.9c-.8,0-1.46-.65-1.46-1.46v-3.34c0-.8.65-1.46,1.46-1.46h3.9c.8,0,1.46.65,1.46,1.46v3.34c0,.8-.65,1.46-1.46,1.46Zm-3.9-5.57c-.42,0-.77.35-.77.77v3.34c0,.42.35.77.77.77h3.9c.42,0,.77-.35.77-.77v-3.34c0-.42-.35-.77-.77-.77h-3.9Z"/><circle class="cls-1" cx="84.14" cy="320.09" r=".84"/><path class="cls-1" d="m69.37,318.84c-.24,0-.43-.19-.43-.43v-2.79c0-1.38,1.34-2.1,2.66-2.1h13.38c.24,0,.43.19.43.43s-.19.43-.43.43h-13.38c-.87,0-1.8.39-1.8,1.24v2.79c0,.24-.19.43-.43.43Z"/><path class="cls-1" d="m84.98,233.11h-13.38c-1.16,0-2.1-.94-2.1-2.1v-12.26c0-1.16.94-2.1,2.1-2.1h13.38c1.16,0,2.1.94,2.1,2.1v12.26c0,1.16-.94,2.1-2.1,2.1Zm-13.38-15.61c-.68,0-1.24.56-1.24,1.24v12.26c0,.68.56,1.24,1.24,1.24h13.38c.68,0,1.24-.56,1.24-1.24v-12.26c0-.68-.56-1.24-1.24-1.24h-13.38Z"/><rect class="cls-1" x="69.93" y="221.65" width="16.72" height=".86"/><path class="cls-1" d="m74.94,219.17c-.24,0-.43-.19-.43-.43v-3.34c0-.24.19-.43.43-.43s.43.19.43.43v3.34c0,.24-.19.43-.43.43Z"/><path class="cls-1" d="m81.63,219.17c-.24,0-.43-.19-.43-.43v-3.34c0-.24.19-.43.43-.43s.43.19.43.43v3.34c0,.24-.19.43-.43.43Z"/><circle class="cls-1" cx="73.83" cy="225.99" r=".84"/><circle class="cls-1" cx="78.29" cy="225.99" r=".84"/><circle class="cls-1" cx="82.75" cy="225.99" r=".84"/><circle class="cls-1" cx="73.83" cy="229.89" r=".84"/><circle class="cls-1" cx="78.29" cy="229.89" r=".84"/><path class="cls-1" d="m84.98,425.21h-13.38c-1.16,0-2.1-.94-2.1-2.1v-12.26c0-1.16.94-2.1,2.1-2.1h13.38c1.16,0,2.1.94,2.1,2.1v12.26c0,1.16-.94,2.1-2.1,2.1Zm-13.38-15.61c-.68,0-1.24.56-1.24,1.24v12.26c0,.68.56,1.24,1.24,1.24h13.38c.68,0,1.24-.56,1.24-1.24v-12.26c0-.68-.56-1.24-1.24-1.24h-13.38Z"/><rect class="cls-1" x="69.93" y="413.75" width="16.72" height=".86"/><path class="cls-1" d="m74.94,411.27c-.24,0-.43-.19-.43-.43v-3.34c0-.24.19-.43.43-.43s.43.19.43.43v3.34c0,.24-.19.43-.43.43Z"/><path class="cls-1" d="m81.63,411.27c-.24,0-.43-.19-.43-.43v-3.34c0-.24.19-.43.43-.43s.43.19.43.43v3.34c0,.24-.19.43-.43.43Z"/><circle class="cls-1" cx="73.83" cy="418.09" r=".84"/><circle class="cls-1" cx="78.29" cy="418.09" r=".84"/><circle class="cls-1" cx="82.75" cy="418.09" r=".84"/><circle class="cls-1" cx="73.83" cy="421.99" r=".84"/><circle class="cls-1" cx="78.29" cy="421.99" r=".84"/><path class="cls-1" d="m85.53,518.75h-14.49c-1.16,0-2.1-.94-2.1-2.1v-8.92c0-1.16.94-2.1,2.1-2.1h14.49c1.16,0,2.1.94,2.1,2.1v8.92c0,1.16-.94,2.1-2.1,2.1Zm-14.49-12.26c-.68,0-1.24.56-1.24,1.24v8.92c0,.68.56,1.24,1.24,1.24h14.49c.68,0,1.24-.56,1.24-1.24v-8.92c0-.68-.56-1.24-1.24-1.24h-14.49Z"/><path class="cls-1" d="m86.09,515.32h-3.9c-.8,0-1.46-.65-1.46-1.46v-3.34c0-.8.65-1.46,1.46-1.46h3.9c.8,0,1.46.65,1.46,1.46v3.34c0,.8-.65,1.46-1.46,1.46Zm-3.9-5.57c-.42,0-.77.35-.77.77v3.34c0,.42.35.77.77.77h3.9c.42,0,.77-.35.77-.77v-3.34c0-.42-.35-.77-.77-.77h-3.9Z"/><circle class="cls-1" cx="84.14" cy="512.19" r=".84"/><path class="cls-1" d="m69.37,510.94c-.24,0-.43-.19-.43-.43v-2.79c0-1.38,1.34-2.1,2.66-2.1h13.38c.24,0,.43.19.43.43s-.19.43-.43.43h-13.38c-.87,0-1.8.39-1.8,1.24v2.79c0,.24-.19.43-.43.43Z"/><path class="cls-1" d="m380.07,136.22h-13.38c-1.16,0-2.1-.94-2.1-2.1v-12.26c0-1.16.94-2.1,2.1-2.1h13.38c1.16,0,2.1.94,2.1,2.1v12.26c0,1.16-.94,2.1-2.1,2.1Zm-13.38-15.61c-.68,0-1.24.56-1.24,1.24v12.26c0,.68.56,1.24,1.24,1.24h13.38c.68,0,1.24-.56,1.24-1.24v-12.26c0-.68-.56-1.24-1.24-1.24h-13.38Z"/><rect class="cls-1" x="365.02" y="124.77" width="16.72" height=".86"/><path class="cls-1" d="m370.03,122.29c-.24,0-.43-.19-.43-.43v-3.34c0-.24.19-.43.43-.43s.43.19.43.43v3.34c0,.24-.19.43-.43.43Z"/><path class="cls-1" d="m376.72,122.29c-.24,0-.43-.19-.43-.43v-3.34c0-.24.19-.43.43-.43s.43.19.43.43v3.34c0,.24-.19.43-.43.43Z"/><circle class="cls-1" cx="368.92" cy="129.1" r=".84"/><circle class="cls-1" cx="373.38" cy="129.1" r=".84"/><circle class="cls-1" cx="377.84" cy="129.1" r=".84"/><circle class="cls-1" cx="368.92" cy="133" r=".84"/><circle class="cls-1" cx="373.38" cy="133" r=".84"/><path class="cls-1" d="m379.51,39.89h-12.26c-1.32,0-2.66-.72-2.66-2.1v-11.15c0-1.34,1.32-2.66,2.66-2.66h5.02c.14,0,.26.06.34.17l1.54,2.06h5.36c1.32,0,2.66.72,2.66,2.1v9.48c0,1.38-1.34,2.1-2.66,2.1Zm-12.26-15.05c-.87,0-1.8.92-1.8,1.8v11.15c0,.85.93,1.24,1.8,1.24h12.26c.87,0,1.8-.39,1.8-1.24v-9.48c0-.85-.93-1.24-1.8-1.24h-5.57c-.14,0-.26-.06-.34-.17l-1.54-2.06h-4.8Z"/><path class="cls-1" d="m377.84,33.12h-8.92c-.19,0-.34-.15-.34-.34s.15-.34.34-.34h8.92c.19,0,.34.15.34.34s-.15.34-.34.34Z"/><path class="cls-1" d="m377.84,35.91h-8.92c-.19,0-.34-.15-.34-.34s.15-.34.34-.34h8.92c.19,0,.34.15.34.34s-.15.34-.34.34Z"/><path class="cls-1" d="m380.07,329.16h-13.38c-1.16,0-2.1-.94-2.1-2.1v-12.26c0-1.16.94-2.1,2.1-2.1h13.38c1.16,0,2.1.94,2.1,2.1v12.26c0,1.16-.94,2.1-2.1,2.1Zm-13.38-15.61c-.68,0-1.24.56-1.24,1.24v12.26c0,.68.56,1.24,1.24,1.24h13.38c.68,0,1.24-.56,1.24-1.24v-12.26c0-.68-.56-1.24-1.24-1.24h-13.38Z"/><rect class="cls-1" x="365.02" y="317.7" width="16.72" height=".86"/><path class="cls-1" d="m370.03,315.22c-.24,0-.43-.19-.43-.43v-3.34c0-.24.19-.43.43-.43s.43.19.43.43v3.34c0,.24-.19.43-.43.43Z"/><path class="cls-1" d="m376.72,315.22c-.24,0-.43-.19-.43-.43v-3.34c0-.24.19-.43.43-.43s.43.19.43.43v3.34c0,.24-.19.43-.43.43Z"/><circle class="cls-1" cx="368.92" cy="322.04" r=".84"/><circle class="cls-1" cx="373.38" cy="322.04" r=".84"/><circle class="cls-1" cx="377.84" cy="322.04" r=".84"/><circle class="cls-1" cx="368.92" cy="325.94" r=".84"/><circle class="cls-1" cx="373.38" cy="325.94" r=".84"/><path class="cls-1" d="m379.51,231.99h-12.26c-1.32,0-2.66-.72-2.66-2.1v-11.15c0-1.34,1.32-2.66,2.66-2.66h5.02c.14,0,.26.06.34.17l1.54,2.06h5.36c1.32,0,2.66.72,2.66,2.1v9.48c0,1.38-1.34,2.1-2.66,2.1Zm-12.26-15.05c-.87,0-1.8.92-1.8,1.8v11.15c0,.85.93,1.24,1.8,1.24h12.26c.87,0,1.8-.39,1.8-1.24v-9.48c0-.85-.93-1.24-1.8-1.24h-5.57c-.14,0-.26-.06-.34-.17l-1.54-2.06h-4.8Z"/><path class="cls-1" d="m377.84,225.22h-8.92c-.19,0-.34-.15-.34-.34s.15-.34.34-.34h8.92c.19,0,.34.15.34.34s-.15.34-.34.34Z"/><path class="cls-1" d="m377.84,228h-8.92c-.19,0-.34-.15-.34-.34s.15-.34.34-.34h8.92c.19,0,.34.15.34.34s-.15.34-.34.34Z"/><path class="cls-1" d="m379.51,424.09h-12.26c-1.32,0-2.66-.72-2.66-2.1v-11.15c0-1.34,1.32-2.66,2.66-2.66h5.02c.14,0,.26.06.34.17l1.54,2.06h5.36c1.32,0,2.66.72,2.66,2.1v9.48c0,1.38-1.34,2.1-2.66,2.1Zm-12.26-15.05c-.87,0-1.8.92-1.8,1.8v11.15c0,.85.93,1.24,1.8,1.24h12.26c.87,0,1.8-.39,1.8-1.24v-9.48c0-.85-.93-1.24-1.8-1.24h-5.57c-.14,0-.26-.06-.34-.17l-1.54-2.06h-4.8Z"/><path class="cls-1" d="m377.84,417.32h-8.92c-.19,0-.34-.15-.34-.34s.15-.34.34-.34h8.92c.19,0,.34.15.34.34s-.15.34-.34.34Z"/><path class="cls-1" d="m377.84,420.1h-8.92c-.19,0-.34-.15-.34-.34s.15-.34.34-.34h8.92c.19,0,.34.15.34.34s-.15.34-.34.34Z"/><path class="cls-1" d="m380.07,521.26h-13.38c-1.16,0-2.1-.94-2.1-2.1v-12.26c0-1.16.94-2.1,2.1-2.1h13.38c1.16,0,2.1.94,2.1,2.1v12.26c0,1.16-.94,2.1-2.1,2.1Zm-13.38-15.61c-.68,0-1.24.56-1.24,1.24v12.26c0,.68.56,1.24,1.24,1.24h13.38c.68,0,1.24-.56,1.24-1.24v-12.26c0-.68-.56-1.24-1.24-1.24h-13.38Z"/><rect class="cls-1" x="365.02" y="509.8" width="16.72" height=".86"/><path class="cls-1" d="m370.03,507.32c-.24,0-.43-.19-.43-.43v-3.34c0-.24.19-.43.43-.43s.43.19.43.43v3.34c0,.24-.19.43-.43.43Z"/><path class="cls-1" d="m376.72,507.32c-.24,0-.43-.19-.43-.43v-3.34c0-.24.19-.43.43-.43s.43.19.43.43v3.34c0,.24-.19.43-.43.43Z"/><circle class="cls-1" cx="368.92" cy="514.14" r=".84"/><circle class="cls-1" cx="373.38" cy="514.14" r=".84"/><circle class="cls-1" cx="377.84" cy="514.14" r=".84"/><circle class="cls-1" cx="368.92" cy="518.04" r=".84"/><circle class="cls-1" cx="373.38" cy="518.04" r=".84"/><path class="cls-1" d="m324.2,126.74c-2.39,0-4.33-1.94-4.33-4.33s1.94-4.33,4.33-4.33,4.33,1.94,4.33,4.33-1.94,4.33-4.33,4.33Zm0-7.8c-1.91,0-3.47,1.56-3.47,3.47s1.56,3.47,3.47,3.47,3.47-1.56,3.47-3.47-1.56-3.47-3.47-3.47Z"/><path class="cls-1" d="m331.44,136.22c-.24,0-.43-.19-.43-.43,0-2.46-3.43-3.75-6.82-3.75s-6.82,1.29-6.82,3.75c0,.24-.19.43-.43.43s-.43-.19-.43-.43c0-3.17,3.98-4.61,7.68-4.61s7.68,1.44,7.68,4.61c0,.24-.19.43-.43.43Z"/><path class="cls-1" d="m331.44,38.5h-14.49c-1.16,0-2.1-.94-2.1-2.1v-8.92c0-1.16.94-2.1,2.1-2.1h14.49c1.16,0,2.1.94,2.1,2.1v8.92c0,1.16-.94,2.1-2.1,2.1Zm-14.49-12.26c-.68,0-1.24.56-1.24,1.24v8.92c0,.68.56,1.24,1.24,1.24h14.49c.68,0,1.24-.56,1.24-1.24v-8.92c0-.68-.56-1.24-1.24-1.24h-14.49Z"/><path class="cls-1" d="m332,35.07h-3.9c-.8,0-1.46-.65-1.46-1.46v-3.34c0-.8.65-1.46,1.46-1.46h3.9c.8,0,1.46.65,1.46,1.46v3.34c0,.8-.65,1.46-1.46,1.46Zm-3.9-5.57c-.42,0-.77.35-.77.77v3.34c0,.42.35.77.77.77h3.9c.42,0,.77-.35.77-.77v-3.34c0-.42-.35-.77-.77-.77h-3.9Z"/><circle class="cls-1" cx="330.05" cy="31.94" r=".84"/><path class="cls-1" d="m315.28,30.7c-.24,0-.43-.19-.43-.43v-2.79c0-1.38,1.34-2.1,2.66-2.1h13.38c.24,0,.43.19.43.43s-.19.43-.43.43h-13.38c-.87,0-1.8.39-1.8,1.24v2.79c0,.24-.19.43-.43.43Z"/><path class="cls-1" d="m324.2,319.68c-2.39,0-4.33-1.94-4.33-4.33s1.94-4.33,4.33-4.33,4.33,1.94,4.33,4.33-1.94,4.33-4.33,4.33Zm0-7.8c-1.91,0-3.47,1.56-3.47,3.47s1.56,3.47,3.47,3.47,3.47-1.56,3.47-3.47-1.56-3.47-3.47-3.47Z"/><path class="cls-1" d="m331.44,329.16c-.24,0-.43-.19-.43-.43,0-2.46-3.43-3.75-6.82-3.75s-6.82,1.29-6.82,3.75c0,.24-.19.43-.43.43s-.43-.19-.43-.43c0-3.17,3.98-4.61,7.68-4.61s7.68,1.44,7.68,4.61c0,.24-.19.43-.43.43Z"/><path class="cls-1" d="m331.44,230.6h-14.49c-1.16,0-2.1-.94-2.1-2.1v-8.92c0-1.16.94-2.1,2.1-2.1h14.49c1.16,0,2.1.94,2.1,2.1v8.92c0,1.16-.94,2.1-2.1,2.1Zm-14.49-12.26c-.68,0-1.24.56-1.24,1.24v8.92c0,.68.56,1.24,1.24,1.24h14.49c.68,0,1.24-.56,1.24-1.24v-8.92c0-.68-.56-1.24-1.24-1.24h-14.49Z"/><path class="cls-1" d="m332,227.17h-3.9c-.8,0-1.46-.65-1.46-1.46v-3.34c0-.8.65-1.46,1.46-1.46h3.9c.8,0,1.46.65,1.46,1.46v3.34c0,.8-.65,1.46-1.46,1.46Zm-3.9-5.57c-.42,0-.77.35-.77.77v3.34c0,.42.35.77.77.77h3.9c.42,0,.77-.35.77-.77v-3.34c0-.42-.35-.77-.77-.77h-3.9Z"/><circle class="cls-1" cx="330.05" cy="224.04" r=".84"/><path class="cls-1" d="m315.28,222.79c-.24,0-.43-.19-.43-.43v-2.79c0-1.38,1.34-2.1,2.66-2.1h13.38c.24,0,.43.19.43.43s-.19.43-.43.43h-13.38c-.87,0-1.8.39-1.8,1.24v2.79c0,.24-.19.43-.43.43Z"/><path class="cls-1" d="m331.44,422.7h-14.49c-1.16,0-2.1-.94-2.1-2.1v-8.92c0-1.16.94-2.1,2.1-2.1h14.49c1.16,0,2.1.94,2.1,2.1v8.92c0,1.16-.94,2.1-2.1,2.1Zm-14.49-12.26c-.68,0-1.24.56-1.24,1.24v8.92c0,.68.56,1.24,1.24,1.24h14.49c.68,0,1.24-.56,1.24-1.24v-8.92c0-.68-.56-1.24-1.24-1.24h-14.49Z"/><path class="cls-1" d="m332,419.27h-3.9c-.8,0-1.46-.65-1.46-1.46v-3.34c0-.8.65-1.46,1.46-1.46h3.9c.8,0,1.46.65,1.46,1.46v3.34c0,.8-.65,1.46-1.46,1.46Zm-3.9-5.57c-.42,0-.77.35-.77.77v3.34c0,.42.35.77.77.77h3.9c.42,0,.77-.35.77-.77v-3.34c0-.42-.35-.77-.77-.77h-3.9Z"/><circle class="cls-1" cx="330.05" cy="416.14" r=".84"/><path class="cls-1" d="m315.28,414.89c-.24,0-.43-.19-.43-.43v-2.79c0-1.38,1.34-2.1,2.66-2.1h13.38c.24,0,.43.19.43.43s-.19.43-.43.43h-13.38c-.87,0-1.8.39-1.8,1.24v2.79c0,.24-.19.43-.43.43Z"/><path class="cls-1" d="m324.2,511.78c-2.39,0-4.33-1.94-4.33-4.33s1.94-4.33,4.33-4.33,4.33,1.94,4.33,4.33-1.94,4.33-4.33,4.33Zm0-7.8c-1.91,0-3.47,1.56-3.47,3.47s1.56,3.47,3.47,3.47,3.47-1.56,3.47-3.47-1.56-3.47-3.47-3.47Z"/><path class="cls-1" d="m331.44,521.26c-.24,0-.43-.19-.43-.43,0-2.46-3.43-3.75-6.82-3.75s-6.82,1.29-6.82,3.75c0,.24-.19.43-.43.43s-.43-.19-.43-.43c0-3.17,3.98-4.61,7.68-4.61s7.68,1.44,7.68,4.61c0,.24-.19.43-.43.43Z"/><path class="cls-1" d="m133.6,135.11h-12.26c-1.32,0-2.66-.72-2.66-2.1v-11.15c0-1.34,1.32-2.66,2.66-2.66h5.02c.14,0,.26.06.34.17l1.54,2.06h5.36c1.32,0,2.66.72,2.66,2.1v9.48c0,1.38-1.34,2.1-2.66,2.1Zm-12.26-15.05c-.87,0-1.8.92-1.8,1.8v11.15c0,.85.93,1.24,1.8,1.24h12.26c.87,0,1.8-.39,1.8-1.24v-9.48c0-.85-.93-1.24-1.8-1.24h-5.57c-.14,0-.26-.06-.34-.17l-1.54-2.06h-4.8Z"/><path class="cls-1" d="m131.93,128.33h-8.92c-.19,0-.34-.15-.34-.34s.15-.34.34-.34h8.92c.19,0,.34.15.34.34s-.15.34-.34.34Z"/><path class="cls-1" d="m131.93,131.12h-8.92c-.19,0-.34-.15-.34-.34s.15-.34.34-.34h8.92c.19,0,.34.15.34.34s-.15.34-.34.34Z"/><path class="cls-1" d="m134.72,38.5h-14.49c-1.16,0-2.1-.94-2.1-2.1v-8.92c0-1.16.94-2.1,2.1-2.1h14.49c1.16,0,2.1.94,2.1,2.1v8.92c0,1.16-.94,2.1-2.1,2.1Zm-14.49-12.26c-.68,0-1.24.56-1.24,1.24v8.92c0,.68.56,1.24,1.24,1.24h14.49c.68,0,1.24-.56,1.24-1.24v-8.92c0-.68-.56-1.24-1.24-1.24h-14.49Z"/><path class="cls-1" d="m135.27,35.07h-3.9c-.8,0-1.46-.65-1.46-1.46v-3.34c0-.8.65-1.46,1.46-1.46h3.9c.8,0,1.46.65,1.46,1.46v3.34c0,.8-.65,1.46-1.46,1.46Zm-3.9-5.57c-.42,0-.77.35-.77.77v3.34c0,.42.35.77.77.77h3.9c.42,0,.77-.35.77-.77v-3.34c0-.42-.35-.77-.77-.77h-3.9Z"/><circle class="cls-1" cx="133.32" cy="31.94" r=".84"/><path class="cls-1" d="m118.55,30.7c-.24,0-.43-.19-.43-.43v-2.79c0-1.38,1.34-2.1,2.66-2.1h13.38c.24,0,.43.19.43.43s-.19.43-.43.43h-13.38c-.87,0-1.8.39-1.8,1.24v2.79c0,.24-.19.43-.43.43Z"/><path class="cls-1" d="m133.6,328.04h-12.26c-1.32,0-2.66-.72-2.66-2.1v-11.15c0-1.34,1.32-2.66,2.66-2.66h5.02c.14,0,.26.06.34.17l1.54,2.06h5.36c1.32,0,2.66.72,2.66,2.1v9.48c0,1.38-1.34,2.1-2.66,2.1Zm-12.26-15.05c-.87,0-1.8.92-1.8,1.8v11.15c0,.85.93,1.24,1.8,1.24h12.26c.87,0,1.8-.39,1.8-1.24v-9.48c0-.85-.93-1.24-1.8-1.24h-5.57c-.14,0-.26-.06-.34-.17l-1.54-2.06h-4.8Z"/><path class="cls-1" d="m131.93,321.27h-8.92c-.19,0-.34-.15-.34-.34s.15-.34.34-.34h8.92c.19,0,.34.15.34.34s-.15.34-.34.34Z"/><path class="cls-1" d="m131.93,324.05h-8.92c-.19,0-.34-.15-.34-.34s.15-.34.34-.34h8.92c.19,0,.34.15.34.34s-.15.34-.34.34Z"/><path class="cls-1" d="m134.72,230.6h-14.49c-1.16,0-2.1-.94-2.1-2.1v-8.92c0-1.16.94-2.1,2.1-2.1h14.49c1.16,0,2.1.94,2.1,2.1v8.92c0,1.16-.94,2.1-2.1,2.1Zm-14.49-12.26c-.68,0-1.24.56-1.24,1.24v8.92c0,.68.56,1.24,1.24,1.24h14.49c.68,0,1.24-.56,1.24-1.24v-8.92c0-.68-.56-1.24-1.24-1.24h-14.49Z"/><path class="cls-1" d="m135.27,227.17h-3.9c-.8,0-1.46-.65-1.46-1.46v-3.34c0-.8.65-1.46,1.46-1.46h3.9c.8,0,1.46.65,1.46,1.46v3.34c0,.8-.65,1.46-1.46,1.46Zm-3.9-5.57c-.42,0-.77.35-.77.77v3.34c0,.42.35.77.77.77h3.9c.42,0,.77-.35.77-.77v-3.34c0-.42-.35-.77-.77-.77h-3.9Z"/><circle class="cls-1" cx="133.32" cy="224.04" r=".84"/><path class="cls-1" d="m118.55,222.79c-.24,0-.43-.19-.43-.43v-2.79c0-1.38,1.34-2.1,2.66-2.1h13.38c.24,0,.43.19.43.43s-.19.43-.43.43h-13.38c-.87,0-1.8.39-1.8,1.24v2.79c0,.24-.19.43-.43.43Z"/><path class="cls-1" d="m134.72,422.7h-14.49c-1.16,0-2.1-.94-2.1-2.1v-8.92c0-1.16.94-2.1,2.1-2.1h14.49c1.16,0,2.1.94,2.1,2.1v8.92c0,1.16-.94,2.1-2.1,2.1Zm-14.49-12.26c-.68,0-1.24.56-1.24,1.24v8.92c0,.68.56,1.24,1.24,1.24h14.49c.68,0,1.24-.56,1.24-1.24v-8.92c0-.68-.56-1.24-1.24-1.24h-14.49Z"/><path class="cls-1" d="m135.27,419.27h-3.9c-.8,0-1.46-.65-1.46-1.46v-3.34c0-.8.65-1.46,1.46-1.46h3.9c.8,0,1.46.65,1.46,1.46v3.34c0,.8-.65,1.46-1.46,1.46Zm-3.9-5.57c-.42,0-.77.35-.77.77v3.34c0,.42.35.77.77.77h3.9c.42,0,.77-.35.77-.77v-3.34c0-.42-.35-.77-.77-.77h-3.9Z"/><circle class="cls-1" cx="133.32" cy="416.14" r=".84"/><path class="cls-1" d="m118.55,414.89c-.24,0-.43-.19-.43-.43v-2.79c0-1.38,1.34-2.1,2.66-2.1h13.38c.24,0,.43.19.43.43s-.19.43-.43.43h-13.38c-.87,0-1.8.39-1.8,1.24v2.79c0,.24-.19.43-.43.43Z"/><path class="cls-1" d="m133.6,520.14h-12.26c-1.32,0-2.66-.72-2.66-2.1v-11.15c0-1.34,1.32-2.66,2.66-2.66h5.02c.14,0,.26.06.34.17l1.54,2.06h5.36c1.32,0,2.66.72,2.66,2.1v9.48c0,1.38-1.34,2.1-2.66,2.1Zm-12.26-15.05c-.87,0-1.8.92-1.8,1.8v11.15c0,.85.93,1.24,1.8,1.24h12.26c.87,0,1.8-.39,1.8-1.24v-9.48c0-.85-.93-1.24-1.8-1.24h-5.57c-.14,0-.26-.06-.34-.17l-1.54-2.06h-4.8Z"/><path class="cls-1" d="m131.93,513.37h-8.92c-.19,0-.34-.15-.34-.34s.15-.34.34-.34h8.92c.19,0,.34.15.34.34s-.15.34-.34.34Z"/><path class="cls-1" d="m131.93,516.15h-8.92c-.19,0-.34-.15-.34-.34s.15-.34.34-.34h8.92c.19,0,.34.15.34.34s-.15.34-.34.34Z"/><path class="cls-1" d="m225.83,31.53c-2.39,0-4.33-1.94-4.33-4.33s1.94-4.33,4.33-4.33,4.33,1.94,4.33,4.33-1.94,4.33-4.33,4.33Zm0-7.8c-1.91,0-3.47,1.56-3.47,3.47s1.56,3.47,3.47,3.47,3.47-1.56,3.47-3.47-1.56-3.47-3.47-3.47Z"/><path class="cls-1" d="m233.08,41.01c-.24,0-.43-.19-.43-.43,0-2.46-3.43-3.75-6.82-3.75s-6.82,1.29-6.82,3.75c0,.24-.19.43-.43.43s-.43-.19-.43-.43c0-3.17,3.98-4.61,7.68-4.61s7.68,1.44,7.68,4.61c0,.24-.19.43-.43.43Z"/><path class="cls-1" d="m231.96,328.04h-12.26c-1.32,0-2.66-.72-2.66-2.1v-11.15c0-1.34,1.32-2.66,2.66-2.66h5.02c.14,0,.26.06.34.17l1.54,2.06h5.36c1.32,0,2.66.72,2.66,2.1v9.48c0,1.38-1.34,2.1-2.66,2.1Zm-12.26-15.05c-.87,0-1.8.92-1.8,1.8v11.15c0,.85.93,1.24,1.8,1.24h12.26c.87,0,1.8-.39,1.8-1.24v-9.48c0-.85-.93-1.24-1.8-1.24h-5.57c-.14,0-.26-.06-.34-.17l-1.54-2.06h-4.8Z"/><path class="cls-1" d="m230.29,321.27h-8.92c-.19,0-.34-.15-.34-.34s.15-.34.34-.34h8.92c.19,0,.34.15.34.34s-.15.34-.34.34Z"/><path class="cls-1" d="m230.29,324.05h-8.92c-.19,0-.34-.15-.34-.34s.15-.34.34-.34h8.92c.19,0,.34.15.34.34s-.15.34-.34.34Z"/><path class="cls-1" d="m225.83,223.63c-2.39,0-4.33-1.94-4.33-4.33s1.94-4.33,4.33-4.33,4.33,1.94,4.33,4.33-1.94,4.33-4.33,4.33Zm0-7.8c-1.91,0-3.47,1.56-3.47,3.47s1.56,3.47,3.47,3.47,3.47-1.56,3.47-3.47-1.56-3.47-3.47-3.47Z"/><path class="cls-1" d="m233.08,233.11c-.24,0-.43-.19-.43-.43,0-2.46-3.43-3.75-6.82-3.75s-6.82,1.29-6.82,3.75c0,.24-.19.43-.43.43s-.43-.19-.43-.43c0-3.17,3.98-4.61,7.68-4.61s7.68,1.44,7.68,4.61c0,.24-.19.43-.43.43Z"/><path class="cls-1" d="m225.83,415.73c-2.39,0-4.33-1.94-4.33-4.33s1.94-4.33,4.33-4.33,4.33,1.94,4.33,4.33-1.94,4.33-4.33,4.33Zm0-7.8c-1.91,0-3.47,1.56-3.47,3.47s1.56,3.47,3.47,3.47,3.47-1.56,3.47-3.47-1.56-3.47-3.47-3.47Z"/><path class="cls-1" d="m233.08,425.21c-.24,0-.43-.19-.43-.43,0-2.46-3.43-3.75-6.82-3.75s-6.82,1.29-6.82,3.75c0,.24-.19.43-.43.43s-.43-.19-.43-.43c0-3.17,3.98-4.61,7.68-4.61s7.68,1.44,7.68,4.61c0,.24-.19.43-.43.43Z"/><path class="cls-1" d="m231.96,520.14h-12.26c-1.32,0-2.66-.72-2.66-2.1v-11.15c0-1.34,1.32-2.66,2.66-2.66h5.02c.14,0,.26.06.34.17l1.54,2.06h5.36c1.32,0,2.66.72,2.66,2.1v9.48c0,1.38-1.34,2.1-2.66,2.1Zm-12.26-15.05c-.87,0-1.8.92-1.8,1.8v11.15c0,.85.93,1.24,1.8,1.24h12.26c.87,0,1.8-.39,1.8-1.24v-9.48c0-.85-.93-1.24-1.8-1.24h-5.57c-.14,0-.26-.06-.34-.17l-1.54-2.06h-4.8Z"/><path class="cls-1" d="m230.29,513.37h-8.92c-.19,0-.34-.15-.34-.34s.15-.34.34-.34h8.92c.19,0,.34.15.34.34s-.15.34-.34.34Z"/><path class="cls-1" d="m230.29,516.15h-8.92c-.19,0-.34-.15-.34-.34s.15-.34.34-.34h8.92c.19,0,.34.15.34.34s-.15.34-.34.34Z"/><path class="cls-1" d="m35.24,135.11h-12.26c-1.32,0-2.66-.72-2.66-2.1v-11.15c0-1.34,1.32-2.66,2.66-2.66h5.02c.14,0,.26.06.34.17l1.54,2.06h5.36c1.32,0,2.66.72,2.66,2.1v9.48c0,1.38-1.34,2.1-2.66,2.1Zm-12.26-15.05c-.87,0-1.8.92-1.8,1.8v11.15c0,.85.93,1.24,1.8,1.24h12.26c.87,0,1.8-.39,1.8-1.24v-9.48c0-.85-.93-1.24-1.8-1.24h-5.57c-.14,0-.26-.06-.34-.17l-1.54-2.06h-4.8Z"/><path class="cls-1" d="m33.57,128.33h-8.92c-.19,0-.34-.15-.34-.34s.15-.34.34-.34h8.92c.19,0,.34.15.34.34s-.15.34-.34.34Z"/><path class="cls-1" d="m33.57,131.12h-8.92c-.19,0-.34-.15-.34-.34s.15-.34.34-.34h8.92c.19,0,.34.15.34.34s-.15.34-.34.34Z"/><path class="cls-1" d="m208.49,182.57h-14.49c-1.16,0-2.1-.94-2.1-2.1v-8.92c0-1.16.94-2.1,2.1-2.1h14.49c1.16,0,2.1.94,2.1,2.1v8.92c0,1.16-.94,2.1-2.1,2.1Zm-14.49-12.26c-.68,0-1.24.56-1.24,1.24v8.92c0,.68.56,1.24,1.24,1.24h14.49c.68,0,1.24-.56,1.24-1.24v-8.92c0-.68-.56-1.24-1.24-1.24h-14.49Z"/><path class="cls-1" d="m209.05,179.14h-3.9c-.8,0-1.46-.65-1.46-1.46v-3.34c0-.8.65-1.46,1.46-1.46h3.9c.8,0,1.46.65,1.46,1.46v3.34c0,.8-.65,1.46-1.46,1.46Zm-3.9-5.57c-.42,0-.77.35-.77.77v3.34c0,.42.35.77.77.77h3.9c.42,0,.77-.35.77-.77v-3.34c0-.42-.35-.77-.77-.77h-3.9Z"/><circle class="cls-1" cx="207.1" cy="176.01" r=".84"/><path class="cls-1" d="m192.32,174.77c-.24,0-.43-.19-.43-.43v-2.79c0-1.38,1.34-2.1,2.66-2.1h13.38c.24,0,.43.19.43.43s-.19.43-.43.43h-13.38c-.87,0-1.8.39-1.8,1.24v2.79c0,.24-.19.43-.43.43Z"/><path class="cls-1" d="m305.74,183.97h-12.26c-1.32,0-2.66-.72-2.66-2.1v-11.15c0-1.34,1.32-2.66,2.66-2.66h5.02c.14,0,.26.06.34.17l1.54,2.06h5.36c1.32,0,2.66.72,2.66,2.1v9.48c0,1.38-1.34,2.1-2.66,2.1Zm-12.26-15.05c-.87,0-1.8.92-1.8,1.8v11.15c0,.85.93,1.24,1.8,1.24h12.26c.87,0,1.8-.39,1.8-1.24v-9.48c0-.85-.93-1.24-1.8-1.24h-5.57c-.14,0-.26-.06-.34-.17l-1.54-2.06h-4.8Z"/><path class="cls-1" d="m304.07,177.19h-8.92c-.19,0-.34-.15-.34-.34s.15-.34.34-.34h8.92c.19,0,.34.15.34.34s-.15.34-.34.34Z"/><path class="cls-1" d="m304.07,179.98h-8.92c-.19,0-.34-.15-.34-.34s.15-.34.34-.34h8.92c.19,0,.34.15.34.34s-.15.34-.34.34Z"/><path class="cls-1" d="m102.88,175.61c-2.39,0-4.33-1.94-4.33-4.33s1.94-4.33,4.33-4.33,4.33,1.94,4.33,4.33-1.94,4.33-4.33,4.33Zm0-7.8c-1.91,0-3.47,1.56-3.47,3.47s1.56,3.47,3.47,3.47,3.47-1.56,3.47-3.47-1.56-3.47-3.47-3.47Z"/><path class="cls-1" d="m110.13,185.08c-.24,0-.43-.19-.43-.43,0-2.46-3.43-3.75-6.82-3.75s-6.82,1.29-6.82,3.75c0,.24-.19.43-.43.43s-.43-.19-.43-.43c0-3.17,3.98-4.61,7.68-4.61s7.68,1.44,7.68,4.61c0,.24-.19.43-.43.43Z"/><path class="cls-1" d="m397.97,175.61c-2.39,0-4.33-1.94-4.33-4.33s1.94-4.33,4.33-4.33,4.33,1.94,4.33,4.33-1.94,4.33-4.33,4.33Zm0-7.8c-1.91,0-3.47,1.56-3.47,3.47s1.56,3.47,3.47,3.47,3.47-1.56,3.47-3.47-1.56-3.47-3.47-3.47Z"/><path class="cls-1" d="m405.22,185.08c-.24,0-.43-.19-.43-.43,0-2.46-3.43-3.75-6.82-3.75s-6.82,1.29-6.82,3.75c0,.24-.19.43-.43.43s-.43-.19-.43-.43c0-3.17,3.98-4.61,7.68-4.61s7.68,1.44,7.68,4.61c0,.24-.19.43-.43.43Z"/><path class="cls-1" d="m355.48,185.08h-13.38c-1.16,0-2.1-.94-2.1-2.1v-12.26c0-1.16.94-2.1,2.1-2.1h13.38c1.16,0,2.1.94,2.1,2.1v12.26c0,1.16-.94,2.1-2.1,2.1Zm-13.38-15.61c-.68,0-1.24.56-1.24,1.24v12.26c0,.68.56,1.24,1.24,1.24h13.38c.68,0,1.24-.56,1.24-1.24v-12.26c0-.68-.56-1.24-1.24-1.24h-13.38Z"/><rect class="cls-1" x="340.42" y="173.63" width="16.72" height=".86"/><path class="cls-1" d="m345.44,171.15c-.24,0-.43-.19-.43-.43v-3.34c0-.24.19-.43.43-.43s.43.19.43.43v3.34c0,.24-.19.43-.43.43Z"/><path class="cls-1" d="m352.13,171.15c-.24,0-.43-.19-.43-.43v-3.34c0-.24.19-.43.43-.43s.43.19.43.43v3.34c0,.24-.19.43-.43.43Z"/><circle class="cls-1" cx="344.33" cy="177.96" r=".84"/><circle class="cls-1" cx="348.79" cy="177.96" r=".84"/><circle class="cls-1" cx="353.25" cy="177.96" r=".84"/><circle class="cls-1" cx="344.33" cy="181.87" r=".84"/><circle class="cls-1" cx="348.79" cy="181.87" r=".84"/><path class="cls-1" d="m158.75,185.08h-13.38c-1.16,0-2.1-.94-2.1-2.1v-12.26c0-1.16.94-2.1,2.1-2.1h13.38c1.16,0,2.1.94,2.1,2.1v12.26c0,1.16-.94,2.1-2.1,2.1Zm-13.38-15.61c-.68,0-1.24.56-1.24,1.24v12.26c0,.68.56,1.24,1.24,1.24h13.38c.68,0,1.24-.56,1.24-1.24v-12.26c0-.68-.56-1.24-1.24-1.24h-13.38Z"/><rect class="cls-1" x="143.7" y="173.63" width="16.72" height=".86"/><path class="cls-1" d="m148.72,171.15c-.24,0-.43-.19-.43-.43v-3.34c0-.24.19-.43.43-.43s.43.19.43.43v3.34c0,.24-.19.43-.43.43Z"/><path class="cls-1" d="m155.4,171.15c-.24,0-.43-.19-.43-.43v-3.34c0-.24.19-.43.43-.43s.43.19.43.43v3.34c0,.24-.19.43-.43.43Z"/><circle class="cls-1" cx="147.6" cy="177.96" r=".84"/><circle class="cls-1" cx="152.06" cy="177.96" r=".84"/><circle class="cls-1" cx="156.52" cy="177.96" r=".84"/><circle class="cls-1" cx="147.6" cy="181.87" r=".84"/><circle class="cls-1" cx="152.06" cy="181.87" r=".84"/><path class="cls-1" d="m257.11,185.08h-13.38c-1.16,0-2.1-.94-2.1-2.1v-12.26c0-1.16.94-2.1,2.1-2.1h13.38c1.16,0,2.1.94,2.1,2.1v12.26c0,1.16-.94,2.1-2.1,2.1Zm-13.38-15.61c-.68,0-1.24.56-1.24,1.24v12.26c0,.68.56,1.24,1.24,1.24h13.38c.68,0,1.24-.56,1.24-1.24v-12.26c0-.68-.56-1.24-1.24-1.24h-13.38Z"/><rect class="cls-1" x="242.06" y="173.63" width="16.72" height=".86"/><path class="cls-1" d="m247.08,171.15c-.24,0-.43-.19-.43-.43v-3.34c0-.24.19-.43.43-.43s.43.19.43.43v3.34c0,.24-.19.43-.43.43Z"/><path class="cls-1" d="m253.77,171.15c-.24,0-.43-.19-.43-.43v-3.34c0-.24.19-.43.43-.43s.43.19.43.43v3.34c0,.24-.19.43-.43.43Z"/><circle class="cls-1" cx="245.96" cy="177.96" r=".84"/><circle class="cls-1" cx="250.42" cy="177.96" r=".84"/><circle class="cls-1" cx="254.88" cy="177.96" r=".84"/><circle class="cls-1" cx="245.96" cy="181.87" r=".84"/><circle class="cls-1" cx="250.42" cy="181.87" r=".84"/><path class="cls-1" d="m60.94,182.57h-14.49c-1.16,0-2.1-.94-2.1-2.1v-8.92c0-1.16.94-2.1,2.1-2.1h14.49c1.16,0,2.1.94,2.1,2.1v8.92c0,1.16-.94,2.1-2.1,2.1Zm-14.49-12.26c-.68,0-1.24.56-1.24,1.24v8.92c0,.68.56,1.24,1.24,1.24h14.49c.68,0,1.24-.56,1.24-1.24v-8.92c0-.68-.56-1.24-1.24-1.24h-14.49Z"/><path class="cls-1" d="m61.5,179.14h-3.9c-.8,0-1.46-.65-1.46-1.46v-3.34c0-.8.65-1.46,1.46-1.46h3.9c.8,0,1.46.65,1.46,1.46v3.34c0,.8-.65,1.46-1.46,1.46Zm-3.9-5.57c-.42,0-.77.35-.77.77v3.34c0,.42.35.77.77.77h3.9c.42,0,.77-.35.77-.77v-3.34c0-.42-.35-.77-.77-.77h-3.9Z"/><circle class="cls-1" cx="59.55" cy="176.01" r=".84"/><path class="cls-1" d="m44.78,174.77c-.24,0-.43-.19-.43-.43v-2.79c0-1.38,1.34-2.1,2.66-2.1h13.38c.24,0,.43.19.43.43s-.19.43-.43.43h-13.38c-.87,0-1.8.39-1.8,1.24v2.79c0,.24-.19.43-.43.43Z"/><path class="cls-1" d="m29.11,31.53c-2.39,0-4.33-1.94-4.33-4.33s1.94-4.33,4.33-4.33,4.33,1.94,4.33,4.33-1.94,4.33-4.33,4.33Zm0-7.8c-1.91,0-3.47,1.56-3.47,3.47s1.56,3.47,3.47,3.47,3.47-1.56,3.47-3.47-1.56-3.47-3.47-3.47Z"/><path class="cls-1" d="m36.35,41.01c-.24,0-.43-.19-.43-.43,0-2.46-3.43-3.75-6.82-3.75s-6.82,1.29-6.82,3.75c0,.24-.19.43-.43.43s-.43-.19-.43-.43c0-3.17,3.98-4.61,7.68-4.61s7.68,1.44,7.68,4.61c0,.24-.19.43-.43.43Z"/><path class="cls-1" d="m206.54,89.03h-13.38c-1.16,0-2.1-.94-2.1-2.1v-12.26c0-1.16.94-2.1,2.1-2.1h13.38c1.16,0,2.1.94,2.1,2.1v12.26c0,1.16-.94,2.1-2.1,2.1Zm-13.38-15.61c-.68,0-1.24.56-1.24,1.24v12.26c0,.68.56,1.24,1.24,1.24h13.38c.68,0,1.24-.56,1.24-1.24v-12.26c0-.68-.56-1.24-1.24-1.24h-13.38Z"/><rect class="cls-1" x="191.49" y="77.58" width="16.72" height=".86"/><path class="cls-1" d="m196.5,75.1c-.24,0-.43-.19-.43-.43v-3.34c0-.24.19-.43.43-.43s.43.19.43.43v3.34c0,.24-.19.43-.43.43Z"/><path class="cls-1" d="m203.19,75.1c-.24,0-.43-.19-.43-.43v-3.34c0-.24.19-.43.43-.43s.43.19.43.43v3.34c0,.24-.19.43-.43.43Z"/><circle class="cls-1" cx="195.39" cy="81.91" r=".84"/><circle class="cls-1" cx="199.85" cy="81.91" r=".84"/><circle class="cls-1" cx="204.31" cy="81.91" r=".84"/><circle class="cls-1" cx="195.39" cy="85.82" r=".84"/><circle class="cls-1" cx="199.85" cy="85.82" r=".84"/><path class="cls-1" d="m298.21,79.56c-2.39,0-4.33-1.94-4.33-4.33s1.94-4.33,4.33-4.33,4.33,1.94,4.33,4.33-1.94,4.33-4.33,4.33Zm0-7.8c-1.91,0-3.47,1.56-3.47,3.47s1.56,3.47,3.47,3.47,3.47-1.56,3.47-3.47-1.56-3.47-3.47-3.47Z"/><path class="cls-1" d="m305.46,89.03c-.24,0-.43-.19-.43-.43,0-2.46-3.43-3.75-6.82-3.75s-6.82,1.29-6.82,3.75c0,.24-.19.43-.43.43s-.43-.19-.43-.43c0-3.17,3.98-4.61,7.68-4.61s7.68,1.44,7.68,4.61c0,.24-.19.43-.43.43Z"/><path class="cls-1" d="m107.62,87.92h-12.26c-1.32,0-2.66-.72-2.66-2.1v-11.15c0-1.34,1.32-2.66,2.66-2.66h5.02c.14,0,.26.06.34.17l1.54,2.06h5.36c1.32,0,2.66.72,2.66,2.1v9.48c0,1.38-1.34,2.1-2.66,2.1Zm-12.26-15.05c-.87,0-1.8.92-1.8,1.8v11.15c0,.85.93,1.24,1.8,1.24h12.26c.87,0,1.8-.39,1.8-1.24v-9.48c0-.85-.93-1.24-1.8-1.24h-5.57c-.14,0-.26-.06-.34-.17l-1.54-2.06h-4.8Z"/><path class="cls-1" d="m105.94,81.14h-8.92c-.19,0-.34-.15-.34-.34s.15-.34.34-.34h8.92c.19,0,.34.15.34.34s-.15.34-.34.34Z"/><path class="cls-1" d="m105.94,83.93h-8.92c-.19,0-.34-.15-.34-.34s.15-.34.34-.34h8.92c.19,0,.34.15.34.34s-.15.34-.34.34Z"/><path class="cls-1" d="m403.82,86.52h-14.49c-1.16,0-2.1-.94-2.1-2.1v-8.92c0-1.16.94-2.1,2.1-2.1h14.49c1.16,0,2.1.94,2.1,2.1v8.92c0,1.16-.94,2.1-2.1,2.1Zm-14.49-12.26c-.68,0-1.24.56-1.24,1.24v8.92c0,.68.56,1.24,1.24,1.24h14.49c.68,0,1.24-.56,1.24-1.24v-8.92c0-.68-.56-1.24-1.24-1.24h-14.49Z"/><path class="cls-1" d="m404.38,83.09h-3.9c-.8,0-1.46-.65-1.46-1.46v-3.34c0-.8.65-1.46,1.46-1.46h3.9c.8,0,1.46.65,1.46,1.46v3.34c0,.8-.65,1.46-1.46,1.46Zm-3.9-5.57c-.42,0-.77.35-.77.77v3.34c0,.42.35.77.77.77h3.9c.42,0,.77-.35.77-.77v-3.34c0-.42-.35-.77-.77-.77h-3.9Z"/><circle class="cls-1" cx="402.43" cy="79.96" r=".84"/><path class="cls-1" d="m387.66,78.72c-.24,0-.43-.19-.43-.43v-2.79c0-1.38,1.34-2.1,2.66-2.1h13.38c.24,0,.43.19.43.43s-.19.43-.43.43h-13.38c-.87,0-1.8.39-1.8,1.24v2.79c0,.24-.19.43-.43.43Z"/><path class="cls-1" d="m353.53,87.92h-12.26c-1.32,0-2.66-.72-2.66-2.1v-11.15c0-1.34,1.32-2.66,2.66-2.66h5.02c.14,0,.26.06.34.17l1.54,2.06h5.36c1.32,0,2.66.72,2.66,2.1v9.48c0,1.38-1.34,2.1-2.66,2.1Zm-12.26-15.05c-.87,0-1.8.92-1.8,1.8v11.15c0,.85.93,1.24,1.8,1.24h12.26c.87,0,1.8-.39,1.8-1.24v-9.48c0-.85-.93-1.24-1.8-1.24h-5.57c-.14,0-.26-.06-.34-.17l-1.54-2.06h-4.8Z"/><path class="cls-1" d="m351.85,81.14h-8.92c-.19,0-.34-.15-.34-.34s.15-.34.34-.34h8.92c.19,0,.34.15.34.34s-.15.34-.34.34Z"/><path class="cls-1" d="m351.85,83.93h-8.92c-.19,0-.34-.15-.34-.34s.15-.34.34-.34h8.92c.19,0,.34.15.34.34s-.15.34-.34.34Z"/><path class="cls-1" d="m150.67,79.56c-2.39,0-4.33-1.94-4.33-4.33s1.94-4.33,4.33-4.33,4.33,1.94,4.33,4.33-1.94,4.33-4.33,4.33Zm0-7.8c-1.91,0-3.47,1.56-3.47,3.47s1.56,3.47,3.47,3.47,3.47-1.56,3.47-3.47-1.56-3.47-3.47-3.47Z"/><path class="cls-1" d="m157.91,89.03c-.24,0-.43-.19-.43-.43,0-2.46-3.43-3.75-6.82-3.75s-6.82,1.29-6.82,3.75c0,.24-.19.43-.43.43s-.43-.19-.43-.43c0-3.17,3.98-4.61,7.68-4.61s7.68,1.44,7.68,4.61c0,.24-.19.43-.43.43Z"/><path class="cls-1" d="m256.28,86.52h-14.49c-1.16,0-2.1-.94-2.1-2.1v-8.92c0-1.16.94-2.1,2.1-2.1h14.49c1.16,0,2.1.94,2.1,2.1v8.92c0,1.16-.94,2.1-2.1,2.1Zm-14.49-12.26c-.68,0-1.24.56-1.24,1.24v8.92c0,.68.56,1.24,1.24,1.24h14.49c.68,0,1.24-.56,1.24-1.24v-8.92c0-.68-.56-1.24-1.24-1.24h-14.49Z"/><path class="cls-1" d="m256.83,83.09h-3.9c-.8,0-1.46-.65-1.46-1.46v-3.34c0-.8.65-1.46,1.46-1.46h3.9c.8,0,1.46.65,1.46,1.46v3.34c0,.8-.65,1.46-1.46,1.46Zm-3.9-5.57c-.42,0-.77.35-.77.77v3.34c0,.42.35.77.77.77h3.9c.42,0,.77-.35.77-.77v-3.34c0-.42-.35-.77-.77-.77h-3.9Z"/><circle class="cls-1" cx="254.88" cy="79.96" r=".84"/><path class="cls-1" d="m240.11,78.72c-.24,0-.43-.19-.43-.43v-2.79c0-1.38,1.34-2.1,2.66-2.1h13.38c.24,0,.43.19.43.43s-.19.43-.43.43h-13.38c-.87,0-1.8.39-1.8,1.24v2.79c0,.24-.19.43-.43.43Z"/><path class="cls-1" d="m58.99,89.03h-13.38c-1.16,0-2.1-.94-2.1-2.1v-12.26c0-1.16.94-2.1,2.1-2.1h13.38c1.16,0,2.1.94,2.1,2.1v12.26c0,1.16-.94,2.1-2.1,2.1Zm-13.38-15.61c-.68,0-1.24.56-1.24,1.24v12.26c0,.68.56,1.24,1.24,1.24h13.38c.68,0,1.24-.56,1.24-1.24v-12.26c0-.68-.56-1.24-1.24-1.24h-13.38Z"/><rect class="cls-1" x="43.94" y="77.58" width="16.72" height=".86"/><path class="cls-1" d="m48.96,75.1c-.24,0-.43-.19-.43-.43v-3.34c0-.24.19-.43.43-.43s.43.19.43.43v3.34c0,.24-.19.43-.43.43Z"/><path class="cls-1" d="m55.65,75.1c-.24,0-.43-.19-.43-.43v-3.34c0-.24.19-.43.43-.43s.43.19.43.43v3.34c0,.24-.19.43-.43.43Z"/><circle class="cls-1" cx="47.84" cy="81.91" r=".84"/><circle class="cls-1" cx="52.3" cy="81.91" r=".84"/><circle class="cls-1" cx="56.76" cy="81.91" r=".84"/><circle class="cls-1" cx="47.84" cy="85.82" r=".84"/><circle class="cls-1" cx="52.3" cy="85.82" r=".84"/><path class="cls-1" d="m35.24,328.04h-12.26c-1.32,0-2.66-.72-2.66-2.1v-11.15c0-1.34,1.32-2.66,2.66-2.66h5.02c.14,0,.26.06.34.17l1.54,2.06h5.36c1.32,0,2.66.72,2.66,2.1v9.48c0,1.38-1.34,2.1-2.66,2.1Zm-12.26-15.05c-.87,0-1.8.92-1.8,1.8v11.15c0,.85.93,1.24,1.8,1.24h12.26c.87,0,1.8-.39,1.8-1.24v-9.48c0-.85-.93-1.24-1.8-1.24h-5.57c-.14,0-.26-.06-.34-.17l-1.54-2.06h-4.8Z"/><path class="cls-1" d="m33.57,321.27h-8.92c-.19,0-.34-.15-.34-.34s.15-.34.34-.34h8.92c.19,0,.34.15.34.34s-.15.34-.34.34Z"/><path class="cls-1" d="m33.57,324.05h-8.92c-.19,0-.34-.15-.34-.34s.15-.34.34-.34h8.92c.19,0,.34.15.34.34s-.15.34-.34.34Z"/><path class="cls-1" d="m206.41,374.67h-14.49c-1.16,0-2.1-.94-2.1-2.1v-8.92c0-1.16.94-2.1,2.1-2.1h14.49c1.16,0,2.1.94,2.1,2.1v8.92c0,1.16-.94,2.1-2.1,2.1Zm-14.49-12.26c-.68,0-1.24.56-1.24,1.24v8.92c0,.68.56,1.24,1.24,1.24h14.49c.68,0,1.24-.56,1.24-1.24v-8.92c0-.68-.56-1.24-1.24-1.24h-14.49Z"/><path class="cls-1" d="m206.97,371.24h-3.9c-.8,0-1.46-.65-1.46-1.46v-3.34c0-.8.65-1.46,1.46-1.46h3.9c.8,0,1.46.65,1.46,1.46v3.34c0,.8-.65,1.46-1.46,1.46Zm-3.9-5.57c-.42,0-.77.35-.77.77v3.34c0,.42.35.77.77.77h3.9c.42,0,.77-.35.77-.77v-3.34c0-.42-.35-.77-.77-.77h-3.9Z"/><circle class="cls-1" cx="205.02" cy="368.11" r=".84"/><path class="cls-1" d="m190.24,366.87c-.24,0-.43-.19-.43-.43v-2.79c0-1.38,1.34-2.1,2.66-2.1h13.38c.24,0,.43.19.43.43s-.19.43-.43.43h-13.38c-.87,0-1.8.39-1.8,1.24v2.79c0,.24-.19.43-.43.43Z"/><path class="cls-1" d="m303.66,376.07h-12.26c-1.32,0-2.66-.72-2.66-2.1v-11.15c0-1.34,1.32-2.66,2.66-2.66h5.02c.14,0,.26.06.34.17l1.54,2.06h5.36c1.32,0,2.66.72,2.66,2.1v9.48c0,1.38-1.34,2.1-2.66,2.1Zm-12.26-15.05c-.87,0-1.8.92-1.8,1.8v11.15c0,.85.93,1.24,1.8,1.24h12.26c.87,0,1.8-.39,1.8-1.24v-9.48c0-.85-.93-1.24-1.8-1.24h-5.57c-.14,0-.26-.06-.34-.17l-1.54-2.06h-4.8Z"/><path class="cls-1" d="m301.99,369.29h-8.92c-.19,0-.34-.15-.34-.34s.15-.34.34-.34h8.92c.19,0,.34.15.34.34s-.15.34-.34.34Z"/><path class="cls-1" d="m301.99,372.08h-8.92c-.19,0-.34-.15-.34-.34s.15-.34.34-.34h8.92c.19,0,.34.15.34.34s-.15.34-.34.34Z"/><path class="cls-1" d="m100.8,367.71c-2.39,0-4.33-1.94-4.33-4.33s1.94-4.33,4.33-4.33,4.33,1.94,4.33,4.33-1.94,4.33-4.33,4.33Zm0-7.8c-1.91,0-3.47,1.56-3.47,3.47s1.56,3.47,3.47,3.47,3.47-1.56,3.47-3.47-1.56-3.47-3.47-3.47Z"/><path class="cls-1" d="m108.05,377.18c-.24,0-.43-.19-.43-.43,0-2.46-3.43-3.75-6.82-3.75s-6.82,1.29-6.82,3.75c0,.24-.19.43-.43.43s-.43-.19-.43-.43c0-3.17,3.98-4.61,7.68-4.61s7.68,1.44,7.68,4.61c0,.24-.19.43-.43.43Z"/><path class="cls-1" d="m395.89,367.71c-2.39,0-4.33-1.94-4.33-4.33s1.94-4.33,4.33-4.33,4.33,1.94,4.33,4.33-1.94,4.33-4.33,4.33Zm0-7.8c-1.91,0-3.47,1.56-3.47,3.47s1.56,3.47,3.47,3.47,3.47-1.56,3.47-3.47-1.56-3.47-3.47-3.47Z"/><path class="cls-1" d="m403.14,377.18c-.24,0-.43-.19-.43-.43,0-2.46-3.43-3.75-6.82-3.75s-6.82,1.29-6.82,3.75c0,.24-.19.43-.43.43s-.43-.19-.43-.43c0-3.17,3.98-4.61,7.68-4.61s7.68,1.44,7.68,4.61c0,.24-.19.43-.43.43Z"/><path class="cls-1" d="m353.4,377.18h-13.38c-1.16,0-2.1-.94-2.1-2.1v-12.26c0-1.16.94-2.1,2.1-2.1h13.38c1.16,0,2.1.94,2.1,2.1v12.26c0,1.16-.94,2.1-2.1,2.1Zm-13.38-15.61c-.68,0-1.24.56-1.24,1.24v12.26c0,.68.56,1.24,1.24,1.24h13.38c.68,0,1.24-.56,1.24-1.24v-12.26c0-.68-.56-1.24-1.24-1.24h-13.38Z"/><rect class="cls-1" x="338.35" y="365.73" width="16.72" height=".86"/><path class="cls-1" d="m343.36,363.25c-.24,0-.43-.19-.43-.43v-3.34c0-.24.19-.43.43-.43s.43.19.43.43v3.34c0,.24-.19.43-.43.43Z"/><path class="cls-1" d="m350.05,363.25c-.24,0-.43-.19-.43-.43v-3.34c0-.24.19-.43.43-.43s.43.19.43.43v3.34c0,.24-.19.43-.43.43Z"/><circle class="cls-1" cx="342.25" cy="370.06" r=".84"/><circle class="cls-1" cx="346.71" cy="370.06" r=".84"/><circle class="cls-1" cx="351.17" cy="370.06" r=".84"/><circle class="cls-1" cx="342.25" cy="373.96" r=".84"/><circle class="cls-1" cx="346.71" cy="373.96" r=".84"/><path class="cls-1" d="m156.67,377.18h-13.38c-1.16,0-2.1-.94-2.1-2.1v-12.26c0-1.16.94-2.1,2.1-2.1h13.38c1.16,0,2.1.94,2.1,2.1v12.26c0,1.16-.94,2.1-2.1,2.1Zm-13.38-15.61c-.68,0-1.24.56-1.24,1.24v12.26c0,.68.56,1.24,1.24,1.24h13.38c.68,0,1.24-.56,1.24-1.24v-12.26c0-.68-.56-1.24-1.24-1.24h-13.38Z"/><rect class="cls-1" x="141.62" y="365.73" width="16.72" height=".86"/><path class="cls-1" d="m146.64,363.25c-.24,0-.43-.19-.43-.43v-3.34c0-.24.19-.43.43-.43s.43.19.43.43v3.34c0,.24-.19.43-.43.43Z"/><path class="cls-1" d="m153.33,363.25c-.24,0-.43-.19-.43-.43v-3.34c0-.24.19-.43.43-.43s.43.19.43.43v3.34c0,.24-.19.43-.43.43Z"/><circle class="cls-1" cx="145.52" cy="370.06" r=".84"/><circle class="cls-1" cx="149.98" cy="370.06" r=".84"/><circle class="cls-1" cx="154.44" cy="370.06" r=".84"/><circle class="cls-1" cx="145.52" cy="373.96" r=".84"/><circle class="cls-1" cx="149.98" cy="373.96" r=".84"/><path class="cls-1" d="m255.04,377.18h-13.38c-1.16,0-2.1-.94-2.1-2.1v-12.26c0-1.16.94-2.1,2.1-2.1h13.38c1.16,0,2.1.94,2.1,2.1v12.26c0,1.16-.94,2.1-2.1,2.1Zm-13.38-15.61c-.68,0-1.24.56-1.24,1.24v12.26c0,.68.56,1.24,1.24,1.24h13.38c.68,0,1.24-.56,1.24-1.24v-12.26c0-.68-.56-1.24-1.24-1.24h-13.38Z"/><rect class="cls-1" x="239.98" y="365.73" width="16.72" height=".86"/><path class="cls-1" d="m245,363.25c-.24,0-.43-.19-.43-.43v-3.34c0-.24.19-.43.43-.43s.43.19.43.43v3.34c0,.24-.19.43-.43.43Z"/><path class="cls-1" d="m251.69,363.25c-.24,0-.43-.19-.43-.43v-3.34c0-.24.19-.43.43-.43s.43.19.43.43v3.34c0,.24-.19.43-.43.43Z"/><circle class="cls-1" cx="243.89" cy="370.06" r=".84"/><circle class="cls-1" cx="248.35" cy="370.06" r=".84"/><circle class="cls-1" cx="252.81" cy="370.06" r=".84"/><circle class="cls-1" cx="243.89" cy="373.96" r=".84"/><circle class="cls-1" cx="248.35" cy="373.96" r=".84"/><path class="cls-1" d="m58.87,374.67h-14.49c-1.16,0-2.1-.94-2.1-2.1v-8.92c0-1.16.94-2.1,2.1-2.1h14.49c1.16,0,2.1.94,2.1,2.1v8.92c0,1.16-.94,2.1-2.1,2.1Zm-14.49-12.26c-.68,0-1.24.56-1.24,1.24v8.92c0,.68.56,1.24,1.24,1.24h14.49c.68,0,1.24-.56,1.24-1.24v-8.92c0-.68-.56-1.24-1.24-1.24h-14.49Z"/><path class="cls-1" d="m59.42,371.24h-3.9c-.8,0-1.46-.65-1.46-1.46v-3.34c0-.8.65-1.46,1.46-1.46h3.9c.8,0,1.46.65,1.46,1.46v3.34c0,.8-.65,1.46-1.46,1.46Zm-3.9-5.57c-.42,0-.77.35-.77.77v3.34c0,.42.35.77.77.77h3.9c.42,0,.77-.35.77-.77v-3.34c0-.42-.35-.77-.77-.77h-3.9Z"/><circle class="cls-1" cx="57.47" cy="368.11" r=".84"/><path class="cls-1" d="m42.7,366.87c-.24,0-.43-.19-.43-.43v-2.79c0-1.38,1.34-2.1,2.66-2.1h13.38c.24,0,.43.19.43.43s-.19.43-.43.43h-13.38c-.87,0-1.8.39-1.8,1.24v2.79c0,.24-.19.43-.43.43Z"/><path class="cls-1" d="m29.11,223.63c-2.39,0-4.33-1.94-4.33-4.33s1.94-4.33,4.33-4.33,4.33,1.94,4.33,4.33-1.94,4.33-4.33,4.33Zm0-7.8c-1.91,0-3.47,1.56-3.47,3.47s1.56,3.47,3.47,3.47,3.47-1.56,3.47-3.47-1.56-3.47-3.47-3.47Z"/><path class="cls-1" d="m36.35,233.11c-.24,0-.43-.19-.43-.43,0-2.46-3.43-3.75-6.82-3.75s-6.82,1.29-6.82,3.75c0,.24-.19.43-.43.43s-.43-.19-.43-.43c0-3.17,3.98-4.61,7.68-4.61s7.68,1.44,7.68,4.61c0,.24-.19.43-.43.43Z"/><path class="cls-1" d="m29.11,415.73c-2.39,0-4.33-1.94-4.33-4.33s1.94-4.33,4.33-4.33,4.33,1.94,4.33,4.33-1.94,4.33-4.33,4.33Zm0-7.8c-1.91,0-3.47,1.56-3.47,3.47s1.56,3.47,3.47,3.47,3.47-1.56,3.47-3.47-1.56-3.47-3.47-3.47Z"/><path class="cls-1" d="m36.35,425.21c-.24,0-.43-.19-.43-.43,0-2.46-3.43-3.75-6.82-3.75s-6.82,1.29-6.82,3.75c0,.24-.19.43-.43.43s-.43-.19-.43-.43c0-3.17,3.98-4.61,7.68-4.61s7.68,1.44,7.68,4.61c0,.24-.19.43-.43.43Z"/><path class="cls-1" d="m209.32,566.77h-14.49c-1.16,0-2.1-.94-2.1-2.1v-8.92c0-1.16.94-2.1,2.1-2.1h14.49c1.16,0,2.1.94,2.1,2.1v8.92c0,1.16-.94,2.1-2.1,2.1Zm-14.49-12.26c-.68,0-1.24.56-1.24,1.24v8.92c0,.68.56,1.24,1.24,1.24h14.49c.68,0,1.24-.56,1.24-1.24v-8.92c0-.68-.56-1.24-1.24-1.24h-14.49Z"/><path class="cls-1" d="m209.88,563.34h-3.9c-.8,0-1.46-.65-1.46-1.46v-3.34c0-.8.65-1.46,1.46-1.46h3.9c.8,0,1.46.65,1.46,1.46v3.34c0,.8-.65,1.46-1.46,1.46Zm-3.9-5.57c-.42,0-.77.35-.77.77v3.34c0,.42.35.77.77.77h3.9c.42,0,.77-.35.77-.77v-3.34c0-.42-.35-.77-.77-.77h-3.9Z"/><circle class="cls-1" cx="207.93" cy="560.21" r=".84"/><path class="cls-1" d="m193.16,558.97c-.24,0-.43-.19-.43-.43v-2.79c0-1.38,1.34-2.1,2.66-2.1h13.38c.24,0,.43.19.43.43s-.19.43-.43.43h-13.38c-.87,0-1.8.39-1.8,1.24v2.79c0,.24-.19.43-.43.43Z"/><path class="cls-1" d="m306.57,568.17h-12.26c-1.32,0-2.66-.72-2.66-2.1v-11.15c0-1.34,1.32-2.66,2.66-2.66h5.02c.14,0,.26.06.34.17l1.54,2.06h5.36c1.32,0,2.66.72,2.66,2.1v9.48c0,1.38-1.34,2.1-2.66,2.1Zm-12.26-15.05c-.87,0-1.8.92-1.8,1.8v11.15c0,.85.93,1.24,1.8,1.24h12.26c.87,0,1.8-.39,1.8-1.24v-9.48c0-.85-.93-1.24-1.8-1.24h-5.57c-.14,0-.26-.06-.34-.17l-1.54-2.06h-4.8Z"/><path class="cls-1" d="m304.9,561.39h-8.92c-.19,0-.34-.15-.34-.34s.15-.34.34-.34h8.92c.19,0,.34.15.34.34s-.15.34-.34.34Z"/><path class="cls-1" d="m304.9,564.18h-8.92c-.19,0-.34-.15-.34-.34s.15-.34.34-.34h8.92c.19,0,.34.15.34.34s-.15.34-.34.34Z"/><path class="cls-1" d="m103.71,559.81c-2.39,0-4.33-1.94-4.33-4.33s1.94-4.33,4.33-4.33,4.33,1.94,4.33,4.33-1.94,4.33-4.33,4.33Zm0-7.8c-1.91,0-3.47,1.56-3.47,3.47s1.56,3.47,3.47,3.47,3.47-1.56,3.47-3.47-1.56-3.47-3.47-3.47Z"/><path class="cls-1" d="m110.96,569.28c-.24,0-.43-.19-.43-.43,0-2.46-3.43-3.75-6.82-3.75s-6.82,1.29-6.82,3.75c0,.24-.19.43-.43.43s-.43-.19-.43-.43c0-3.17,3.98-4.61,7.68-4.61s7.68,1.44,7.68,4.61c0,.24-.19.43-.43.43Z"/><path class="cls-1" d="m398.8,559.81c-2.39,0-4.33-1.94-4.33-4.33s1.94-4.33,4.33-4.33,4.33,1.94,4.33,4.33-1.94,4.33-4.33,4.33Zm0-7.8c-1.91,0-3.47,1.56-3.47,3.47s1.56,3.47,3.47,3.47,3.47-1.56,3.47-3.47-1.56-3.47-3.47-3.47Z"/><path class="cls-1" d="m406.05,569.28c-.24,0-.43-.19-.43-.43,0-2.46-3.43-3.75-6.82-3.75s-6.82,1.29-6.82,3.75c0,.24-.19.43-.43.43s-.43-.19-.43-.43c0-3.17,3.98-4.61,7.68-4.61s7.68,1.44,7.68,4.61c0,.24-.19.43-.43.43Z"/><path class="cls-1" d="m356.31,569.28h-13.38c-1.16,0-2.1-.94-2.1-2.1v-12.26c0-1.16.94-2.1,2.1-2.1h13.38c1.16,0,2.1.94,2.1,2.1v12.26c0,1.16-.94,2.1-2.1,2.1Zm-13.38-15.61c-.68,0-1.24.56-1.24,1.24v12.26c0,.68.56,1.24,1.24,1.24h13.38c.68,0,1.24-.56,1.24-1.24v-12.26c0-.68-.56-1.24-1.24-1.24h-13.38Z"/><rect class="cls-1" x="341.26" y="557.83" width="16.72" height=".86"/><path class="cls-1" d="m346.28,555.35c-.24,0-.43-.19-.43-.43v-3.34c0-.24.19-.43.43-.43s.43.19.43.43v3.34c0,.24-.19.43-.43.43Z"/><path class="cls-1" d="m352.97,555.35c-.24,0-.43-.19-.43-.43v-3.34c0-.24.19-.43.43-.43s.43.19.43.43v3.34c0,.24-.19.43-.43.43Z"/><circle class="cls-1" cx="345.16" cy="562.16" r=".84"/><circle class="cls-1" cx="349.62" cy="562.16" r=".84"/><circle class="cls-1" cx="354.08" cy="562.16" r=".84"/><circle class="cls-1" cx="345.16" cy="566.06" r=".84"/><circle class="cls-1" cx="349.62" cy="566.06" r=".84"/><path class="cls-1" d="m159.59,569.28h-13.38c-1.16,0-2.1-.94-2.1-2.1v-12.26c0-1.16.94-2.1,2.1-2.1h13.38c1.16,0,2.1.94,2.1,2.1v12.26c0,1.16-.94,2.1-2.1,2.1Zm-13.38-15.61c-.68,0-1.24.56-1.24,1.24v12.26c0,.68.56,1.24,1.24,1.24h13.38c.68,0,1.24-.56,1.24-1.24v-12.26c0-.68-.56-1.24-1.24-1.24h-13.38Z"/><rect class="cls-1" x="144.53" y="557.83" width="16.72" height=".86"/><path class="cls-1" d="m149.55,555.35c-.24,0-.43-.19-.43-.43v-3.34c0-.24.19-.43.43-.43s.43.19.43.43v3.34c0,.24-.19.43-.43.43Z"/><path class="cls-1" d="m156.24,555.35c-.24,0-.43-.19-.43-.43v-3.34c0-.24.19-.43.43-.43s.43.19.43.43v3.34c0,.24-.19.43-.43.43Z"/><circle class="cls-1" cx="148.44" cy="562.16" r=".84"/><circle class="cls-1" cx="152.9" cy="562.16" r=".84"/><circle class="cls-1" cx="157.36" cy="562.16" r=".84"/><circle class="cls-1" cx="148.44" cy="566.06" r=".84"/><circle class="cls-1" cx="152.9" cy="566.06" r=".84"/><path class="cls-1" d="m257.95,569.28h-13.38c-1.16,0-2.1-.94-2.1-2.1v-12.26c0-1.16.94-2.1,2.1-2.1h13.38c1.16,0,2.1.94,2.1,2.1v12.26c0,1.16-.94,2.1-2.1,2.1Zm-13.38-15.61c-.68,0-1.24.56-1.24,1.24v12.26c0,.68.56,1.24,1.24,1.24h13.38c.68,0,1.24-.56,1.24-1.24v-12.26c0-.68-.56-1.24-1.24-1.24h-13.38Z"/><rect class="cls-1" x="242.9" y="557.83" width="16.72" height=".86"/><path class="cls-1" d="m247.91,555.35c-.24,0-.43-.19-.43-.43v-3.34c0-.24.19-.43.43-.43s.43.19.43.43v3.34c0,.24-.19.43-.43.43Z"/><path class="cls-1" d="m254.6,555.35c-.24,0-.43-.19-.43-.43v-3.34c0-.24.19-.43.43-.43s.43.19.43.43v3.34c0,.24-.19.43-.43.43Z"/><circle class="cls-1" cx="246.8" cy="562.16" r=".84"/><circle class="cls-1" cx="251.26" cy="562.16" r=".84"/><circle class="cls-1" cx="255.72" cy="562.16" r=".84"/><circle class="cls-1" cx="246.8" cy="566.06" r=".84"/><circle class="cls-1" cx="251.26" cy="566.06" r=".84"/><path class="cls-1" d="m61.78,566.77h-14.49c-1.16,0-2.1-.94-2.1-2.1v-8.92c0-1.16.94-2.1,2.1-2.1h14.49c1.16,0,2.1.94,2.1,2.1v8.92c0,1.16-.94,2.1-2.1,2.1Zm-14.49-12.26c-.68,0-1.24.56-1.24,1.24v8.92c0,.68.56,1.24,1.24,1.24h14.49c.68,0,1.24-.56,1.24-1.24v-8.92c0-.68-.56-1.24-1.24-1.24h-14.49Z"/><path class="cls-1" d="m62.34,563.34h-3.9c-.8,0-1.46-.65-1.46-1.46v-3.34c0-.8.65-1.46,1.46-1.46h3.9c.8,0,1.46.65,1.46,1.46v3.34c0,.8-.65,1.46-1.46,1.46Zm-3.9-5.57c-.42,0-.77.35-.77.77v3.34c0,.42.35.77.77.77h3.9c.42,0,.77-.35.77-.77v-3.34c0-.42-.35-.77-.77-.77h-3.9Z"/><circle class="cls-1" cx="60.39" cy="560.21" r=".84"/><path class="cls-1" d="m45.61,558.97c-.24,0-.43-.19-.43-.43v-2.79c0-1.38,1.34-2.1,2.66-2.1h13.38c.24,0,.43.19.43.43s-.19.43-.43.43h-13.38c-.87,0-1.8.39-1.8,1.24v2.79c0,.24-.19.43-.43.43Z"/><path class="cls-1" d="m35.24,520.14h-12.26c-1.32,0-2.66-.72-2.66-2.1v-11.15c0-1.34,1.32-2.66,2.66-2.66h5.02c.14,0,.26.06.34.17l1.54,2.06h5.36c1.32,0,2.66.72,2.66,2.1v9.48c0,1.38-1.34,2.1-2.66,2.1Zm-12.26-15.05c-.87,0-1.8.92-1.8,1.8v11.15c0,.85.93,1.24,1.8,1.24h12.26c.87,0,1.8-.39,1.8-1.24v-9.48c0-.85-.93-1.24-1.8-1.24h-5.57c-.14,0-.26-.06-.34-.17l-1.54-2.06h-4.8Z"/><path class="cls-1" d="m33.57,513.37h-8.92c-.19,0-.34-.15-.34-.34s.15-.34.34-.34h8.92c.19,0,.34.15.34.34s-.15.34-.34.34Z"/><path class="cls-1" d="m33.57,516.15h-8.92c-.19,0-.34-.15-.34-.34s.15-.34.34-.34h8.92c.19,0,.34.15.34.34s-.15.34-.34.34Z"/><path class="cls-1" d="m221.61,135.45c-1.13,0-2.06-.92-2.06-2.06v-12.49c0-1.13.92-2.06,2.06-2.06s2.06.92,2.06,2.06v3.85c3.15-1.08,4.4-4.41,4.46-4.55.39-1.06,1.57-1.61,2.63-1.23,1.06.38,1.62,1.56,1.24,2.62-.09.26-2.3,6.26-8.33,7.42v4.38c0,1.13-.92,2.06-2.06,2.06Zm0-15.92c-.76,0-1.37.62-1.37,1.37v12.49c0,.76.62,1.37,1.37,1.37s1.37-.62,1.37-1.37v-4.96l.29-.05c5.85-.95,7.99-6.77,8.08-7.02.25-.71-.12-1.49-.83-1.75h0c-.71-.26-1.5.11-1.76.82-.06.17-1.54,4.11-5.36,5.11l-.43.11v-4.76c0-.76-.62-1.37-1.37-1.37Z"/><path class="cls-1" d="m230.06,135.45c-1.08,0-1.98-.84-2.05-1.92-.08-1.28-1.58-2.04-1.6-2.05-1.02-.48-1.47-1.7-.98-2.73.48-1.03,1.71-1.47,2.73-.99,1.37.64,3.75,2.53,3.95,5.5.04.55-.14,1.08-.5,1.49-.36.41-.86.66-1.41.7-.05,0-.09,0-.14,0Zm-2.77-7.2c-.52,0-1.01.29-1.24.79-.32.68-.02,1.5.66,1.82.02,0,1.87.93,1.98,2.62.05.72.65,1.28,1.37,1.28h.09c.37-.03.7-.19.94-.47.24-.28.36-.63.34-.99-.18-2.66-2.32-4.35-3.56-4.93-.19-.09-.38-.13-.58-.13Z"/><path class="cls-1" d="m206.54,281.13h-13.38c-1.16,0-2.1-.94-2.1-2.1v-12.26c0-1.16.94-2.1,2.1-2.1h13.38c1.16,0,2.1.94,2.1,2.1v12.26c0,1.16-.94,2.1-2.1,2.1Zm-13.38-15.61c-.68,0-1.24.56-1.24,1.24v12.26c0,.68.56,1.24,1.24,1.24h13.38c.68,0,1.24-.56,1.24-1.24v-12.26c0-.68-.56-1.24-1.24-1.24h-13.38Z"/><rect class="cls-1" x="191.49" y="269.68" width="16.72" height=".86"/><path class="cls-1" d="m196.5,267.2c-.24,0-.43-.19-.43-.43v-3.34c0-.24.19-.43.43-.43s.43.19.43.43v3.34c0,.24-.19.43-.43.43Z"/><path class="cls-1" d="m203.19,267.2c-.24,0-.43-.19-.43-.43v-3.34c0-.24.19-.43.43-.43s.43.19.43.43v3.34c0,.24-.19.43-.43.43Z"/><circle class="cls-1" cx="195.39" cy="274.01" r=".84"/><circle class="cls-1" cx="199.85" cy="274.01" r=".84"/><circle class="cls-1" cx="204.31" cy="274.01" r=".84"/><circle class="cls-1" cx="195.39" cy="277.91" r=".84"/><circle class="cls-1" cx="199.85" cy="277.91" r=".84"/><path class="cls-1" d="m298.21,271.66c-2.39,0-4.33-1.94-4.33-4.33s1.94-4.33,4.33-4.33,4.33,1.94,4.33,4.33-1.94,4.33-4.33,4.33Zm0-7.8c-1.91,0-3.47,1.56-3.47,3.47s1.56,3.47,3.47,3.47,3.47-1.56,3.47-3.47-1.56-3.47-3.47-3.47Z"/><path class="cls-1" d="m305.46,281.13c-.24,0-.43-.19-.43-.43,0-2.46-3.43-3.75-6.82-3.75s-6.82,1.29-6.82,3.75c0,.24-.19.43-.43.43s-.43-.19-.43-.43c0-3.17,3.98-4.61,7.68-4.61s7.68,1.44,7.68,4.61c0,.24-.19.43-.43.43Z"/><path class="cls-1" d="m107.62,280.02h-12.26c-1.32,0-2.66-.72-2.66-2.1v-11.15c0-1.34,1.32-2.66,2.66-2.66h5.02c.14,0,.26.06.34.17l1.54,2.06h5.36c1.32,0,2.66.72,2.66,2.1v9.48c0,1.38-1.34,2.1-2.66,2.1Zm-12.26-15.05c-.87,0-1.8.92-1.8,1.8v11.15c0,.85.93,1.24,1.8,1.24h12.26c.87,0,1.8-.39,1.8-1.24v-9.48c0-.85-.93-1.24-1.8-1.24h-5.57c-.14,0-.26-.06-.34-.17l-1.54-2.06h-4.8Z"/><path class="cls-1" d="m105.94,273.24h-8.92c-.19,0-.34-.15-.34-.34s.15-.34.34-.34h8.92c.19,0,.34.15.34.34s-.15.34-.34.34Z"/><path class="cls-1" d="m105.94,276.03h-8.92c-.19,0-.34-.15-.34-.34s.15-.34.34-.34h8.92c.19,0,.34.15.34.34s-.15.34-.34.34Z"/><path class="cls-1" d="m403.82,278.62h-14.49c-1.16,0-2.1-.94-2.1-2.1v-8.92c0-1.16.94-2.1,2.1-2.1h14.49c1.16,0,2.1.94,2.1,2.1v8.92c0,1.16-.94,2.1-2.1,2.1Zm-14.49-12.26c-.68,0-1.24.56-1.24,1.24v8.92c0,.68.56,1.24,1.24,1.24h14.49c.68,0,1.24-.56,1.24-1.24v-8.92c0-.68-.56-1.24-1.24-1.24h-14.49Z"/><path class="cls-1" d="m404.38,275.19h-3.9c-.8,0-1.46-.65-1.46-1.46v-3.34c0-.8.65-1.46,1.46-1.46h3.9c.8,0,1.46.65,1.46,1.46v3.34c0,.8-.65,1.46-1.46,1.46Zm-3.9-5.57c-.42,0-.77.35-.77.77v3.34c0,.42.35.77.77.77h3.9c.42,0,.77-.35.77-.77v-3.34c0-.42-.35-.77-.77-.77h-3.9Z"/><circle class="cls-1" cx="402.43" cy="272.06" r=".84"/><path class="cls-1" d="m387.66,270.82c-.24,0-.43-.19-.43-.43v-2.79c0-1.38,1.34-2.1,2.66-2.1h13.38c.24,0,.43.19.43.43s-.19.43-.43.43h-13.38c-.87,0-1.8.39-1.8,1.24v2.79c0,.24-.19.43-.43.43Z"/><path class="cls-1" d="m256.28,278.62h-14.49c-1.16,0-2.1-.94-2.1-2.1v-8.92c0-1.16.94-2.1,2.1-2.1h14.49c1.16,0,2.1.94,2.1,2.1v8.92c0,1.16-.94,2.1-2.1,2.1Zm-14.49-12.26c-.68,0-1.24.56-1.24,1.24v8.92c0,.68.56,1.24,1.24,1.24h14.49c.68,0,1.24-.56,1.24-1.24v-8.92c0-.68-.56-1.24-1.24-1.24h-14.49Z"/><path class="cls-1" d="m256.83,275.19h-3.9c-.8,0-1.46-.65-1.46-1.46v-3.34c0-.8.65-1.46,1.46-1.46h3.9c.8,0,1.46.65,1.46,1.46v3.34c0,.8-.65,1.46-1.46,1.46Zm-3.9-5.57c-.42,0-.77.35-.77.77v3.34c0,.42.35.77.77.77h3.9c.42,0,.77-.35.77-.77v-3.34c0-.42-.35-.77-.77-.77h-3.9Z"/><circle class="cls-1" cx="254.88" cy="272.06" r=".84"/><path class="cls-1" d="m240.11,270.82c-.24,0-.43-.19-.43-.43v-2.79c0-1.38,1.34-2.1,2.66-2.1h13.38c.24,0,.43.19.43.43s-.19.43-.43.43h-13.38c-.87,0-1.8.39-1.8,1.24v2.79c0,.24-.19.43-.43.43Z"/><path class="cls-1" d="m58.99,281.13h-13.38c-1.16,0-2.1-.94-2.1-2.1v-12.26c0-1.16.94-2.1,2.1-2.1h13.38c1.16,0,2.1.94,2.1,2.1v12.26c0,1.16-.94,2.1-2.1,2.1Zm-13.38-15.61c-.68,0-1.24.56-1.24,1.24v12.26c0,.68.56,1.24,1.24,1.24h13.38c.68,0,1.24-.56,1.24-1.24v-12.26c0-.68-.56-1.24-1.24-1.24h-13.38Z"/><rect class="cls-1" x="43.94" y="269.68" width="16.72" height=".86"/><path class="cls-1" d="m48.96,267.2c-.24,0-.43-.19-.43-.43v-3.34c0-.24.19-.43.43-.43s.43.19.43.43v3.34c0,.24-.19.43-.43.43Z"/><path class="cls-1" d="m55.65,267.2c-.24,0-.43-.19-.43-.43v-3.34c0-.24.19-.43.43-.43s.43.19.43.43v3.34c0,.24-.19.43-.43.43Z"/><circle class="cls-1" cx="47.84" cy="274.01" r=".84"/><circle class="cls-1" cx="52.3" cy="274.01" r=".84"/><circle class="cls-1" cx="56.76" cy="274.01" r=".84"/><circle class="cls-1" cx="47.84" cy="277.91" r=".84"/><circle class="cls-1" cx="52.3" cy="277.91" r=".84"/><path class="cls-1" d="m343.17,281.54c-1.13,0-2.06-.92-2.06-2.06v-12.49c0-1.13.92-2.06,2.06-2.06s2.06.92,2.06,2.06v3.85c3.15-1.08,4.4-4.41,4.46-4.55.39-1.06,1.57-1.61,2.63-1.23,1.06.38,1.62,1.56,1.24,2.62-.09.26-2.3,6.26-8.33,7.42v4.38c0,1.13-.92,2.06-2.06,2.06Zm0-15.92c-.76,0-1.37.62-1.37,1.37v12.49c0,.76.62,1.37,1.37,1.37s1.37-.62,1.37-1.37v-4.96l.29-.05c5.85-.95,7.99-6.77,8.08-7.02.25-.71-.12-1.49-.83-1.75h0c-.71-.26-1.5.11-1.76.82-.06.17-1.54,4.11-5.36,5.11l-.43.11v-4.76c0-.76-.62-1.37-1.37-1.37Z"/><path class="cls-1" d="m351.62,281.54c-1.08,0-1.98-.84-2.05-1.92-.08-1.28-1.58-2.04-1.6-2.05-1.02-.48-1.47-1.7-.98-2.73.48-1.03,1.71-1.47,2.73-.99,1.37.64,3.75,2.53,3.95,5.5.04.55-.14,1.08-.5,1.49-.36.41-.86.66-1.41.7-.05,0-.09,0-.14,0Zm-2.77-7.2c-.52,0-1.01.29-1.24.79-.32.68-.02,1.5.66,1.82.02,0,1.87.93,1.98,2.62.05.72.65,1.28,1.37,1.28h.09c.37-.03.7-.19.94-.47.24-.28.36-.63.34-.99-.18-2.66-2.32-4.35-3.56-4.93-.19-.09-.38-.13-.58-.13Z"/><path class="cls-1" d="m145.61,281.96c-1.13,0-2.06-.92-2.06-2.06v-12.49c0-1.13.92-2.06,2.06-2.06s2.06.92,2.06,2.06v3.85c3.15-1.08,4.4-4.41,4.46-4.55.39-1.06,1.57-1.61,2.63-1.23,1.06.38,1.62,1.56,1.24,2.62-.09.26-2.3,6.26-8.33,7.42v4.38c0,1.13-.92,2.06-2.06,2.06Zm0-15.92c-.76,0-1.37.62-1.37,1.37v12.49c0,.76.62,1.37,1.37,1.37s1.37-.62,1.37-1.37v-4.96l.29-.05c5.85-.95,7.99-6.77,8.08-7.02.25-.71-.12-1.49-.83-1.75h0c-.71-.26-1.5.11-1.76.82-.06.17-1.54,4.11-5.36,5.11l-.43.11v-4.76c0-.76-.62-1.37-1.37-1.37Z"/><path class="cls-1" d="m154.05,281.96c-1.08,0-1.98-.84-2.05-1.92-.08-1.28-1.58-2.04-1.6-2.05-1.02-.48-1.47-1.7-.98-2.73.48-1.03,1.71-1.47,2.73-.99,1.37.64,3.75,2.53,3.95,5.5.04.55-.14,1.08-.5,1.49-.36.41-.86.66-1.41.7-.05,0-.09,0-.14,0Zm-2.77-7.2c-.52,0-1.01.29-1.24.79-.32.68-.02,1.5.66,1.82.02,0,1.87.93,1.98,2.62.05.72.65,1.28,1.37,1.28h.09c.37-.03.7-.19.94-.47.24-.28.36-.63.34-.99-.18-2.66-2.32-4.35-3.56-4.93-.19-.09-.38-.13-.58-.13Z"/><path class="cls-1" d="m206.82,473.23h-13.38c-1.16,0-2.1-.94-2.1-2.1v-12.26c0-1.16.94-2.1,2.1-2.1h13.38c1.16,0,2.1.94,2.1,2.1v12.26c0,1.16-.94,2.1-2.1,2.1Zm-13.38-15.61c-.68,0-1.24.56-1.24,1.24v12.26c0,.68.56,1.24,1.24,1.24h13.38c.68,0,1.24-.56,1.24-1.24v-12.26c0-.68-.56-1.24-1.24-1.24h-13.38Z"/><rect class="cls-1" x="191.76" y="461.78" width="16.72" height=".86"/><path class="cls-1" d="m196.78,459.3c-.24,0-.43-.19-.43-.43v-3.34c0-.24.19-.43.43-.43s.43.19.43.43v3.34c0,.24-.19.43-.43.43Z"/><path class="cls-1" d="m203.47,459.3c-.24,0-.43-.19-.43-.43v-3.34c0-.24.19-.43.43-.43s.43.19.43.43v3.34c0,.24-.19.43-.43.43Z"/><circle class="cls-1" cx="195.67" cy="466.11" r=".84"/><circle class="cls-1" cx="200.13" cy="466.11" r=".84"/><circle class="cls-1" cx="204.59" cy="466.11" r=".84"/><circle class="cls-1" cx="195.67" cy="470.01" r=".84"/><circle class="cls-1" cx="200.13" cy="470.01" r=".84"/><path class="cls-1" d="m298.49,463.76c-2.39,0-4.33-1.94-4.33-4.33s1.94-4.33,4.33-4.33,4.33,1.94,4.33,4.33-1.94,4.33-4.33,4.33Zm0-7.8c-1.91,0-3.47,1.56-3.47,3.47s1.56,3.47,3.47,3.47,3.47-1.56,3.47-3.47-1.56-3.47-3.47-3.47Z"/><path class="cls-1" d="m305.74,473.23c-.24,0-.43-.19-.43-.43,0-2.46-3.43-3.75-6.82-3.75s-6.82,1.29-6.82,3.75c0,.24-.19.43-.43.43s-.43-.19-.43-.43c0-3.17,3.98-4.61,7.68-4.61s7.68,1.44,7.68,4.61c0,.24-.19.43-.43.43Z"/><path class="cls-1" d="m404.1,470.72h-14.49c-1.16,0-2.1-.94-2.1-2.1v-8.92c0-1.16.94-2.1,2.1-2.1h14.49c1.16,0,2.1.94,2.1,2.1v8.92c0,1.16-.94,2.1-2.1,2.1Zm-14.49-12.26c-.68,0-1.24.56-1.24,1.24v8.92c0,.68.56,1.24,1.24,1.24h14.49c.68,0,1.24-.56,1.24-1.24v-8.92c0-.68-.56-1.24-1.24-1.24h-14.49Z"/><path class="cls-1" d="m404.66,467.29h-3.9c-.8,0-1.46-.65-1.46-1.46v-3.34c0-.8.65-1.46,1.46-1.46h3.9c.8,0,1.46.65,1.46,1.46v3.34c0,.8-.65,1.46-1.46,1.46Zm-3.9-5.57c-.42,0-.77.35-.77.77v3.34c0,.42.35.77.77.77h3.9c.42,0,.77-.35.77-.77v-3.34c0-.42-.35-.77-.77-.77h-3.9Z"/><circle class="cls-1" cx="402.71" cy="464.16" r=".84"/><path class="cls-1" d="m387.93,462.92c-.24,0-.43-.19-.43-.43v-2.79c0-1.38,1.34-2.1,2.66-2.1h13.38c.24,0,.43.19.43.43s-.19.43-.43.43h-13.38c-.87,0-1.8.39-1.8,1.24v2.79c0,.24-.19.43-.43.43Z"/><path class="cls-1" d="m353.8,472.12h-12.26c-1.32,0-2.66-.72-2.66-2.1v-11.15c0-1.34,1.32-2.66,2.66-2.66h5.02c.14,0,.26.06.34.17l1.54,2.06h5.36c1.32,0,2.66.72,2.66,2.1v9.48c0,1.38-1.34,2.1-2.66,2.1Zm-12.26-15.05c-.87,0-1.8.92-1.8,1.8v11.15c0,.85.93,1.24,1.8,1.24h12.26c.87,0,1.8-.39,1.8-1.24v-9.48c0-.85-.93-1.24-1.8-1.24h-5.57c-.14,0-.26-.06-.34-.17l-1.54-2.06h-4.8Z"/><path class="cls-1" d="m352.13,465.34h-8.92c-.19,0-.34-.15-.34-.34s.15-.34.34-.34h8.92c.19,0,.34.15.34.34s-.15.34-.34.34Z"/><path class="cls-1" d="m352.13,468.13h-8.92c-.19,0-.34-.15-.34-.34s.15-.34.34-.34h8.92c.19,0,.34.15.34.34s-.15.34-.34.34Z"/><path class="cls-1" d="m150.95,463.76c-2.39,0-4.33-1.94-4.33-4.33s1.94-4.33,4.33-4.33,4.33,1.94,4.33,4.33-1.94,4.33-4.33,4.33Zm0-7.8c-1.91,0-3.47,1.56-3.47,3.47s1.56,3.47,3.47,3.47,3.47-1.56,3.47-3.47-1.56-3.47-3.47-3.47Z"/><path class="cls-1" d="m158.19,473.23c-.24,0-.43-.19-.43-.43,0-2.46-3.43-3.75-6.82-3.75s-6.82,1.29-6.82,3.75c0,.24-.19.43-.43.43s-.43-.19-.43-.43c0-3.17,3.98-4.61,7.68-4.61s7.68,1.44,7.68,4.61c0,.24-.19.43-.43.43Z"/><path class="cls-1" d="m256.56,470.72h-14.49c-1.16,0-2.1-.94-2.1-2.1v-8.92c0-1.16.94-2.1,2.1-2.1h14.49c1.16,0,2.1.94,2.1,2.1v8.92c0,1.16-.94,2.1-2.1,2.1Zm-14.49-12.26c-.68,0-1.24.56-1.24,1.24v8.92c0,.68.56,1.24,1.24,1.24h14.49c.68,0,1.24-.56,1.24-1.24v-8.92c0-.68-.56-1.24-1.24-1.24h-14.49Z"/><path class="cls-1" d="m257.11,467.29h-3.9c-.8,0-1.46-.65-1.46-1.46v-3.34c0-.8.65-1.46,1.46-1.46h3.9c.8,0,1.46.65,1.46,1.46v3.34c0,.8-.65,1.46-1.46,1.46Zm-3.9-5.57c-.42,0-.77.35-.77.77v3.34c0,.42.35.77.77.77h3.9c.42,0,.77-.35.77-.77v-3.34c0-.42-.35-.77-.77-.77h-3.9Z"/><circle class="cls-1" cx="255.16" cy="464.16" r=".84"/><path class="cls-1" d="m240.39,462.92c-.24,0-.43-.19-.43-.43v-2.79c0-1.38,1.34-2.1,2.66-2.1h13.38c.24,0,.43.19.43.43s-.19.43-.43.43h-13.38c-.87,0-1.8.39-1.8,1.24v2.79c0,.24-.19.43-.43.43Z"/><path class="cls-1" d="m59.27,473.23h-13.38c-1.16,0-2.1-.94-2.1-2.1v-12.26c0-1.16.94-2.1,2.1-2.1h13.38c1.16,0,2.1.94,2.1,2.1v12.26c0,1.16-.94,2.1-2.1,2.1Zm-13.38-15.61c-.68,0-1.24.56-1.24,1.24v12.26c0,.68.56,1.24,1.24,1.24h13.38c.68,0,1.24-.56,1.24-1.24v-12.26c0-.68-.56-1.24-1.24-1.24h-13.38Z"/><rect class="cls-1" x="44.22" y="461.78" width="16.72" height=".86"/><path class="cls-1" d="m49.24,459.3c-.24,0-.43-.19-.43-.43v-3.34c0-.24.19-.43.43-.43s.43.19.43.43v3.34c0,.24-.19.43-.43.43Z"/><path class="cls-1" d="m55.93,459.3c-.24,0-.43-.19-.43-.43v-3.34c0-.24.19-.43.43-.43s.43.19.43.43v3.34c0,.24-.19.43-.43.43Z"/><circle class="cls-1" cx="48.12" cy="466.11" r=".84"/><circle class="cls-1" cx="52.58" cy="466.11" r=".84"/><circle class="cls-1" cx="57.04" cy="466.11" r=".84"/><circle class="cls-1" cx="48.12" cy="470.01" r=".84"/><circle class="cls-1" cx="52.58" cy="470.01" r=".84"/><path class="cls-1" d="m98.38,475.25c-1.13,0-2.06-.92-2.06-2.06v-12.49c0-1.13.92-2.06,2.06-2.06s2.06.92,2.06,2.06v3.85c3.15-1.08,4.4-4.41,4.46-4.55.39-1.06,1.57-1.61,2.63-1.23,1.06.38,1.62,1.56,1.24,2.62-.09.26-2.3,6.26-8.33,7.42v4.38c0,1.13-.92,2.06-2.06,2.06Zm0-15.92c-.76,0-1.37.62-1.37,1.37v12.49c0,.76.62,1.37,1.37,1.37s1.37-.62,1.37-1.37v-4.96l.29-.05c5.85-.95,7.99-6.77,8.08-7.02.25-.71-.12-1.49-.83-1.75h0c-.71-.26-1.5.11-1.76.82-.06.17-1.54,4.11-5.36,5.11l-.43.11v-4.76c0-.76-.62-1.37-1.37-1.37Z"/><path class="cls-1" d="m106.82,475.25c-1.08,0-1.98-.84-2.05-1.92-.08-1.28-1.58-2.04-1.6-2.05-1.02-.48-1.47-1.7-.98-2.73.48-1.03,1.71-1.47,2.73-.99,1.37.64,3.75,2.53,3.95,5.5.04.55-.14,1.08-.5,1.49-.36.41-.86.66-1.41.7-.05,0-.09,0-.14,0Zm-2.77-7.2c-.52,0-1.01.29-1.24.79-.32.68-.02,1.5.66,1.82.02,0,1.87.93,1.98,2.62.05.72.65,1.28,1.37,1.28h.09c.37-.03.7-.19.94-.47.24-.28.36-.63.34-.99-.18-2.66-2.32-4.35-3.56-4.93-.19-.09-.38-.13-.58-.13Z"/><path class="cls-1" d="m270.79,426.88c-1.13,0-2.06-.92-2.06-2.06v-12.49c0-1.13.92-2.06,2.06-2.06s2.06.92,2.06,2.06v3.85c3.15-1.08,4.4-4.41,4.46-4.55.39-1.06,1.57-1.61,2.63-1.23,1.06.38,1.62,1.56,1.24,2.62-.09.26-2.3,6.26-8.33,7.42v4.38c0,1.13-.92,2.06-2.06,2.06Zm0-15.92c-.76,0-1.37.62-1.37,1.37v12.49c0,.76.62,1.37,1.37,1.37s1.37-.62,1.37-1.37v-4.96l.29-.05c5.85-.95,7.99-6.77,8.08-7.02.25-.71-.12-1.49-.83-1.75h0c-.71-.26-1.5.11-1.76.82-.06.17-1.54,4.11-5.36,5.11l-.43.11v-4.76c0-.76-.62-1.37-1.37-1.37Z"/><path class="cls-1" d="m279.24,426.88c-1.08,0-1.98-.84-2.05-1.92-.08-1.28-1.58-2.04-1.6-2.05-1.02-.48-1.47-1.7-.98-2.73.48-1.03,1.71-1.47,2.73-.99,1.37.64,3.75,2.53,3.95,5.5.04.55-.14,1.08-.5,1.49-.36.41-.86.66-1.41.7-.05,0-.09,0-.14,0Zm-2.77-7.2c-.52,0-1.01.29-1.24.79-.32.68-.02,1.5.66,1.82.02,0,1.87.93,1.98,2.62.05.72.65,1.28,1.37,1.28h.09c.37-.03.7-.19.94-.47.24-.28.36-.63.34-.99-.18-2.66-2.32-4.35-3.56-4.93-.19-.09-.38-.13-.58-.13Z"/></svg>