<?xml version="1.0" encoding="UTF-8"?><svg id="Layer_1" xmlns="http://www.w3.org/2000/svg" viewBox="0 0 400 400"><defs><style>.cls-1{opacity:.5;}.cls-2{fill:#5e5d9e;}.cls-2,.cls-3{stroke-width:0px;}.cls-3{fill:#fff;}</style></defs><rect class="cls-3" width="400" height="400"/><g class="cls-1"><path class="cls-2" d="m205.74,29.75h-12.54c-1.35,0-2.72-.72-2.72-2.1v-11.15c0-1.34,1.35-2.66,2.72-2.66h5.13c.14,0,.27.06.35.17l1.58,2.06h5.48c1.35,0,2.72.72,2.72,2.1v9.48c0,1.38-1.37,2.1-2.72,2.1Zm-12.54-15.05c-.89,0-1.84.92-1.84,1.8v11.15c0,.85.95,1.24,1.84,1.24h12.54c.89,0,1.84-.39,1.84-1.24v-9.48c0-.85-.95-1.24-1.84-1.24h-5.7c-.14,0-.27-.06-.35-.17l-1.58-2.06h-4.91Z"/><path class="cls-2" d="m204.03,22.98h-9.12c-.19,0-.35-.15-.35-.34s.16-.34.35-.34h9.12c.19,0,.35.15.35.34s-.16.34-.35.34Z"/><path class="cls-2" d="m204.03,25.77h-9.12c-.19,0-.35-.15-.35-.34s.16-.34.35-.34h9.12c.19,0,.35.15.35.34s-.16.34-.35.34Z"/><path class="cls-2" d="m321.87,30.87h-13.68c-1.19,0-2.15-.94-2.15-2.1v-12.26c0-1.16.96-2.1,2.15-2.1h13.68c1.19,0,2.15.94,2.15,2.1v12.26c0,1.16-.96,2.1-2.15,2.1Zm-13.68-15.61c-.7,0-1.27.56-1.27,1.24v12.26c0,.68.57,1.24,1.27,1.24h13.68c.7,0,1.27-.56,1.27-1.24v-12.26c0-.68-.57-1.24-1.27-1.24h-13.68Z"/><rect class="cls-2" x="306.48" y="19.42" width="17.1" height=".86"/><path class="cls-2" d="m311.61,16.93c-.24,0-.44-.19-.44-.43v-3.34c0-.24.2-.43.44-.43s.44.19.44.43v3.34c0,.24-.2.43-.44.43Z"/><path class="cls-2" d="m318.45,16.93c-.24,0-.44-.19-.44-.43v-3.34c0-.24.2-.43.44-.43s.44.19.44.43v3.34c0,.24-.2.43-.44.43Z"/><ellipse class="cls-2" cx="310.47" cy="23.75" rx=".85" ry=".84"/><ellipse class="cls-2" cx="315.03" cy="23.75" rx=".85" ry=".84"/><ellipse class="cls-2" cx="319.59" cy="23.75" rx=".85" ry=".84"/><ellipse class="cls-2" cx="310.47" cy="27.65" rx=".85" ry=".84"/><ellipse class="cls-2" cx="315.03" cy="27.65" rx=".85" ry=".84"/><path class="cls-2" d="m87.33,30.87h-13.68c-1.19,0-2.15-.94-2.15-2.1v-12.26c0-1.16.96-2.1,2.15-2.1h13.68c1.19,0,2.15.94,2.15,2.1v12.26c0,1.16-.96,2.1-2.15,2.1Zm-13.68-15.61c-.7,0-1.27.56-1.27,1.24v12.26c0,.68.57,1.24,1.27,1.24h13.68c.7,0,1.27-.56,1.27-1.24v-12.26c0-.68-.57-1.24-1.27-1.24h-13.68Z"/><rect class="cls-2" x="71.94" y="19.42" width="17.1" height=".86"/><path class="cls-2" d="m77.07,16.93c-.24,0-.44-.19-.44-.43v-3.34c0-.24.2-.43.44-.43s.44.19.44.43v3.34c0,.24-.2.43-.44.43Z"/><path class="cls-2" d="m83.91,16.93c-.24,0-.44-.19-.44-.43v-3.34c0-.24.2-.43.44-.43s.44.19.44.43v3.34c0,.24-.2.43-.44.43Z"/><ellipse class="cls-2" cx="75.93" cy="23.75" rx=".85" ry=".84"/><ellipse class="cls-2" cx="80.49" cy="23.75" rx=".85" ry=".84"/><ellipse class="cls-2" cx="85.05" cy="23.75" rx=".85" ry=".84"/><ellipse class="cls-2" cx="75.93" cy="27.65" rx=".85" ry=".84"/><ellipse class="cls-2" cx="80.49" cy="27.65" rx=".85" ry=".84"/><path class="cls-2" d="m381.93,28.36h-14.82c-1.19,0-2.15-.94-2.15-2.1v-8.92c0-1.16.96-2.1,2.15-2.1h14.82c1.19,0,2.15.94,2.15,2.1v8.92c0,1.16-.96,2.1-2.15,2.1Zm-14.82-12.26c-.7,0-1.27.56-1.27,1.24v8.92c0,.68.57,1.24,1.27,1.24h14.82c.7,0,1.27-.56,1.27-1.24v-8.92c0-.68-.57-1.24-1.27-1.24h-14.82Z"/><path class="cls-2" d="m382.5,24.93h-3.99c-.82,0-1.49-.65-1.49-1.46v-3.34c0-.8.67-1.46,1.49-1.46h3.99c.82,0,1.49.65,1.49,1.46v3.34c0,.8-.67,1.46-1.49,1.46Zm-3.99-5.57c-.43,0-.79.35-.79.77v3.34c0,.42.35.77.79.77h3.99c.43,0,.79-.35.79-.77v-3.34c0-.42-.35-.77-.79-.77h-3.99Z"/><ellipse class="cls-2" cx="380.5" cy="21.8" rx=".85" ry=".84"/><path class="cls-2" d="m365.4,20.56c-.24,0-.44-.19-.44-.43v-2.79c0-1.38,1.37-2.1,2.72-2.1h13.68c.24,0,.44.19.44.43s-.2.43-.44.43h-13.68c-.89,0-1.84.39-1.84,1.24v2.79c0,.24-.2.43-.44.43Z"/><path class="cls-2" d="m147.39,28.36h-14.82c-1.19,0-2.15-.94-2.15-2.1v-8.92c0-1.16.96-2.1,2.15-2.1h14.82c1.19,0,2.15.94,2.15,2.1v8.92c0,1.16-.96,2.1-2.15,2.1Zm-14.82-12.26c-.7,0-1.27.56-1.27,1.24v8.92c0,.68.57,1.24,1.27,1.24h14.82c.7,0,1.27-.56,1.27-1.24v-8.92c0-.68-.57-1.24-1.27-1.24h-14.82Z"/><path class="cls-2" d="m147.96,24.93h-3.99c-.82,0-1.49-.65-1.49-1.46v-3.34c0-.8.67-1.46,1.49-1.46h3.99c.82,0,1.49.65,1.49,1.46v3.34c0,.8-.67,1.46-1.49,1.46Zm-3.99-5.57c-.43,0-.79.35-.79.77v3.34c0,.42.35.77.79.77h3.99c.43,0,.79-.35.79-.77v-3.34c0-.42-.35-.77-.79-.77h-3.99Z"/><ellipse class="cls-2" cx="145.97" cy="21.8" rx=".85" ry=".84"/><path class="cls-2" d="m130.86,20.56c-.24,0-.44-.19-.44-.43v-2.79c0-1.38,1.37-2.1,2.72-2.1h13.68c.24,0,.44.19.44.43s-.2.43-.44.43h-13.68c-.89,0-1.84.39-1.84,1.24v2.79c0,.24-.2.43-.44.43Z"/><path class="cls-2" d="m257.25,21.39c-2.44,0-4.43-1.94-4.43-4.33s1.99-4.33,4.43-4.33,4.43,1.94,4.43,4.33-1.99,4.33-4.43,4.33Zm0-7.8c-1.96,0-3.55,1.56-3.55,3.47s1.59,3.47,3.55,3.47,3.55-1.56,3.55-3.47-1.59-3.47-3.55-3.47Z"/><path class="cls-2" d="m264.66,30.87c-.24,0-.44-.19-.44-.43,0-2.46-3.51-3.75-6.97-3.75s-6.97,1.29-6.97,3.75c0,.24-.2.43-.44.43s-.44-.19-.44-.43c0-3.17,4.07-4.61,7.85-4.61s7.85,1.44,7.85,4.61c0,.24-.2.43-.44.43Z"/><path class="cls-2" d="m22.71,21.39c-2.44,0-4.43-1.94-4.43-4.33s1.99-4.33,4.43-4.33,4.43,1.94,4.43,4.33-1.99,4.33-4.43,4.33Zm0-7.8c-1.96,0-3.55,1.56-3.55,3.47s1.59,3.47,3.55,3.47,3.55-1.56,3.55-3.47-1.59-3.47-3.55-3.47Z"/><path class="cls-2" d="m30.12,30.87c-.24,0-.44-.19-.44-.43,0-2.46-3.51-3.75-6.97-3.75s-6.97,1.29-6.97,3.75c0,.24-.2.43-.44.43s-.44-.19-.44-.43c0-3.17,4.07-4.61,7.85-4.61s7.85,1.44,7.85,4.61c0,.24-.2.43-.44.43Z"/><path class="cls-2" d="m205.79,75.42h-13.68c-1.19,0-2.15-.94-2.15-2.1v-12.26c0-1.16.96-2.1,2.15-2.1h13.68c1.19,0,2.15.94,2.15,2.1v12.26c0,1.16-.96,2.1-2.15,2.1Zm-13.68-15.61c-.7,0-1.27.56-1.27,1.24v12.26c0,.68.57,1.24,1.27,1.24h13.68c.7,0,1.27-.56,1.27-1.24v-12.26c0-.68-.57-1.24-1.27-1.24h-13.68Z"/><rect class="cls-2" x="190.4" y="63.97" width="17.1" height=".86"/><path class="cls-2" d="m195.53,61.49c-.24,0-.44-.19-.44-.43v-3.34c0-.24.2-.43.44-.43s.44.19.44.43v3.34c0,.24-.2.43-.44.43Z"/><path class="cls-2" d="m202.37,61.49c-.24,0-.44-.19-.44-.43v-3.34c0-.24.2-.43.44-.43s.44.19.44.43v3.34c0,.24-.2.43-.44.43Z"/><ellipse class="cls-2" cx="194.39" cy="68.3" rx=".85" ry=".84"/><ellipse class="cls-2" cx="198.95" cy="68.3" rx=".85" ry=".84"/><ellipse class="cls-2" cx="203.51" cy="68.3" rx=".85" ry=".84"/><ellipse class="cls-2" cx="194.39" cy="72.21" rx=".85" ry=".84"/><ellipse class="cls-2" cx="198.95" cy="72.21" rx=".85" ry=".84"/><path class="cls-2" d="m317.2,65.95c-2.44,0-4.43-1.94-4.43-4.33s1.99-4.33,4.43-4.33,4.43,1.94,4.43,4.33-1.99,4.33-4.43,4.33Zm0-7.8c-1.96,0-3.55,1.56-3.55,3.47s1.59,3.47,3.55,3.47,3.55-1.56,3.55-3.47-1.59-3.47-3.55-3.47Z"/><path class="cls-2" d="m324.61,75.42c-.24,0-.44-.19-.44-.43,0-2.46-3.51-3.75-6.97-3.75s-6.97,1.29-6.97,3.75c0,.24-.2.43-.44.43s-.44-.19-.44-.43c0-3.17,4.07-4.61,7.85-4.61s7.85,1.44,7.85,4.61c0,.24-.2.43-.44.43Z"/><path class="cls-2" d="m89.25,74.31h-12.54c-1.35,0-2.72-.72-2.72-2.1v-11.15c0-1.34,1.35-2.66,2.72-2.66h5.13c.14,0,.27.06.35.17l1.58,2.06h5.48c1.35,0,2.72.72,2.72,2.1v9.48c0,1.38-1.37,2.1-2.72,2.1Zm-12.54-15.05c-.89,0-1.84.92-1.84,1.8v11.15c0,.85.95,1.24,1.84,1.24h12.54c.89,0,1.84-.39,1.84-1.24v-9.48c0-.85-.95-1.24-1.84-1.24h-5.7c-.14,0-.27-.06-.35-.17l-1.58-2.06h-4.91Z"/><path class="cls-2" d="m87.54,67.53h-9.12c-.19,0-.35-.15-.35-.34s.16-.34.35-.34h9.12c.19,0,.35.15.35.34s-.16.34-.35.34Z"/><path class="cls-2" d="m87.54,70.32h-9.12c-.19,0-.35-.15-.35-.34s.16-.34.35-.34h9.12c.19,0,.35.15.35.34s-.16.34-.35.34Z"/><path class="cls-2" d="m381.45,74.31h-12.54c-1.35,0-2.72-.72-2.72-2.1v-11.15c0-1.34,1.35-2.66,2.72-2.66h5.13c.14,0,.27.06.35.17l1.58,2.06h5.48c1.35,0,2.72.72,2.72,2.1v9.48c0,1.38-1.37,2.1-2.72,2.1Zm-12.54-15.05c-.89,0-1.84.92-1.84,1.8v11.15c0,.85.95,1.24,1.84,1.24h12.54c.89,0,1.84-.39,1.84-1.24v-9.48c0-.85-.95-1.24-1.84-1.24h-5.7c-.14,0-.27-.06-.35-.17l-1.58-2.06h-4.91Z"/><path class="cls-2" d="m379.74,67.53h-9.12c-.19,0-.35-.15-.35-.34s.16-.34.35-.34h9.12c.19,0,.35.15.35.34s-.16.34-.35.34Z"/><path class="cls-2" d="m379.74,70.32h-9.12c-.19,0-.35-.15-.35-.34s.16-.34.35-.34h9.12c.19,0,.35.15.35.34s-.16.34-.35.34Z"/><path class="cls-2" d="m140.96,65.95c-2.44,0-4.43-1.94-4.43-4.33s1.99-4.33,4.43-4.33,4.43,1.94,4.43,4.33-1.99,4.33-4.43,4.33Zm0-7.8c-1.96,0-3.55,1.56-3.55,3.47s1.59,3.47,3.55,3.47,3.55-1.56,3.55-3.47-1.59-3.47-3.55-3.47Z"/><path class="cls-2" d="m148.37,75.42c-.24,0-.44-.19-.44-.43,0-2.46-3.51-3.75-6.97-3.75s-6.97,1.29-6.97,3.75c0,.24-.2.43-.44.43s-.44-.19-.44-.43c0-3.17,4.07-4.61,7.85-4.61s7.85,1.44,7.85,4.61c0,.24-.2.43-.44.43Z"/><path class="cls-2" d="m266.05,72.91h-14.82c-1.19,0-2.15-.94-2.15-2.1v-8.92c0-1.16.96-2.1,2.15-2.1h14.82c1.19,0,2.15.94,2.15,2.1v8.92c0,1.16-.96,2.1-2.15,2.1Zm-14.82-12.26c-.7,0-1.27.56-1.27,1.24v8.92c0,.68.57,1.24,1.27,1.24h14.82c.7,0,1.27-.56,1.27-1.24v-8.92c0-.68-.57-1.24-1.27-1.24h-14.82Z"/><path class="cls-2" d="m266.62,69.48h-3.99c-.82,0-1.49-.65-1.49-1.46v-3.34c0-.8.67-1.46,1.49-1.46h3.99c.82,0,1.49.65,1.49,1.46v3.34c0,.8-.67,1.46-1.49,1.46Zm-3.99-5.57c-.43,0-.79.35-.79.77v3.34c0,.42.35.77.79.77h3.99c.43,0,.79-.35.79-.77v-3.34c0-.42-.35-.77-.79-.77h-3.99Z"/><ellipse class="cls-2" cx="264.63" cy="66.35" rx=".85" ry=".84"/><path class="cls-2" d="m249.52,65.11c-.24,0-.44-.19-.44-.43v-2.79c0-1.38,1.37-2.1,2.72-2.1h13.68c.24,0,.44.19.44.43s-.2.43-.44.43h-13.68c-.89,0-1.84.39-1.84,1.24v2.79c0,.24-.2.43-.44.43Z"/><path class="cls-2" d="m30.69,75.42h-13.68c-1.19,0-2.15-.94-2.15-2.1v-12.26c0-1.16.96-2.1,2.15-2.1h13.68c1.19,0,2.15.94,2.15,2.1v12.26c0,1.16-.96,2.1-2.15,2.1Zm-13.68-15.61c-.7,0-1.27.56-1.27,1.24v12.26c0,.68.57,1.24,1.27,1.24h13.68c.7,0,1.27-.56,1.27-1.24v-12.26c0-.68-.57-1.24-1.27-1.24h-13.68Z"/><rect class="cls-2" x="15.3" y="63.97" width="17.1" height=".86"/><path class="cls-2" d="m20.43,61.49c-.24,0-.44-.19-.44-.43v-3.34c0-.24.2-.43.44-.43s.44.19.44.43v3.34c0,.24-.2.43-.44.43Z"/><path class="cls-2" d="m27.27,61.49c-.24,0-.44-.19-.44-.43v-3.34c0-.24.2-.43.44-.43s.44.19.44.43v3.34c0,.24-.2.43-.44.43Z"/><ellipse class="cls-2" cx="19.29" cy="68.3" rx=".85" ry=".84"/><ellipse class="cls-2" cx="23.85" cy="68.3" rx=".85" ry=".84"/><ellipse class="cls-2" cx="28.41" cy="68.3" rx=".85" ry=".84"/><ellipse class="cls-2" cx="19.29" cy="72.21" rx=".85" ry=".84"/><ellipse class="cls-2" cx="23.85" cy="72.21" rx=".85" ry=".84"/><path class="cls-2" d="m200.83,110.5c-2.44,0-4.43-1.94-4.43-4.33s1.99-4.33,4.43-4.33,4.43,1.94,4.43,4.33-1.99,4.33-4.43,4.33Zm0-7.8c-1.96,0-3.55,1.56-3.55,3.47s1.59,3.47,3.55,3.47,3.55-1.56,3.55-3.47-1.59-3.47-3.55-3.47Z"/><path class="cls-2" d="m208.24,119.98c-.24,0-.44-.19-.44-.43,0-2.46-3.51-3.75-6.97-3.75s-6.97,1.29-6.97,3.75c0,.24-.2.43-.44.43s-.44-.19-.44-.43c0-3.17,4.07-4.61,7.85-4.61s7.85,1.44,7.85,4.61c0,.24-.2.43-.44.43Z"/><path class="cls-2" d="m320.51,117.47h-14.82c-1.19,0-2.15-.94-2.15-2.1v-8.92c0-1.16.96-2.1,2.15-2.1h14.82c1.19,0,2.15.94,2.15,2.1v8.92c0,1.16-.96,2.1-2.15,2.1Zm-14.82-12.26c-.7,0-1.27.56-1.27,1.24v8.92c0,.68.57,1.24,1.27,1.24h14.82c.7,0,1.27-.56,1.27-1.24v-8.92c0-.68-.57-1.24-1.27-1.24h-14.82Z"/><path class="cls-2" d="m321.08,114.04h-3.99c-.82,0-1.49-.65-1.49-1.46v-3.34c0-.8.67-1.46,1.49-1.46h3.99c.82,0,1.49.65,1.49,1.46v3.34c0,.8-.67,1.46-1.49,1.46Zm-3.99-5.57c-.43,0-.79.35-.79.77v3.34c0,.42.35.77.79.77h3.99c.43,0,.79-.35.79-.77v-3.34c0-.42-.35-.77-.79-.77h-3.99Z"/><ellipse class="cls-2" cx="319.09" cy="110.91" rx=".85" ry=".84"/><path class="cls-2" d="m303.98,109.66c-.24,0-.44-.19-.44-.43v-2.79c0-1.38,1.37-2.1,2.72-2.1h13.68c.24,0,.44.19.44.43s-.2.43-.44.43h-13.68c-.89,0-1.84.39-1.84,1.24v2.79c0,.24-.2.43-.44.43Z"/><path class="cls-2" d="m90.82,117.47h-14.82c-1.19,0-2.15-.94-2.15-2.1v-8.92c0-1.16.96-2.1,2.15-2.1h14.82c1.19,0,2.15.94,2.15,2.1v8.92c0,1.16-.96,2.1-2.15,2.1Zm-14.82-12.26c-.7,0-1.27.56-1.27,1.24v8.92c0,.68.57,1.24,1.27,1.24h14.82c.7,0,1.27-.56,1.27-1.24v-8.92c0-.68-.57-1.24-1.27-1.24h-14.82Z"/><path class="cls-2" d="m91.39,114.04h-3.99c-.82,0-1.49-.65-1.49-1.46v-3.34c0-.8.67-1.46,1.49-1.46h3.99c.82,0,1.49.65,1.49,1.46v3.34c0,.8-.67,1.46-1.49,1.46Zm-3.99-5.57c-.43,0-.79.35-.79.77v3.34c0,.42.35.77.79.77h3.99c.43,0,.79-.35.79-.77v-3.34c0-.42-.35-.77-.79-.77h-3.99Z"/><ellipse class="cls-2" cx="89.4" cy="110.91" rx=".85" ry=".84"/><path class="cls-2" d="m74.29,109.66c-.24,0-.44-.19-.44-.43v-2.79c0-1.38,1.37-2.1,2.72-2.1h13.68c.24,0,.44.19.44.43s-.2.43-.44.43h-13.68c-.89,0-1.84.39-1.84,1.24v2.79c0,.24-.2.43-.44.43Z"/><path class="cls-2" d="m371.52,110.5c-2.44,0-4.43-1.94-4.43-4.33s1.99-4.33,4.43-4.33,4.43,1.94,4.43,4.33-1.99,4.33-4.43,4.33Zm0-7.8c-1.96,0-3.55,1.56-3.55,3.47s1.59,3.47,3.55,3.47,3.55-1.56,3.55-3.47-1.59-3.47-3.55-3.47Z"/><path class="cls-2" d="m378.93,119.98c-.24,0-.44-.19-.44-.43,0-2.46-3.51-3.75-6.97-3.75s-6.97,1.29-6.97,3.75c0,.24-.2.43-.44.43s-.44-.19-.44-.43c0-3.17,4.07-4.61,7.85-4.61s7.85,1.44,7.85,4.61c0,.24-.2.43-.44.43Z"/><path class="cls-2" d="m149.25,118.86h-12.54c-1.35,0-2.72-.72-2.72-2.1v-11.15c0-1.34,1.35-2.66,2.72-2.66h5.13c.14,0,.27.06.35.17l1.58,2.06h5.48c1.35,0,2.72.72,2.72,2.1v9.48c0,1.38-1.37,2.1-2.72,2.1Zm-12.54-15.05c-.89,0-1.84.92-1.84,1.8v11.15c0,.85.95,1.24,1.84,1.24h12.54c.89,0,1.84-.39,1.84-1.24v-9.48c0-.85-.95-1.24-1.84-1.24h-5.7c-.14,0-.27-.06-.35-.17l-1.58-2.06h-4.91Z"/><path class="cls-2" d="m147.54,112.09h-9.12c-.19,0-.35-.15-.35-.34s.16-.34.35-.34h9.12c.19,0,.35.15.35.34s-.16.34-.35.34Z"/><path class="cls-2" d="m147.54,114.87h-9.12c-.19,0-.35-.15-.35-.34s.16-.34.35-.34h9.12c.19,0,.35.15.35.34s-.16.34-.35.34Z"/><path class="cls-2" d="m30.12,118.86h-12.54c-1.35,0-2.72-.72-2.72-2.1v-11.15c0-1.34,1.35-2.66,2.72-2.66h5.13c.14,0,.27.06.35.17l1.58,2.06h5.48c1.35,0,2.72.72,2.72,2.1v9.48c0,1.38-1.37,2.1-2.72,2.1Zm-12.54-15.05c-.89,0-1.84.92-1.84,1.8v11.15c0,.85.95,1.24,1.84,1.24h12.54c.89,0,1.84-.39,1.84-1.24v-9.48c0-.85-.95-1.24-1.84-1.24h-5.7c-.14,0-.27-.06-.35-.17l-1.58-2.06h-4.91Z"/><path class="cls-2" d="m28.41,112.09h-9.12c-.19,0-.35-.15-.35-.34s.16-.34.35-.34h9.12c.19,0,.35.15.35.34s-.16.34-.35.34Z"/><path class="cls-2" d="m28.41,114.87h-9.12c-.19,0-.35-.15-.35-.34s.16-.34.35-.34h9.12c.19,0,.35.15.35.34s-.16.34-.35.34Z"/><path class="cls-2" d="m251.79,119.21c-1.16,0-2.1-.92-2.1-2.06v-12.49c0-1.13.94-2.06,2.1-2.06s2.1.92,2.1,2.06v3.85c3.23-1.08,4.5-4.41,4.56-4.55.4-1.06,1.61-1.61,2.69-1.23,1.09.38,1.65,1.56,1.27,2.62-.09.26-2.35,6.26-8.52,7.42v4.38c0,1.13-.94,2.06-2.1,2.06Zm0-15.92c-.77,0-1.4.62-1.4,1.37v12.49c0,.76.63,1.37,1.4,1.37s1.4-.62,1.4-1.37v-4.96l.29-.05c5.98-.95,8.17-6.77,8.26-7.02.26-.71-.12-1.49-.85-1.75h0c-.72-.26-1.53.11-1.79.82-.06.17-1.58,4.11-5.48,5.11l-.44.11v-4.76c0-.76-.63-1.37-1.4-1.37Z"/><path class="cls-2" d="m260.43,119.21c-1.1,0-2.02-.84-2.1-1.92-.09-1.28-1.62-2.04-1.63-2.05-1.04-.48-1.5-1.7-1.01-2.73.49-1.03,1.75-1.47,2.8-.99,1.41.64,3.84,2.53,4.04,5.5.04.55-.15,1.08-.52,1.49-.37.41-.88.66-1.44.7-.05,0-.09,0-.14,0Zm-2.83-7.2c-.53,0-1.03.29-1.27.79-.33.68-.02,1.5.68,1.82.02,0,1.91.93,2.03,2.62.05.72.66,1.28,1.4,1.28h.09c.37-.03.72-.19.96-.47.25-.28.37-.63.34-.99-.18-2.66-2.37-4.35-3.64-4.93-.19-.09-.39-.13-.59-.13Z"/><path class="cls-2" d="m205.18,206.58h-14.82c-1.19,0-2.15-.94-2.15-2.1v-8.92c0-1.16.96-2.1,2.15-2.1h14.82c1.19,0,2.15.94,2.15,2.1v8.92c0,1.16-.96,2.1-2.15,2.1Zm-14.82-12.26c-.7,0-1.27.56-1.27,1.24v8.92c0,.68.57,1.24,1.27,1.24h14.82c.7,0,1.27-.56,1.27-1.24v-8.92c0-.68-.57-1.24-1.27-1.24h-14.82Z"/><path class="cls-2" d="m205.75,203.14h-3.99c-.82,0-1.49-.65-1.49-1.46v-3.34c0-.8.67-1.46,1.49-1.46h3.99c.82,0,1.49.65,1.49,1.46v3.34c0,.8-.67,1.46-1.49,1.46Zm-3.99-5.57c-.43,0-.79.35-.79.77v3.34c0,.42.35.77.79.77h3.99c.43,0,.79-.35.79-.77v-3.34c0-.42-.35-.77-.79-.77h-3.99Z"/><ellipse class="cls-2" cx="203.75" cy="200.01" rx=".85" ry=".84"/><path class="cls-2" d="m188.65,198.77c-.24,0-.44-.19-.44-.43v-2.79c0-1.38,1.37-2.1,2.72-2.1h13.68c.24,0,.44.19.44.43s-.2.43-.44.43h-13.68c-.89,0-1.84.39-1.84,1.24v2.79c0,.24-.2.43-.44.43Z"/><path class="cls-2" d="m320.93,207.97h-12.54c-1.35,0-2.72-.72-2.72-2.1v-11.15c0-1.34,1.35-2.66,2.72-2.66h5.13c.14,0,.27.06.35.17l1.58,2.06h5.48c1.35,0,2.72.72,2.72,2.1v9.48c0,1.38-1.37,2.1-2.72,2.1Zm-12.54-15.05c-.89,0-1.84.92-1.84,1.8v11.15c0,.85.95,1.24,1.84,1.24h12.54c.89,0,1.84-.39,1.84-1.24v-9.48c0-.85-.95-1.24-1.84-1.24h-5.7c-.14,0-.27-.06-.35-.17l-1.58-2.06h-4.91Z"/><path class="cls-2" d="m319.22,201.19h-9.12c-.19,0-.35-.15-.35-.34s.16-.34.35-.34h9.12c.19,0,.35.15.35.34s-.16.34-.35.34Z"/><path class="cls-2" d="m319.22,203.98h-9.12c-.19,0-.35-.15-.35-.34s.16-.34.35-.34h9.12c.19,0,.35.15.35.34s-.16.34-.35.34Z"/><path class="cls-2" d="m82.01,199.61c-2.44,0-4.43-1.94-4.43-4.33s1.99-4.33,4.43-4.33,4.43,1.94,4.43,4.33-1.99,4.33-4.43,4.33Zm0-7.8c-1.96,0-3.55,1.56-3.55,3.47s1.59,3.47,3.55,3.47,3.55-1.56,3.55-3.47-1.59-3.47-3.55-3.47Z"/><path class="cls-2" d="m89.42,209.08c-.24,0-.44-.19-.44-.43,0-2.46-3.51-3.75-6.97-3.75s-6.97,1.29-6.97,3.75c0,.24-.2.43-.44.43s-.44-.19-.44-.43c0-3.17,4.07-4.61,7.85-4.61s7.85,1.44,7.85,4.61c0,.24-.2.43-.44.43Z"/><path class="cls-2" d="m379.66,209.08h-13.68c-1.19,0-2.15-.94-2.15-2.1v-12.26c0-1.16.96-2.1,2.15-2.1h13.68c1.19,0,2.15.94,2.15,2.1v12.26c0,1.16-.96,2.1-2.15,2.1Zm-13.68-15.61c-.7,0-1.27.56-1.27,1.24v12.26c0,.68.57,1.24,1.27,1.24h13.68c.7,0,1.27-.56,1.27-1.24v-12.26c0-.68-.57-1.24-1.27-1.24h-13.68Z"/><rect class="cls-2" x="364.27" y="197.63" width="17.1" height=".86"/><path class="cls-2" d="m369.4,195.15c-.24,0-.44-.19-.44-.43v-3.34c0-.24.2-.43.44-.43s.44.19.44.43v3.34c0,.24-.2.43-.44.43Z"/><path class="cls-2" d="m376.24,195.15c-.24,0-.44-.19-.44-.43v-3.34c0-.24.2-.43.44-.43s.44.19.44.43v3.34c0,.24-.2.43-.44.43Z"/><ellipse class="cls-2" cx="368.26" cy="201.96" rx=".85" ry=".84"/><ellipse class="cls-2" cx="372.82" cy="201.96" rx=".85" ry=".84"/><ellipse class="cls-2" cx="377.38" cy="201.96" rx=".85" ry=".84"/><ellipse class="cls-2" cx="368.26" cy="205.87" rx=".85" ry=".84"/><ellipse class="cls-2" cx="372.82" cy="205.87" rx=".85" ry=".84"/><path class="cls-2" d="m145.87,209.08h-13.68c-1.19,0-2.15-.94-2.15-2.1v-12.26c0-1.16.96-2.1,2.15-2.1h13.68c1.19,0,2.15.94,2.15,2.1v12.26c0,1.16-.96,2.1-2.15,2.1Zm-13.68-15.61c-.7,0-1.27.56-1.27,1.24v12.26c0,.68.57,1.24,1.27,1.24h13.68c.7,0,1.27-.56,1.27-1.24v-12.26c0-.68-.57-1.24-1.27-1.24h-13.68Z"/><rect class="cls-2" x="130.49" y="197.63" width="17.1" height=".86"/><path class="cls-2" d="m135.61,195.15c-.24,0-.44-.19-.44-.43v-3.34c0-.24.2-.43.44-.43s.44.19.44.43v3.34c0,.24-.2.43-.44.43Z"/><path class="cls-2" d="m142.45,195.15c-.24,0-.44-.19-.44-.43v-3.34c0-.24.2-.43.44-.43s.44.19.44.43v3.34c0,.24-.2.43-.44.43Z"/><ellipse class="cls-2" cx="134.48" cy="201.96" rx=".85" ry=".84"/><ellipse class="cls-2" cx="139.03" cy="201.96" rx=".85" ry=".84"/><ellipse class="cls-2" cx="143.59" cy="201.96" rx=".85" ry=".84"/><ellipse class="cls-2" cx="134.48" cy="205.87" rx=".85" ry=".84"/><ellipse class="cls-2" cx="139.03" cy="205.87" rx=".85" ry=".84"/><path class="cls-2" d="m31.83,206.58h-14.82c-1.19,0-2.15-.94-2.15-2.1v-8.92c0-1.16.96-2.1,2.15-2.1h14.82c1.19,0,2.15.94,2.15,2.1v8.92c0,1.16-.96,2.1-2.15,2.1Zm-14.82-12.26c-.7,0-1.27.56-1.27,1.24v8.92c0,.68.57,1.24,1.27,1.24h14.82c.7,0,1.27-.56,1.27-1.24v-8.92c0-.68-.57-1.24-1.27-1.24h-14.82Z"/><path class="cls-2" d="m32.4,203.14h-3.99c-.82,0-1.49-.65-1.49-1.46v-3.34c0-.8.67-1.46,1.49-1.46h3.99c.82,0,1.49.65,1.49,1.46v3.34c0,.8-.67,1.46-1.49,1.46Zm-3.99-5.57c-.43,0-.79.35-.79.77v3.34c0,.42.35.77.79.77h3.99c.43,0,.79-.35.79-.77v-3.34c0-.42-.35-.77-.79-.77h-3.99Z"/><ellipse class="cls-2" cx="30.41" cy="200.01" rx=".85" ry=".84"/><path class="cls-2" d="m15.3,198.77c-.24,0-.44-.19-.44-.43v-2.79c0-1.38,1.37-2.1,2.72-2.1h13.68c.24,0,.44.19.44.43s-.2.43-.44.43h-13.68c-.89,0-1.84.39-1.84,1.24v2.79c0,.24-.2.43-.44.43Z"/><path class="cls-2" d="m257.57,199.61c-2.44,0-4.43-1.94-4.43-4.33s1.99-4.33,4.43-4.33,4.43,1.94,4.43,4.33-1.99,4.33-4.43,4.33Zm0-7.8c-1.96,0-3.55,1.56-3.55,3.47s1.59,3.47,3.55,3.47,3.55-1.56,3.55-3.47-1.59-3.47-3.55-3.47Z"/><path class="cls-2" d="m264.98,209.08c-.24,0-.44-.19-.44-.43,0-2.46-3.51-3.75-6.97-3.75s-6.97,1.29-6.97,3.75c0,.24-.2.43-.44.43s-.44-.19-.44-.43c0-3.17,4.07-4.61,7.85-4.61s7.85,1.44,7.85,4.61c0,.24-.2.43-.44.43Z"/><path class="cls-2" d="m203.53,164.53h-13.68c-1.19,0-2.15-.94-2.15-2.1v-12.26c0-1.16.96-2.1,2.15-2.1h13.68c1.19,0,2.15.94,2.15,2.1v12.26c0,1.16-.96,2.1-2.15,2.1Zm-13.68-15.61c-.7,0-1.27.56-1.27,1.24v12.26c0,.68.57,1.24,1.27,1.24h13.68c.7,0,1.27-.56,1.27-1.24v-12.26c0-.68-.57-1.24-1.27-1.24h-13.68Z"/><rect class="cls-2" x="188.14" y="153.08" width="17.1" height=".86"/><path class="cls-2" d="m193.27,150.59c-.24,0-.44-.19-.44-.43v-3.34c0-.24.2-.43.44-.43s.44.19.44.43v3.34c0,.24-.2.43-.44.43Z"/><path class="cls-2" d="m200.11,150.59c-.24,0-.44-.19-.44-.43v-3.34c0-.24.2-.43.44-.43s.44.19.44.43v3.34c0,.24-.2.43-.44.43Z"/><ellipse class="cls-2" cx="192.13" cy="157.41" rx=".85" ry=".84"/><ellipse class="cls-2" cx="196.69" cy="157.41" rx=".85" ry=".84"/><ellipse class="cls-2" cx="201.25" cy="157.41" rx=".85" ry=".84"/><ellipse class="cls-2" cx="192.13" cy="161.31" rx=".85" ry=".84"/><ellipse class="cls-2" cx="196.69" cy="161.31" rx=".85" ry=".84"/><path class="cls-2" d="m315.34,155.05c-2.44,0-4.43-1.94-4.43-4.33s1.99-4.33,4.43-4.33,4.43,1.94,4.43,4.33-1.99,4.33-4.43,4.33Zm0-7.8c-1.96,0-3.55,1.56-3.55,3.47s1.59,3.47,3.55,3.47,3.55-1.56,3.55-3.47-1.59-3.47-3.55-3.47Z"/><path class="cls-2" d="m322.75,164.53c-.24,0-.44-.19-.44-.43,0-2.46-3.51-3.75-6.97-3.75s-6.97,1.29-6.97,3.75c0,.24-.2.43-.44.43s-.44-.19-.44-.43c0-3.17,4.07-4.61,7.85-4.61s7.85,1.44,7.85,4.61c0,.24-.2.43-.44.43Z"/><path class="cls-2" d="m89.45,163.42h-12.54c-1.35,0-2.72-.72-2.72-2.1v-11.15c0-1.34,1.35-2.66,2.72-2.66h5.13c.14,0,.27.06.35.17l1.58,2.06h5.48c1.35,0,2.72.72,2.72,2.1v9.48c0,1.38-1.37,2.1-2.72,2.1Zm-12.54-15.05c-.89,0-1.84.92-1.84,1.8v11.15c0,.85.95,1.24,1.84,1.24h12.54c.89,0,1.84-.39,1.84-1.24v-9.48c0-.85-.95-1.24-1.84-1.24h-5.7c-.14,0-.27-.06-.35-.17l-1.58-2.06h-4.91Z"/><path class="cls-2" d="m87.74,156.64h-9.12c-.19,0-.35-.15-.35-.34s.16-.34.35-.34h9.12c.19,0,.35.15.35.34s-.16.34-.35.34Z"/><path class="cls-2" d="m87.74,159.43h-9.12c-.19,0-.35-.15-.35-.34s.16-.34.35-.34h9.12c.19,0,.35.15.35.34s-.16.34-.35.34Z"/><path class="cls-2" d="m263.99,162.02h-14.82c-1.19,0-2.15-.94-2.15-2.1v-8.92c0-1.16.96-2.1,2.15-2.1h14.82c1.19,0,2.15.94,2.15,2.1v8.92c0,1.16-.96,2.1-2.15,2.1Zm-14.82-12.26c-.7,0-1.27.56-1.27,1.24v8.92c0,.68.57,1.24,1.27,1.24h14.82c.7,0,1.27-.56,1.27-1.24v-8.92c0-.68-.57-1.24-1.27-1.24h-14.82Z"/><path class="cls-2" d="m264.56,158.59h-3.99c-.82,0-1.49-.65-1.49-1.46v-3.34c0-.8.67-1.46,1.49-1.46h3.99c.82,0,1.49.65,1.49,1.46v3.34c0,.8-.67,1.46-1.49,1.46Zm-3.99-5.57c-.43,0-.79.35-.79.77v3.34c0,.42.35.77.79.77h3.99c.43,0,.79-.35.79-.77v-3.34c0-.42-.35-.77-.79-.77h-3.99Z"/><ellipse class="cls-2" cx="262.57" cy="155.46" rx=".85" ry=".84"/><path class="cls-2" d="m247.46,154.22c-.24,0-.44-.19-.44-.43v-2.79c0-1.38,1.37-2.1,2.72-2.1h13.68c.24,0,.44.19.44.43s-.2.43-.44.43h-13.68c-.89,0-1.84.39-1.84,1.24v2.79c0,.24-.2.43-.44.43Z"/><path class="cls-2" d="m30.69,164.53h-13.68c-1.19,0-2.15-.94-2.15-2.1v-12.26c0-1.16.96-2.1,2.15-2.1h13.68c1.19,0,2.15.94,2.15,2.1v12.26c0,1.16-.96,2.1-2.15,2.1Zm-13.68-15.61c-.7,0-1.27.56-1.27,1.24v12.26c0,.68.57,1.24,1.27,1.24h13.68c.7,0,1.27-.56,1.27-1.24v-12.26c0-.68-.57-1.24-1.27-1.24h-13.68Z"/><rect class="cls-2" x="15.3" y="153.08" width="17.1" height=".86"/><path class="cls-2" d="m20.43,150.59c-.24,0-.44-.19-.44-.43v-3.34c0-.24.2-.43.44-.43s.44.19.44.43v3.34c0,.24-.2.43-.44.43Z"/><path class="cls-2" d="m27.27,150.59c-.24,0-.44-.19-.44-.43v-3.34c0-.24.2-.43.44-.43s.44.19.44.43v3.34c0,.24-.2.43-.44.43Z"/><ellipse class="cls-2" cx="19.29" cy="157.41" rx=".85" ry=".84"/><ellipse class="cls-2" cx="23.85" cy="157.41" rx=".85" ry=".84"/><ellipse class="cls-2" cx="28.41" cy="157.41" rx=".85" ry=".84"/><ellipse class="cls-2" cx="19.29" cy="161.31" rx=".85" ry=".84"/><ellipse class="cls-2" cx="23.85" cy="161.31" rx=".85" ry=".84"/><path class="cls-2" d="m366.64,163.76c-1.16,0-2.1-.92-2.1-2.06v-12.49c0-1.13.94-2.06,2.1-2.06s2.1.92,2.1,2.06v3.85c3.23-1.08,4.5-4.41,4.56-4.55.4-1.06,1.61-1.61,2.69-1.23,1.09.38,1.65,1.56,1.27,2.62-.09.26-2.35,6.26-8.52,7.42v4.38c0,1.13-.94,2.06-2.1,2.06Zm0-15.92c-.77,0-1.4.62-1.4,1.37v12.49c0,.76.63,1.37,1.4,1.37s1.4-.62,1.4-1.37v-4.96l.29-.05c5.98-.95,8.17-6.77,8.26-7.02.26-.71-.12-1.49-.85-1.75h0c-.72-.26-1.53.11-1.79.82-.06.17-1.58,4.11-5.48,5.11l-.44.11v-4.76c0-.76-.63-1.37-1.4-1.37Z"/><path class="cls-2" d="m375.27,163.76c-1.1,0-2.02-.84-2.1-1.92-.09-1.28-1.62-2.04-1.63-2.05-1.04-.48-1.5-1.7-1.01-2.73.49-1.03,1.75-1.47,2.8-.99,1.41.64,3.84,2.53,4.04,5.5.04.55-.15,1.08-.52,1.49-.37.41-.88.66-1.44.7-.05,0-.09,0-.14,0Zm-2.83-7.2c-.53,0-1.03.29-1.27.79-.33.68-.02,1.5.68,1.82.02,0,1.91.93,2.03,2.62.05.72.66,1.28,1.4,1.28h.09c.37-.03.72-.19.96-.47.25-.28.37-.63.34-.99-.18-2.66-2.37-4.35-3.64-4.93-.19-.09-.39-.13-.59-.13Z"/><path class="cls-2" d="m135.61,163.76c-1.16,0-2.1-.92-2.1-2.06v-12.49c0-1.13.94-2.06,2.1-2.06s2.1.92,2.1,2.06v3.85c3.23-1.08,4.5-4.41,4.56-4.55.4-1.06,1.61-1.61,2.69-1.23,1.09.38,1.65,1.56,1.27,2.62-.09.26-2.35,6.26-8.52,7.42v4.38c0,1.13-.94,2.06-2.1,2.06Zm0-15.92c-.77,0-1.4.62-1.4,1.37v12.49c0,.76.63,1.37,1.4,1.37s1.4-.62,1.4-1.37v-4.96l.29-.05c5.98-.95,8.17-6.77,8.26-7.02.26-.71-.12-1.49-.85-1.75h0c-.72-.26-1.53.11-1.79.82-.06.17-1.58,4.11-5.48,5.11l-.44.11v-4.76c0-.76-.63-1.37-1.4-1.37Z"/><path class="cls-2" d="m144.25,163.76c-1.1,0-2.02-.84-2.1-1.92-.09-1.28-1.62-2.04-1.63-2.05-1.04-.48-1.5-1.7-1.01-2.73.49-1.03,1.75-1.47,2.8-.99,1.41.64,3.84,2.53,4.04,5.5.04.55-.15,1.08-.52,1.49-.37.41-.88.66-1.44.7-.05,0-.09,0-.14,0Zm-2.83-7.2c-.53,0-1.03.29-1.27.79-.33.68-.02,1.5.68,1.82.02,0,1.91.93,2.03,2.62.05.72.66,1.28,1.4,1.28h.09c.37-.03.72-.19.96-.47.25-.28.37-.63.34-.99-.18-2.66-2.37-4.35-3.64-4.93-.19-.09-.39-.13-.59-.13Z"/><path class="cls-2" d="m205.79,253.64h-13.68c-1.19,0-2.15-.94-2.15-2.1v-12.26c0-1.16.96-2.1,2.15-2.1h13.68c1.19,0,2.15.94,2.15,2.1v12.26c0,1.16-.96,2.1-2.15,2.1Zm-13.68-15.61c-.7,0-1.27.56-1.27,1.24v12.26c0,.68.57,1.24,1.27,1.24h13.68c.7,0,1.27-.56,1.27-1.24v-12.26c0-.68-.57-1.24-1.27-1.24h-13.68Z"/><rect class="cls-2" x="190.4" y="242.18" width="17.1" height=".86"/><path class="cls-2" d="m195.53,239.7c-.24,0-.44-.19-.44-.43v-3.34c0-.24.2-.43.44-.43s.44.19.44.43v3.34c0,.24-.2.43-.44.43Z"/><path class="cls-2" d="m202.37,239.7c-.24,0-.44-.19-.44-.43v-3.34c0-.24.2-.43.44-.43s.44.19.44.43v3.34c0,.24-.2.43-.44.43Z"/><ellipse class="cls-2" cx="194.39" cy="246.52" rx=".85" ry=".84"/><ellipse class="cls-2" cx="198.95" cy="246.52" rx=".85" ry=".84"/><ellipse class="cls-2" cx="203.51" cy="246.52" rx=".85" ry=".84"/><ellipse class="cls-2" cx="194.39" cy="250.42" rx=".85" ry=".84"/><ellipse class="cls-2" cx="198.95" cy="250.42" rx=".85" ry=".84"/><path class="cls-2" d="m317.2,244.16c-2.44,0-4.43-1.94-4.43-4.33s1.99-4.33,4.43-4.33,4.43,1.94,4.43,4.33-1.99,4.33-4.43,4.33Zm0-7.8c-1.96,0-3.55,1.56-3.55,3.47s1.59,3.47,3.55,3.47,3.55-1.56,3.55-3.47-1.59-3.47-3.55-3.47Z"/><path class="cls-2" d="m324.61,253.64c-.24,0-.44-.19-.44-.43,0-2.46-3.51-3.75-6.97-3.75s-6.97,1.29-6.97,3.75c0,.24-.2.43-.44.43s-.44-.19-.44-.43c0-3.17,4.07-4.61,7.85-4.61s7.85,1.44,7.85,4.61c0,.24-.2.43-.44.43Z"/><path class="cls-2" d="m89.25,252.52h-12.54c-1.35,0-2.72-.72-2.72-2.1v-11.15c0-1.34,1.35-2.66,2.72-2.66h5.13c.14,0,.27.06.35.17l1.58,2.06h5.48c1.35,0,2.72.72,2.72,2.1v9.48c0,1.38-1.37,2.1-2.72,2.1Zm-12.54-15.05c-.89,0-1.84.92-1.84,1.8v11.15c0,.85.95,1.24,1.84,1.24h12.54c.89,0,1.84-.39,1.84-1.24v-9.48c0-.85-.95-1.24-1.84-1.24h-5.7c-.14,0-.27-.06-.35-.17l-1.58-2.06h-4.91Z"/><path class="cls-2" d="m87.54,245.75h-9.12c-.19,0-.35-.15-.35-.34s.16-.34.35-.34h9.12c.19,0,.35.15.35.34s-.16.34-.35.34Z"/><path class="cls-2" d="m87.54,248.53h-9.12c-.19,0-.35-.15-.35-.34s.16-.34.35-.34h9.12c.19,0,.35.15.35.34s-.16.34-.35.34Z"/><path class="cls-2" d="m381.45,252.52h-12.54c-1.35,0-2.72-.72-2.72-2.1v-11.15c0-1.34,1.35-2.66,2.72-2.66h5.13c.14,0,.27.06.35.17l1.58,2.06h5.48c1.35,0,2.72.72,2.72,2.1v9.48c0,1.38-1.37,2.1-2.72,2.1Zm-12.54-15.05c-.89,0-1.84.92-1.84,1.8v11.15c0,.85.95,1.24,1.84,1.24h12.54c.89,0,1.84-.39,1.84-1.24v-9.48c0-.85-.95-1.24-1.84-1.24h-5.7c-.14,0-.27-.06-.35-.17l-1.58-2.06h-4.91Z"/><path class="cls-2" d="m379.74,245.75h-9.12c-.19,0-.35-.15-.35-.34s.16-.34.35-.34h9.12c.19,0,.35.15.35.34s-.16.34-.35.34Z"/><path class="cls-2" d="m379.74,248.53h-9.12c-.19,0-.35-.15-.35-.34s.16-.34.35-.34h9.12c.19,0,.35.15.35.34s-.16.34-.35.34Z"/><path class="cls-2" d="m140.96,244.16c-2.44,0-4.43-1.94-4.43-4.33s1.99-4.33,4.43-4.33,4.43,1.94,4.43,4.33-1.99,4.33-4.43,4.33Zm0-7.8c-1.96,0-3.55,1.56-3.55,3.47s1.59,3.47,3.55,3.47,3.55-1.56,3.55-3.47-1.59-3.47-3.55-3.47Z"/><path class="cls-2" d="m148.37,253.64c-.24,0-.44-.19-.44-.43,0-2.46-3.51-3.75-6.97-3.75s-6.97,1.29-6.97,3.75c0,.24-.2.43-.44.43s-.44-.19-.44-.43c0-3.17,4.07-4.61,7.85-4.61s7.85,1.44,7.85,4.61c0,.24-.2.43-.44.43Z"/><path class="cls-2" d="m266.05,251.13h-14.82c-1.19,0-2.15-.94-2.15-2.1v-8.92c0-1.16.96-2.1,2.15-2.1h14.82c1.19,0,2.15.94,2.15,2.1v8.92c0,1.16-.96,2.1-2.15,2.1Zm-14.82-12.26c-.7,0-1.27.56-1.27,1.24v8.92c0,.68.57,1.24,1.27,1.24h14.82c.7,0,1.27-.56,1.27-1.24v-8.92c0-.68-.57-1.24-1.27-1.24h-14.82Z"/><path class="cls-2" d="m266.62,247.7h-3.99c-.82,0-1.49-.65-1.49-1.46v-3.34c0-.8.67-1.46,1.49-1.46h3.99c.82,0,1.49.65,1.49,1.46v3.34c0,.8-.67,1.46-1.49,1.46Zm-3.99-5.57c-.43,0-.79.35-.79.77v3.34c0,.42.35.77.79.77h3.99c.43,0,.79-.35.79-.77v-3.34c0-.42-.35-.77-.79-.77h-3.99Z"/><ellipse class="cls-2" cx="264.63" cy="244.57" rx=".85" ry=".84"/><path class="cls-2" d="m249.52,243.32c-.24,0-.44-.19-.44-.43v-2.79c0-1.38,1.37-2.1,2.72-2.1h13.68c.24,0,.44.19.44.43s-.2.43-.44.43h-13.68c-.89,0-1.84.39-1.84,1.24v2.79c0,.24-.2.43-.44.43Z"/><path class="cls-2" d="m30.69,253.64h-13.68c-1.19,0-2.15-.94-2.15-2.1v-12.26c0-1.16.96-2.1,2.15-2.1h13.68c1.19,0,2.15.94,2.15,2.1v12.26c0,1.16-.96,2.1-2.15,2.1Zm-13.68-15.61c-.7,0-1.27.56-1.27,1.24v12.26c0,.68.57,1.24,1.27,1.24h13.68c.7,0,1.27-.56,1.27-1.24v-12.26c0-.68-.57-1.24-1.27-1.24h-13.68Z"/><rect class="cls-2" x="15.3" y="242.18" width="17.1" height=".86"/><path class="cls-2" d="m20.43,239.7c-.24,0-.44-.19-.44-.43v-3.34c0-.24.2-.43.44-.43s.44.19.44.43v3.34c0,.24-.2.43-.44.43Z"/><path class="cls-2" d="m27.27,239.7c-.24,0-.44-.19-.44-.43v-3.34c0-.24.2-.43.44-.43s.44.19.44.43v3.34c0,.24-.2.43-.44.43Z"/><ellipse class="cls-2" cx="19.29" cy="246.52" rx=".85" ry=".84"/><ellipse class="cls-2" cx="23.85" cy="246.52" rx=".85" ry=".84"/><ellipse class="cls-2" cx="28.41" cy="246.52" rx=".85" ry=".84"/><ellipse class="cls-2" cx="19.29" cy="250.42" rx=".85" ry=".84"/><ellipse class="cls-2" cx="23.85" cy="250.42" rx=".85" ry=".84"/><path class="cls-2" d="m200.83,288.71c-2.44,0-4.43-1.94-4.43-4.33s1.99-4.33,4.43-4.33,4.43,1.94,4.43,4.33-1.99,4.33-4.43,4.33Zm0-7.8c-1.96,0-3.55,1.56-3.55,3.47s1.59,3.47,3.55,3.47,3.55-1.56,3.55-3.47-1.59-3.47-3.55-3.47Z"/><path class="cls-2" d="m208.24,298.19c-.24,0-.44-.19-.44-.43,0-2.46-3.51-3.75-6.97-3.75s-6.97,1.29-6.97,3.75c0,.24-.2.43-.44.43s-.44-.19-.44-.43c0-3.17,4.07-4.61,7.85-4.61s7.85,1.44,7.85,4.61c0,.24-.2.43-.44.43Z"/><path class="cls-2" d="m320.51,295.68h-14.82c-1.19,0-2.15-.94-2.15-2.1v-8.92c0-1.16.96-2.1,2.15-2.1h14.82c1.19,0,2.15.94,2.15,2.1v8.92c0,1.16-.96,2.1-2.15,2.1Zm-14.82-12.26c-.7,0-1.27.56-1.27,1.24v8.92c0,.68.57,1.24,1.27,1.24h14.82c.7,0,1.27-.56,1.27-1.24v-8.92c0-.68-.57-1.24-1.27-1.24h-14.82Z"/><path class="cls-2" d="m321.08,292.25h-3.99c-.82,0-1.49-.65-1.49-1.46v-3.34c0-.8.67-1.46,1.49-1.46h3.99c.82,0,1.49.65,1.49,1.46v3.34c0,.8-.67,1.46-1.49,1.46Zm-3.99-5.57c-.43,0-.79.35-.79.77v3.34c0,.42.35.77.79.77h3.99c.43,0,.79-.35.79-.77v-3.34c0-.42-.35-.77-.79-.77h-3.99Z"/><ellipse class="cls-2" cx="319.09" cy="289.12" rx=".85" ry=".84"/><path class="cls-2" d="m303.98,287.88c-.24,0-.44-.19-.44-.43v-2.79c0-1.38,1.37-2.1,2.72-2.1h13.68c.24,0,.44.19.44.43s-.2.43-.44.43h-13.68c-.89,0-1.84.39-1.84,1.24v2.79c0,.24-.2.43-.44.43Z"/><path class="cls-2" d="m90.82,295.68h-14.82c-1.19,0-2.15-.94-2.15-2.1v-8.92c0-1.16.96-2.1,2.15-2.1h14.82c1.19,0,2.15.94,2.15,2.1v8.92c0,1.16-.96,2.1-2.15,2.1Zm-14.82-12.26c-.7,0-1.27.56-1.27,1.24v8.92c0,.68.57,1.24,1.27,1.24h14.82c.7,0,1.27-.56,1.27-1.24v-8.92c0-.68-.57-1.24-1.27-1.24h-14.82Z"/><path class="cls-2" d="m91.39,292.25h-3.99c-.82,0-1.49-.65-1.49-1.46v-3.34c0-.8.67-1.46,1.49-1.46h3.99c.82,0,1.49.65,1.49,1.46v3.34c0,.8-.67,1.46-1.49,1.46Zm-3.99-5.57c-.43,0-.79.35-.79.77v3.34c0,.42.35.77.79.77h3.99c.43,0,.79-.35.79-.77v-3.34c0-.42-.35-.77-.79-.77h-3.99Z"/><ellipse class="cls-2" cx="89.4" cy="289.12" rx=".85" ry=".84"/><path class="cls-2" d="m74.29,287.88c-.24,0-.44-.19-.44-.43v-2.79c0-1.38,1.37-2.1,2.72-2.1h13.68c.24,0,.44.19.44.43s-.2.43-.44.43h-13.68c-.89,0-1.84.39-1.84,1.24v2.79c0,.24-.2.43-.44.43Z"/><path class="cls-2" d="m371.52,288.71c-2.44,0-4.43-1.94-4.43-4.33s1.99-4.33,4.43-4.33,4.43,1.94,4.43,4.33-1.99,4.33-4.43,4.33Zm0-7.8c-1.96,0-3.55,1.56-3.55,3.47s1.59,3.47,3.55,3.47,3.55-1.56,3.55-3.47-1.59-3.47-3.55-3.47Z"/><path class="cls-2" d="m378.93,298.19c-.24,0-.44-.19-.44-.43,0-2.46-3.51-3.75-6.97-3.75s-6.97,1.29-6.97,3.75c0,.24-.2.43-.44.43s-.44-.19-.44-.43c0-3.17,4.07-4.61,7.85-4.61s7.85,1.44,7.85,4.61c0,.24-.2.43-.44.43Z"/><path class="cls-2" d="m149.25,297.08h-12.54c-1.35,0-2.72-.72-2.72-2.1v-11.15c0-1.34,1.35-2.66,2.72-2.66h5.13c.14,0,.27.06.35.17l1.58,2.06h5.48c1.35,0,2.72.72,2.72,2.1v9.48c0,1.38-1.37,2.1-2.72,2.1Zm-12.54-15.05c-.89,0-1.84.92-1.84,1.8v11.15c0,.85.95,1.24,1.84,1.24h12.54c.89,0,1.84-.39,1.84-1.24v-9.48c0-.85-.95-1.24-1.84-1.24h-5.7c-.14,0-.27-.06-.35-.17l-1.58-2.06h-4.91Z"/><path class="cls-2" d="m147.54,290.3h-9.12c-.19,0-.35-.15-.35-.34s.16-.34.35-.34h9.12c.19,0,.35.15.35.34s-.16.34-.35.34Z"/><path class="cls-2" d="m147.54,293.09h-9.12c-.19,0-.35-.15-.35-.34s.16-.34.35-.34h9.12c.19,0,.35.15.35.34s-.16.34-.35.34Z"/><path class="cls-2" d="m30.12,297.08h-12.54c-1.35,0-2.72-.72-2.72-2.1v-11.15c0-1.34,1.35-2.66,2.72-2.66h5.13c.14,0,.27.06.35.17l1.58,2.06h5.48c1.35,0,2.72.72,2.72,2.1v9.48c0,1.38-1.37,2.1-2.72,2.1Zm-12.54-15.05c-.89,0-1.84.92-1.84,1.8v11.15c0,.85.95,1.24,1.84,1.24h12.54c.89,0,1.84-.39,1.84-1.24v-9.48c0-.85-.95-1.24-1.84-1.24h-5.7c-.14,0-.27-.06-.35-.17l-1.58-2.06h-4.91Z"/><path class="cls-2" d="m28.41,290.3h-9.12c-.19,0-.35-.15-.35-.34s.16-.34.35-.34h9.12c.19,0,.35.15.35.34s-.16.34-.35.34Z"/><path class="cls-2" d="m28.41,293.09h-9.12c-.19,0-.35-.15-.35-.34s.16-.34.35-.34h9.12c.19,0,.35.15.35.34s-.16.34-.35.34Z"/><path class="cls-2" d="m251.79,297.42c-1.16,0-2.1-.92-2.1-2.06v-12.49c0-1.13.94-2.06,2.1-2.06s2.1.92,2.1,2.06v3.85c3.23-1.08,4.5-4.41,4.56-4.55.4-1.06,1.61-1.61,2.69-1.23,1.09.38,1.65,1.56,1.27,2.62-.09.26-2.35,6.26-8.52,7.42v4.38c0,1.13-.94,2.06-2.1,2.06Zm0-15.92c-.77,0-1.4.62-1.4,1.37v12.49c0,.76.63,1.37,1.4,1.37s1.4-.62,1.4-1.37v-4.96l.29-.05c5.98-.95,8.17-6.77,8.26-7.02.26-.71-.12-1.49-.85-1.75h0c-.72-.26-1.53.11-1.79.82-.06.17-1.58,4.11-5.48,5.11l-.44.11v-4.76c0-.76-.63-1.37-1.4-1.37Z"/><path class="cls-2" d="m260.43,297.42c-1.1,0-2.02-.84-2.1-1.92-.09-1.28-1.62-2.04-1.63-2.05-1.04-.48-1.5-1.7-1.01-2.73.49-1.03,1.75-1.47,2.8-.99,1.41.64,3.84,2.53,4.04,5.5.04.55-.15,1.08-.52,1.49-.37.41-.88.66-1.44.7-.05,0-.09,0-.14,0Zm-2.83-7.2c-.53,0-1.03.29-1.27.79-.33.68-.02,1.5.68,1.82.02,0,1.91.93,2.03,2.62.05.72.66,1.28,1.4,1.28h.09c.37-.03.72-.19.96-.47.25-.28.37-.63.34-.99-.18-2.66-2.37-4.35-3.64-4.93-.19-.09-.39-.13-.59-.13Z"/><path class="cls-2" d="m205.18,384.79h-14.82c-1.19,0-2.15-.94-2.15-2.1v-8.92c0-1.16.96-2.1,2.15-2.1h14.82c1.19,0,2.15.94,2.15,2.1v8.92c0,1.16-.96,2.1-2.15,2.1Zm-14.82-12.26c-.7,0-1.27.56-1.27,1.24v8.92c0,.68.57,1.24,1.27,1.24h14.82c.7,0,1.27-.56,1.27-1.24v-8.92c0-.68-.57-1.24-1.27-1.24h-14.82Z"/><path class="cls-2" d="m205.75,381.36h-3.99c-.82,0-1.49-.65-1.49-1.46v-3.34c0-.8.67-1.46,1.49-1.46h3.99c.82,0,1.49.65,1.49,1.46v3.34c0,.8-.67,1.46-1.49,1.46Zm-3.99-5.57c-.43,0-.79.35-.79.77v3.34c0,.42.35.77.79.77h3.99c.43,0,.79-.35.79-.77v-3.34c0-.42-.35-.77-.79-.77h-3.99Z"/><ellipse class="cls-2" cx="203.75" cy="378.23" rx=".85" ry=".84"/><path class="cls-2" d="m188.65,376.99c-.24,0-.44-.19-.44-.43v-2.79c0-1.38,1.37-2.1,2.72-2.1h13.68c.24,0,.44.19.44.43s-.2.43-.44.43h-13.68c-.89,0-1.84.39-1.84,1.24v2.79c0,.24-.2.43-.44.43Z"/><path class="cls-2" d="m320.93,386.18h-12.54c-1.35,0-2.72-.72-2.72-2.1v-11.15c0-1.34,1.35-2.66,2.72-2.66h5.13c.14,0,.27.06.35.17l1.58,2.06h5.48c1.35,0,2.72.72,2.72,2.1v9.48c0,1.38-1.37,2.1-2.72,2.1Zm-12.54-15.05c-.89,0-1.84.92-1.84,1.8v11.15c0,.85.95,1.24,1.84,1.24h12.54c.89,0,1.84-.39,1.84-1.24v-9.48c0-.85-.95-1.24-1.84-1.24h-5.7c-.14,0-.27-.06-.35-.17l-1.58-2.06h-4.91Z"/><path class="cls-2" d="m319.22,379.41h-9.12c-.19,0-.35-.15-.35-.34s.16-.34.35-.34h9.12c.19,0,.35.15.35.34s-.16.34-.35.34Z"/><path class="cls-2" d="m319.22,382.2h-9.12c-.19,0-.35-.15-.35-.34s.16-.34.35-.34h9.12c.19,0,.35.15.35.34s-.16.34-.35.34Z"/><path class="cls-2" d="m82.01,377.82c-2.44,0-4.43-1.94-4.43-4.33s1.99-4.33,4.43-4.33,4.43,1.94,4.43,4.33-1.99,4.33-4.43,4.33Zm0-7.8c-1.96,0-3.55,1.56-3.55,3.47s1.59,3.47,3.55,3.47,3.55-1.56,3.55-3.47-1.59-3.47-3.55-3.47Z"/><path class="cls-2" d="m89.42,387.3c-.24,0-.44-.19-.44-.43,0-2.46-3.51-3.75-6.97-3.75s-6.97,1.29-6.97,3.75c0,.24-.2.43-.44.43s-.44-.19-.44-.43c0-3.17,4.07-4.61,7.85-4.61s7.85,1.44,7.85,4.61c0,.24-.2.43-.44.43Z"/><path class="cls-2" d="m379.66,387.3h-13.68c-1.19,0-2.15-.94-2.15-2.1v-12.26c0-1.16.96-2.1,2.15-2.1h13.68c1.19,0,2.15.94,2.15,2.1v12.26c0,1.16-.96,2.1-2.15,2.1Zm-13.68-15.61c-.7,0-1.27.56-1.27,1.24v12.26c0,.68.57,1.24,1.27,1.24h13.68c.7,0,1.27-.56,1.27-1.24v-12.26c0-.68-.57-1.24-1.27-1.24h-13.68Z"/><rect class="cls-2" x="364.27" y="375.85" width="17.1" height=".86"/><path class="cls-2" d="m369.4,373.36c-.24,0-.44-.19-.44-.43v-3.34c0-.24.2-.43.44-.43s.44.19.44.43v3.34c0,.24-.2.43-.44.43Z"/><path class="cls-2" d="m376.24,373.36c-.24,0-.44-.19-.44-.43v-3.34c0-.24.2-.43.44-.43s.44.19.44.43v3.34c0,.24-.2.43-.44.43Z"/><ellipse class="cls-2" cx="368.26" cy="380.18" rx=".85" ry=".84"/><ellipse class="cls-2" cx="372.82" cy="380.18" rx=".85" ry=".84"/><ellipse class="cls-2" cx="377.38" cy="380.18" rx=".85" ry=".84"/><ellipse class="cls-2" cx="368.26" cy="384.08" rx=".85" ry=".84"/><ellipse class="cls-2" cx="372.82" cy="384.08" rx=".85" ry=".84"/><path class="cls-2" d="m145.87,387.3h-13.68c-1.19,0-2.15-.94-2.15-2.1v-12.26c0-1.16.96-2.1,2.15-2.1h13.68c1.19,0,2.15.94,2.15,2.1v12.26c0,1.16-.96,2.1-2.15,2.1Zm-13.68-15.61c-.7,0-1.27.56-1.27,1.24v12.26c0,.68.57,1.24,1.27,1.24h13.68c.7,0,1.27-.56,1.27-1.24v-12.26c0-.68-.57-1.24-1.27-1.24h-13.68Z"/><rect class="cls-2" x="130.49" y="375.85" width="17.1" height=".86"/><path class="cls-2" d="m135.61,373.36c-.24,0-.44-.19-.44-.43v-3.34c0-.24.2-.43.44-.43s.44.19.44.43v3.34c0,.24-.2.43-.44.43Z"/><path class="cls-2" d="m142.45,373.36c-.24,0-.44-.19-.44-.43v-3.34c0-.24.2-.43.44-.43s.44.19.44.43v3.34c0,.24-.2.43-.44.43Z"/><ellipse class="cls-2" cx="134.48" cy="380.18" rx=".85" ry=".84"/><ellipse class="cls-2" cx="139.03" cy="380.18" rx=".85" ry=".84"/><ellipse class="cls-2" cx="143.59" cy="380.18" rx=".85" ry=".84"/><ellipse class="cls-2" cx="134.48" cy="384.08" rx=".85" ry=".84"/><ellipse class="cls-2" cx="139.03" cy="384.08" rx=".85" ry=".84"/><path class="cls-2" d="m31.83,384.79h-14.82c-1.19,0-2.15-.94-2.15-2.1v-8.92c0-1.16.96-2.1,2.15-2.1h14.82c1.19,0,2.15.94,2.15,2.1v8.92c0,1.16-.96,2.1-2.15,2.1Zm-14.82-12.26c-.7,0-1.27.56-1.27,1.24v8.92c0,.68.57,1.24,1.27,1.24h14.82c.7,0,1.27-.56,1.27-1.24v-8.92c0-.68-.57-1.24-1.27-1.24h-14.82Z"/><path class="cls-2" d="m32.4,381.36h-3.99c-.82,0-1.49-.65-1.49-1.46v-3.34c0-.8.67-1.46,1.49-1.46h3.99c.82,0,1.49.65,1.49,1.46v3.34c0,.8-.67,1.46-1.49,1.46Zm-3.99-5.57c-.43,0-.79.35-.79.77v3.34c0,.42.35.77.79.77h3.99c.43,0,.79-.35.79-.77v-3.34c0-.42-.35-.77-.79-.77h-3.99Z"/><ellipse class="cls-2" cx="30.41" cy="378.23" rx=".85" ry=".84"/><path class="cls-2" d="m15.3,376.99c-.24,0-.44-.19-.44-.43v-2.79c0-1.38,1.37-2.1,2.72-2.1h13.68c.24,0,.44.19.44.43s-.2.43-.44.43h-13.68c-.89,0-1.84.39-1.84,1.24v2.79c0,.24-.2.43-.44.43Z"/><path class="cls-2" d="m257.57,377.82c-2.44,0-4.43-1.94-4.43-4.33s1.99-4.33,4.43-4.33,4.43,1.94,4.43,4.33-1.99,4.33-4.43,4.33Zm0-7.8c-1.96,0-3.55,1.56-3.55,3.47s1.59,3.47,3.55,3.47,3.55-1.56,3.55-3.47-1.59-3.47-3.55-3.47Z"/><path class="cls-2" d="m264.98,387.3c-.24,0-.44-.19-.44-.43,0-2.46-3.51-3.75-6.97-3.75s-6.97,1.29-6.97,3.75c0,.24-.2.43-.44.43s-.44-.19-.44-.43c0-3.17,4.07-4.61,7.85-4.61s7.85,1.44,7.85,4.61c0,.24-.2.43-.44.43Z"/><path class="cls-2" d="m203.53,342.75h-13.68c-1.19,0-2.15-.94-2.15-2.1v-12.26c0-1.16.96-2.1,2.15-2.1h13.68c1.19,0,2.15.94,2.15,2.1v12.26c0,1.16-.96,2.1-2.15,2.1Zm-13.68-15.61c-.7,0-1.27.56-1.27,1.24v12.26c0,.68.57,1.24,1.27,1.24h13.68c.7,0,1.27-.56,1.27-1.24v-12.26c0-.68-.57-1.24-1.27-1.24h-13.68Z"/><rect class="cls-2" x="188.14" y="331.29" width="17.1" height=".86"/><path class="cls-2" d="m193.27,328.81c-.24,0-.44-.19-.44-.43v-3.34c0-.24.2-.43.44-.43s.44.19.44.43v3.34c0,.24-.2.43-.44.43Z"/><path class="cls-2" d="m200.11,328.81c-.24,0-.44-.19-.44-.43v-3.34c0-.24.2-.43.44-.43s.44.19.44.43v3.34c0,.24-.2.43-.44.43Z"/><ellipse class="cls-2" cx="192.13" cy="335.63" rx=".85" ry=".84"/><ellipse class="cls-2" cx="196.69" cy="335.63" rx=".85" ry=".84"/><ellipse class="cls-2" cx="201.25" cy="335.63" rx=".85" ry=".84"/><ellipse class="cls-2" cx="192.13" cy="339.53" rx=".85" ry=".84"/><ellipse class="cls-2" cx="196.69" cy="339.53" rx=".85" ry=".84"/><path class="cls-2" d="m315.34,333.27c-2.44,0-4.43-1.94-4.43-4.33s1.99-4.33,4.43-4.33,4.43,1.94,4.43,4.33-1.99,4.33-4.43,4.33Zm0-7.8c-1.96,0-3.55,1.56-3.55,3.47s1.59,3.47,3.55,3.47,3.55-1.56,3.55-3.47-1.59-3.47-3.55-3.47Z"/><path class="cls-2" d="m322.75,342.75c-.24,0-.44-.19-.44-.43,0-2.46-3.51-3.75-6.97-3.75s-6.97,1.29-6.97,3.75c0,.24-.2.43-.44.43s-.44-.19-.44-.43c0-3.17,4.07-4.61,7.85-4.61s7.85,1.44,7.85,4.61c0,.24-.2.43-.44.43Z"/><path class="cls-2" d="m89.45,341.63h-12.54c-1.35,0-2.72-.72-2.72-2.1v-11.15c0-1.34,1.35-2.66,2.72-2.66h5.13c.14,0,.27.06.35.17l1.58,2.06h5.48c1.35,0,2.72.72,2.72,2.1v9.48c0,1.38-1.37,2.1-2.72,2.1Zm-12.54-15.05c-.89,0-1.84.92-1.84,1.8v11.15c0,.85.95,1.24,1.84,1.24h12.54c.89,0,1.84-.39,1.84-1.24v-9.48c0-.85-.95-1.24-1.84-1.24h-5.7c-.14,0-.27-.06-.35-.17l-1.58-2.06h-4.91Z"/><path class="cls-2" d="m87.74,334.85h-9.12c-.19,0-.35-.15-.35-.34s.16-.34.35-.34h9.12c.19,0,.35.15.35.34s-.16.34-.35.34Z"/><path class="cls-2" d="m87.74,337.64h-9.12c-.19,0-.35-.15-.35-.34s.16-.34.35-.34h9.12c.19,0,.35.15.35.34s-.16.34-.35.34Z"/><path class="cls-2" d="m263.99,340.24h-14.82c-1.19,0-2.15-.94-2.15-2.1v-8.92c0-1.16.96-2.1,2.15-2.1h14.82c1.19,0,2.15.94,2.15,2.1v8.92c0,1.16-.96,2.1-2.15,2.1Zm-14.82-12.26c-.7,0-1.27.56-1.27,1.24v8.92c0,.68.57,1.24,1.27,1.24h14.82c.7,0,1.27-.56,1.27-1.24v-8.92c0-.68-.57-1.24-1.27-1.24h-14.82Z"/><path class="cls-2" d="m264.56,336.81h-3.99c-.82,0-1.49-.65-1.49-1.46v-3.34c0-.8.67-1.46,1.49-1.46h3.99c.82,0,1.49.65,1.49,1.46v3.34c0,.8-.67,1.46-1.49,1.46Zm-3.99-5.57c-.43,0-.79.35-.79.77v3.34c0,.42.35.77.79.77h3.99c.43,0,.79-.35.79-.77v-3.34c0-.42-.35-.77-.79-.77h-3.99Z"/><ellipse class="cls-2" cx="262.57" cy="333.67" rx=".85" ry=".84"/><path class="cls-2" d="m247.46,332.43c-.24,0-.44-.19-.44-.43v-2.79c0-1.38,1.37-2.1,2.72-2.1h13.68c.24,0,.44.19.44.43s-.2.43-.44.43h-13.68c-.89,0-1.84.39-1.84,1.24v2.79c0,.24-.2.43-.44.43Z"/><path class="cls-2" d="m30.69,342.75h-13.68c-1.19,0-2.15-.94-2.15-2.1v-12.26c0-1.16.96-2.1,2.15-2.1h13.68c1.19,0,2.15.94,2.15,2.1v12.26c0,1.16-.96,2.1-2.15,2.1Zm-13.68-15.61c-.7,0-1.27.56-1.27,1.24v12.26c0,.68.57,1.24,1.27,1.24h13.68c.7,0,1.27-.56,1.27-1.24v-12.26c0-.68-.57-1.24-1.27-1.24h-13.68Z"/><rect class="cls-2" x="15.3" y="331.29" width="17.1" height=".86"/><path class="cls-2" d="m20.43,328.81c-.24,0-.44-.19-.44-.43v-3.34c0-.24.2-.43.44-.43s.44.19.44.43v3.34c0,.24-.2.43-.44.43Z"/><path class="cls-2" d="m27.27,328.81c-.24,0-.44-.19-.44-.43v-3.34c0-.24.2-.43.44-.43s.44.19.44.43v3.34c0,.24-.2.43-.44.43Z"/><ellipse class="cls-2" cx="19.29" cy="335.63" rx=".85" ry=".84"/><ellipse class="cls-2" cx="23.85" cy="335.63" rx=".85" ry=".84"/><ellipse class="cls-2" cx="28.41" cy="335.63" rx=".85" ry=".84"/><ellipse class="cls-2" cx="19.29" cy="339.53" rx=".85" ry=".84"/><ellipse class="cls-2" cx="23.85" cy="339.53" rx=".85" ry=".84"/><path class="cls-2" d="m366.64,341.98c-1.16,0-2.1-.92-2.1-2.06v-12.49c0-1.13.94-2.06,2.1-2.06s2.1.92,2.1,2.06v3.85c3.23-1.08,4.5-4.41,4.56-4.55.4-1.06,1.61-1.61,2.69-1.23,1.09.38,1.65,1.56,1.27,2.62-.09.26-2.35,6.26-8.52,7.42v4.38c0,1.13-.94,2.06-2.1,2.06Zm0-15.92c-.77,0-1.4.62-1.4,1.37v12.49c0,.76.63,1.37,1.4,1.37s1.4-.62,1.4-1.37v-4.96l.29-.05c5.98-.95,8.17-6.77,8.26-7.02.26-.71-.12-1.49-.85-1.75h0c-.72-.26-1.53.11-1.79.82-.06.17-1.58,4.11-5.48,5.11l-.44.11v-4.76c0-.76-.63-1.37-1.4-1.37Z"/><path class="cls-2" d="m375.27,341.98c-1.1,0-2.02-.84-2.1-1.92-.09-1.28-1.62-2.04-1.63-2.05-1.04-.48-1.5-1.7-1.01-2.73.49-1.03,1.75-1.47,2.8-.99,1.41.64,3.84,2.53,4.04,5.5.04.55-.15,1.08-.52,1.49-.37.41-.88.66-1.44.7-.05,0-.09,0-.14,0Zm-2.83-7.2c-.53,0-1.03.29-1.27.79-.33.68-.02,1.5.68,1.82.02,0,1.91.93,2.03,2.62.05.72.66,1.28,1.4,1.28h.09c.37-.03.72-.19.96-.47.25-.28.37-.63.34-.99-.18-2.66-2.37-4.35-3.64-4.93-.19-.09-.39-.13-.59-.13Z"/><path class="cls-2" d="m135.61,341.98c-1.16,0-2.1-.92-2.1-2.06v-12.49c0-1.13.94-2.06,2.1-2.06s2.1.92,2.1,2.06v3.85c3.23-1.08,4.5-4.41,4.56-4.55.4-1.06,1.61-1.61,2.69-1.23,1.09.38,1.65,1.56,1.27,2.62-.09.26-2.35,6.26-8.52,7.42v4.38c0,1.13-.94,2.06-2.1,2.06Zm0-15.92c-.77,0-1.4.62-1.4,1.37v12.49c0,.76.63,1.37,1.4,1.37s1.4-.62,1.4-1.37v-4.96l.29-.05c5.98-.95,8.17-6.77,8.26-7.02.26-.71-.12-1.49-.85-1.75h0c-.72-.26-1.53.11-1.79.82-.06.17-1.58,4.11-5.48,5.11l-.44.11v-4.76c0-.76-.63-1.37-1.4-1.37Z"/><path class="cls-2" d="m144.25,341.98c-1.1,0-2.02-.84-2.1-1.92-.09-1.28-1.62-2.04-1.63-2.05-1.04-.48-1.5-1.7-1.01-2.73.49-1.03,1.75-1.47,2.8-.99,1.41.64,3.84,2.53,4.04,5.5.04.55-.15,1.08-.52,1.49-.37.41-.88.66-1.44.7-.05,0-.09,0-.14,0Zm-2.83-7.2c-.53,0-1.03.29-1.27.79-.33.68-.02,1.5.68,1.82.02,0,1.91.93,2.03,2.62.05.72.66,1.28,1.4,1.28h.09c.37-.03.72-.19.96-.47.25-.28.37-.63.34-.99-.18-2.66-2.37-4.35-3.64-4.93-.19-.09-.39-.13-.59-.13Z"/></g></svg>