<?xml version="1.0" encoding="UTF-8"?><svg id="Layer_1" xmlns="http://www.w3.org/2000/svg" viewBox="0 0 945.18 599.65"><defs><style>.cls-1{stroke-dasharray:0 0 11.17 11.17;}.cls-1,.cls-2,.cls-3,.cls-4,.cls-5,.cls-6,.cls-7,.cls-8{stroke-linecap:round;stroke-linejoin:round;}.cls-1,.cls-2,.cls-3,.cls-4,.cls-5,.cls-6,.cls-8{fill:none;}.cls-1,.cls-2,.cls-3,.cls-4,.cls-5,.cls-7,.cls-8{stroke-width:6px;}.cls-1,.cls-4,.cls-5,.cls-8{stroke:#6766ae;}.cls-2,.cls-7{stroke:#292665;}.cls-3{stroke:#bcbec0;}.cls-4{stroke-dasharray:0 0 11.04 11.04;}.cls-5{stroke-dasharray:0 0 11.14 11.14;}.cls-6{stroke:#67c183;stroke-width:7px;}.cls-7,.cls-9{fill:#6766ae;}.cls-10{fill:#6068b0;}.cls-10,.cls-11,.cls-12,.cls-13,.cls-14,.cls-15,.cls-16,.cls-17,.cls-9,.cls-18{stroke-width:0px;}.cls-11{fill:#292665;}.cls-12{fill:#8983be;}.cls-13{fill:#3b3688;}.cls-14{fill:#433d94;}.cls-15{fill:#231f20;}.cls-16{fill:#14113f;}.cls-17{fill:#fff;}.cls-18{fill:#67c183;}</style></defs><path class="cls-8" d="m795.19,105.39c.31.22,1.79,1.45,4.13,3.63"/><path class="cls-5" d="m807.21,116.87c37.17,39.11,138.47,174.62-13.22,357.13"/><path class="cls-8" d="m790.41,478.25c-1.18,1.39-2.37,2.78-3.58,4.17"/><path class="cls-8" d="m230.3,518.28c-.75-.22-2.47-.96-5.02-2.22"/><path class="cls-4" d="m215.52,510.89c-58.74-32.68-261.82-169.79-142.07-348.56C192.48-15.37,396.96-.12,446.19,6.47"/><path class="cls-8" d="m451.66,7.25c3.53.54,5.42.92,5.42.92"/><ellipse class="cls-9" cx="518.35" cy="323.52" rx="47.9" ry="27.61"/><path class="cls-7" d="m640.44,314.45c2.66-7.18,17.9-27.5,17.9-27.5l12.71-4.24s-3.39-17.98,19.48-31.86c0,0-4.24-44.09,13.55-48.47,17.79-4.38,14.4,40.15,14.4,40.15,0,0,14.4-33.22,29.65-28.29s-2.54,40.75-7.62,44.02,11.01,1.58,8.47,13.43c0,0,5.93,18.64-2.54,28.8s-23.72,13.5-26.26,13.95-7.62,24.17-24.56,30.94-55.17-30.94-55.17-30.94Z"/><path class="cls-7" d="m344.8,285.25l-37.14-13.55s-30.49,5.08-42.35,33.88c0,0-34.73,2.54-33.04,18.64,0,0,7.62,5.08,11.01,4.24s-19.6,5.93-11.07,16.09,17,0,17,0c0,0-15.25,21.8-3.39,26.57s25.41-10.48,25.41-10.48c0,0,1.3,24.5,15.9,11.4s11.21-27.5,11.21-27.5l27.11-3.81s30.49-19.96,30.49-26.29-11.14-29.2-11.14-29.2Z"/><path class="cls-7" d="m366.07,404.68l-21.27,3.39s-3.52,23.72,0,33.04l-15.97-6.78s-14.4-2.54-19.48,6.78-33.88,63.53-16.94,74.54,34.19-5.93,34.19-5.93c0,0,25.95,21.18,47.98,16.94,22.02-4.24,20.26-.85,32.58-7.62,0,0,34.04,37.27,55.79,74.54,0,0,10.74,12.71,59.87-13.55s23.72-58.45,23.72-58.45c0,0-22.87-6.78-33.88-4.24l-4.24-16.68s20.35-3.65,43.21-32.45-185.56-63.53-185.56-63.53Z"/><path class="cls-16" d="m404.22,267.19s-55.06-8.2-96.56,4.5c0,0,30.49,40.67,17.79,69.04l40.62,6.35s-36.39,35.58-16.06,72.85,133.07,55.91,133.07,55.91c0,0,30.71,7.62,75.88-8.47s43.48-88.09,43.48-88.09c0,0,53.36,4.24,93.18-33.88,0,0-46.59-1.69-37.27-58.45,0,0-52.04,20.33-85.32,18.64,0,0-26.5,9.32-25.65,13.55s3.25,23.72-12.78,26.26-48.21-11.91-37.2-30.94l-93.18-47.25Z"/><path class="cls-8" d="m591.11,328.45s13.11,27.59,11.32,50.82"/><path class="cls-8" d="m349.67,371.12c6.27,5.62,20.6,25.11,57.48,4.78s15.34-64.38,15.34-64.38"/><path class="cls-2" d="m495.33,482.43c.75.38,10.66,8.69,13.08,18.24"/><path class="cls-2" d="m494.01,527.23s10.19-9.38,18.64-9.88"/><path class="cls-2" d="m526.58,539.08c.94-7.15-4.51-19.29-8.09-20.71"/><path class="cls-2" d="m538.62,539.08s4.14-9.69,0-16.8"/><ellipse class="cls-13" cx="505.31" cy="566.52" rx="48.05" ry="15.93" transform="translate(-206.03 301.42) rotate(-27.83)"/><path class="cls-2" d="m324.04,493.91c0,.85-2.49,4.52,2.56,15.81"/><path class="cls-2" d="m312.46,506.05c-1.41,1.98-3.27,8.64-14.62,12.23"/><path class="cls-2" d="m307.66,491.93s-2.06,10.74-20.51,11.58"/><path class="cls-2" d="m407.99,515.56s-58.23-34.45-63.19-74.45"/><path class="cls-8" d="m381.26,355.18s0-5.72-15.19-8.09"/><path class="cls-2" d="m703.14,295.92s10.92-11.33-3.01-21.77c0,0,9.04,5.74,16.94-3.29,7.91-9.04.38-13.55-10.16-16.19-10.54-2.64-16.38-3.82-16.38-3.82"/><path class="cls-2" d="m740.17,306.19s-19.71-6.26-13.31-15.71c0,0-18.65-5.89-6.5-16.33,12.15-10.44,20.15-15.88,20.15-15.88"/><path class="cls-2" d="m748.98,271.7s-5.18,13.93-22.12,18.78"/><path class="cls-9" d="m375.31,160.14s-16.6,35.89-6.1,58.19c0,0-38.26,54.05,8.76,85.98,47.02,31.93,103.3,41.46,159.94,28.72s97.79-47.25,103.53-83.18c5.74-35.93-11.1-55.81-19.82-56.65,0,0,.91-45.52-29.25-68.72,0,0,47.96-42.97,3.4-88.86,0,0-52.88-32.51-84.13,39.46,0,0-42.35-1.08-58.49,11.54,0,0-42.99-60.93-89.13-25.89-46.14,35.04-5.88,93.68,11.3,99.41Z"/><path class="cls-11" d="m469.62,339.77c-5.27-.51-10.5-1.23-15.7-2.15-27.71-4.9-53.68-15.48-77.18-31.45-13.32-9.05-21.27-20.7-23.64-34.64-4.17-24.5,10.1-48.06,13.61-53.41-8.48-20.04,2.32-48.74,5.71-56.8-10.99-5.59-27.73-26.73-31.31-50.64-2.16-14.47-.17-35.2,21.62-51.74,12.1-9.19,25.11-12.8,38.63-10.75,26.6,4.05,47.03,28.53,52.27,35.38,15.89-10.49,49.12-10.81,56.62-10.74,10.56-23.67,24.62-38.54,41.81-44.22,23.5-7.76,43.98,4.57,44.84,5.1l.23.14.19.19c13.61,14.02,20.19,29.22,19.54,45.19-.91,22.49-15.77,39.58-21.16,45.07,25.68,21.5,27.93,58.35,28.09,67.08,3.51,1.09,7.37,4.17,10.67,8.58,4.25,5.67,13.65,21.91,9.12,50.23-2.9,18.12-14.79,36.48-33.49,51.69-19.11,15.55-43.92,27.07-71.75,33.33-23.2,5.22-46.25,6.74-68.72,4.56ZM398.24,52.31c-11.48-1.12-22.55,2.31-32.95,10.21-20.02,15.2-21.86,34.19-19.88,47.44,3.7,24.72,21.91,45.17,30.59,48.06l2.32.77-1.05,2.28c-.16.35-16.03,35.19-6.11,56.27l.56,1.2-.77,1.09c-.18.25-17.91,25.72-13.57,51.12,2.17,12.69,9.5,23.36,21.79,31.71,23.01,15.63,48.42,25.98,75.54,30.78,26.82,4.75,54.65,3.95,82.74-2.37,54.25-12.2,96.12-45.64,101.83-81.33,4.25-26.6-4.38-41.6-8.29-46.81-3.79-5.05-7.45-7.08-9.61-7.29l-1.98-.19.04-2.04c0-.44.51-44.68-28.4-66.91l-2.13-1.64,2.03-1.82c.21-.19,20.57-18.77,21.57-43.74.58-14.6-5.51-28.61-18.1-41.65-2.19-1.25-20.74-11.3-41.12-4.55-16.25,5.39-29.6,19.89-39.68,43.1l-.6,1.38-1.47-.04c-.42-.01-41.77-.91-57.1,11.08l-1.78,1.39-1.3-1.84c-.22-.31-22.21-31.01-50.73-35.34-.8-.12-1.61-.22-2.41-.3Z"/><path class="cls-12" d="m402.73,226.8s-10.76,29.09,19.9,34.25c30.65,5.16,34.46-10.09,34.46-10.09,0,0-.34-25.81-26.01-27.22s-24.22-1.26-28.34,3.05Z"/><ellipse class="cls-15" cx="573.03" cy="190.24" rx="19.03" ry="24.08" transform="translate(-9.72 32.26) rotate(-3.2)"/><ellipse class="cls-17" cx="576.14" cy="182.54" rx="8.01" ry="7.44" transform="translate(-18.2 72.89) rotate(-7.13)"/><path class="cls-15" d="m442.12,214.04c-.61-.17-1.2-.45-1.74-.85-2.53-1.84-3.12-5.45-1.32-8.07,1.12-1.63,11.36-15.87,24.8-14.51,10.71,1.08,18.48,5.27,23.08,12.45,1.71,2.67.98,6.27-1.63,8.05-2.61,1.78-6.12,1.06-7.83-1.61-1.72-2.68-5.12-6.36-14.82-7.33-5.87-.59-12.54,6.94-14.41,9.63-1.43,2.05-3.92,2.88-6.14,2.25Z"/><path class="cls-14" d="m538.96,85.03s12.7-43.36,38.55-33.25c25.85,10.11,7.59,52.43,4.01,53.6l-42.55-20.35Z"/><path class="cls-11" d="m578.5,112.96c-1.34-.13-2.6-.9-3.32-2.18-9.62-17.16-36.61-21.2-36.88-21.24-2.37-.34-4.01-2.59-3.65-5.03.36-2.44,2.57-4.14,4.95-3.81,1.28.18,31.42,4.64,43.15,25.56,1.19,2.12.46,4.86-1.63,6.11-.83.49-1.74.68-2.62.6Z"/><path class="cls-14" d="m389.64,136.64s-36.51-24.89-18.66-49c17.85-24.11,51.57,6.28,51.51,10.31l-32.85,38.69Z"/><path class="cls-11" d="m428.6,103.12c-.56,1.36-1.68,2.46-3.12,2.86-19.19,5.35-31.72,32.29-31.84,32.56-1.09,2.37-3.73,3.46-5.89,2.43-2.17-1.03-3.05-3.78-1.97-6.17.58-1.28,14.52-31.38,37.92-37.9,2.38-.66,4.7.83,5.19,3.34.19.99.07,1.99-.29,2.88Z"/><ellipse class="cls-12" cx="614.08" cy="217.34" rx="22.59" ry="17.49" transform="translate(-36.8 243.59) rotate(-21.8)"/><path class="cls-15" d="m585.97,238.11l-.11.02c-.34-1.14-2.38-1.77-4.7-1.41-2.41.38-4.18,1.67-3.96,2.89.02.1.07.19.11.28-.09,1.73-1.55,9.36-19.93,16.15-4.42,1.63-7.76,1.69-9.94.19-3.69-2.56-4.83-9.18-5.03-14.65,10.86-4.06,17.81-12.47,16.31-20.92-1.83-10.3-15.55-16.75-30.64-14.4-15.09,2.35-25.83,12.61-23.99,22.91,1.52,8.53,11.18,14.41,23.01,14.85-.06,7.77-.7,13.88-1.52,16.1-24.49,5.74-32.07,1.07-34.42-2.24-1.31-1.86-4.03-2.38-6.08-1.16-2.04,1.22-2.63,3.71-1.32,5.56,3.14,4.43,8.28,7.14,15.37,8.14,14.72,19.37,23.12,28.17,42.87,24.77,11.09-1.91,25.92-13.11,27.83-28.69.35-2.9-.12-5-1.16-6.49,19.13-9.59,17.57-20.55,17.29-21.91Z"/><path class="cls-17" d="m521.94,270.22c-.09-1.56.87-3,2.36-3.41,1.76-.49,4.12-1.02,5.75-.86,2.92.28,7.16,2.64,7.16,2.64,0,0,2.79,1.52,4.9.34s5.42-5.9,9.2-5.57c2.15.18,3.42,1.36,4.11,2.34.5.72.68,1.62.5,2.49-.84,4.11-4.35,18.06-13.3,18.4-9.89.38-19.87-2.96-20.67-16.36Z"/><path class="cls-10" d="m490.17,395.17h75.37v35.51c0,8.17-6.64,14.81-14.81,14.81h-45.75c-8.17,0-14.81-6.64-14.81-14.81v-35.51h0Z" transform="translate(-22.62 30.1) rotate(-3.2)"/><rect class="cls-18" x="500.47" y="362.95" width="7.24" height="19.95" rx="2.59" ry="2.59" transform="translate(-20.02 28.7) rotate(-3.2)"/><rect class="cls-18" x="544.65" y="360.49" width="7.24" height="19.95" rx="2.59" ry="2.59" transform="translate(-19.81 31.16) rotate(-3.2)"/><path class="cls-18" d="m555.85,370.81l.46,8.24c.21,3.73-2.65,6.92-6.37,7.13l-2.3.13c-3.73.21-6.92-2.65-7.13-6.37l-.46-8.29-28.17,1.57.46,8.29c.21,3.73-2.65,6.92-6.37,7.13l-3.02.17c-3.73.21-6.92-2.65-7.13-6.37l-.46-8.28c-9.96.79-17.53,9.39-16.97,19.42l2.47,44.23c.57,10.18,9.28,17.97,19.46,17.4l58.8-3.28c10.18-.57,17.97-9.28,17.4-19.46l-2.47-44.23c-.54-9.75-8.56-17.3-18.19-17.42Zm10.38,60.93c.36,6.41-4.55,11.9-10.96,12.26l-52.03,2.91c-6.41.36-11.9-4.55-12.26-10.96l-2.16-38.63,75.25-4.2,2.16,38.63Z"/><path class="cls-18" d="m539.11,400.63c-2.09-.63-4.3.56-4.93,2.65-.13.43-2.93,9.31-11.19,11.96l-.56-9.96c-.12-2.19-1.99-3.86-4.18-3.74s-3.86,1.99-3.74,4.18l1.61,28.83c.12,2.19,1.99,3.86,4.18,3.74s3.86-1.99,3.74-4.18l-.6-10.78c13.82-3.05,18.14-17.14,18.34-17.8.62-2.09-.58-4.28-2.67-4.91Z"/><path class="cls-17" d="m539.81,437.2c-2.07.12-3.89-1.39-4.15-3.47-.42-3.41-4.38-5.15-4.42-5.16-2.03-.82-3.02-3.12-2.2-5.15.82-2.03,3.12-3.01,5.15-2.2,3.09,1.24,8.54,5.08,9.34,11.55.27,2.17-1.28,4.15-3.45,4.42-.09.01-.18.02-.27.02Z"/><circle class="cls-18" cx="154.96" cy="117.06" r="61.99"/><path class="cls-17" d="m187.19,127.08c0-5.39-6.67-9.84-15.33-10.55v-1.78c6.01-1.13,10.56-6.4,10.56-12.74,0-7.17-5.81-12.97-12.97-12.97s-12.97,5.81-12.97,12.97c0,6.34,4.55,11.61,10.56,12.74v1.77c-4.98.41-9.3,2.06-12.07,4.41-2.77-2.35-7.09-4-12.07-4.41v-1.78c6.01-1.13,10.56-6.4,10.56-12.74,0-7.17-5.81-12.97-12.97-12.97s-12.97,5.81-12.97,12.97c0,6.34,4.55,11.61,10.56,12.74v1.77c-8.66.71-15.33,5.16-15.33,10.55,0,.09,0,.18.01.27h-.01v17.72h64.46v-17.72h-.01c0-.09.01-.18.01-.27Z"/><circle class="cls-18" cx="90.24" cy="408.62" r="52.03"/><path class="cls-17" d="m76.42,416.52c0-1.45-.11-3.22-.33-5.3-.22-2.08-.46-4.18-.71-6.29-.25-2.11-.38-3.99-.38-5.63,0-4.73.99-8.58,2.98-11.54,1.99-2.96,4.64-5.16,7.95-6.58,3.31-1.42,6.95-2.13,10.93-2.13,4.29,0,7.55.73,9.79,2.18,2.24,1.45,3.36,3.6,3.36,6.43,0,1.2-.28,2.4-.85,3.6-.57,1.2-1.2,2.05-1.89,2.55-1.07-.57-2.21-1.02-3.41-1.37-1.2-.35-2.65-.52-4.35-.52-2.71,0-4.84.6-6.39,1.8-1.55,1.2-2.32,3.25-2.32,6.15,0,1.58.11,3.44.33,5.58.22,2.15.43,4.23.61,6.25.19,2.02.28,3.69.28,5.01,0,1.64-.24,3.23-.71,4.78-.47,1.55-1.18,2.95-2.13,4.21h20.91c.38.63.74,1.5,1.09,2.6.35,1.1.52,2.29.52,3.55,0,2.27-.51,3.9-1.51,4.87-1.01.98-2.33,1.47-3.97,1.47h-31.32c-1.64,0-3.07-.66-4.31-1.99-1.23-1.33-1.84-3.15-1.84-5.49,0-.57.03-1.04.09-1.42,2.52-1.14,4.41-2.65,5.68-4.54,1.26-1.89,1.89-4.64,1.89-8.23Zm23.18-1.04h-25.17c-1.58,0-2.87-.49-3.88-1.47-1.01-.98-1.51-2.63-1.51-4.97,0-1.2.19-2.33.57-3.41.38-1.07.72-1.92,1.04-2.55h32.74c.31.63.66,1.48,1.04,2.55.38,1.07.57,2.21.57,3.41,0,2.33-.49,3.99-1.47,4.97-.98.98-2.29,1.47-3.93,1.47Z"/><ellipse class="cls-18" cx="733.06" cy="80.65" rx="52.46" ry="52.84"/><path class="cls-17" d="m748.4,53.7h-30.37c-3.26,0-5.92,2.7-5.92,6.01v41.58c0,3.31,2.66,6.01,5.92,6.01h27c3.04,0,9.29-5.51,9.29-8.92v-38.67c0-3.31-2.66-6.01-5.92-6.01Zm1.72,6.01v36.54h-4.3c-1.59,0-2.89,1.31-2.89,2.93v3.86h-24.9c-.95,0-1.72-.79-1.72-1.75v-41.58c0-.97.77-1.75,1.72-1.75h30.37c.95,0,1.72.79,1.72,1.75Z"/><path class="cls-17" d="m744.71,63.62h-23c-1.26,0-2.29,1.03-2.29,2.3s1.03,2.3,2.29,2.3h23c1.26,0,2.29-1.03,2.29-2.3s-1.03-2.3-2.29-2.3Z"/><path class="cls-17" d="m744.71,73.03h-23c-1.26,0-2.29,1.03-2.29,2.3s1.03,2.3,2.29,2.3h23c1.26,0,2.29-1.03,2.29-2.3s-1.03-2.3-2.29-2.3Z"/><path class="cls-17" d="m744.71,82.45h-23c-1.26,0-2.29,1.03-2.29,2.3s1.03,2.3,2.29,2.3h23c1.26,0,2.29-1.03,2.29-2.3s-1.03-2.3-2.29-2.3Z"/><path class="cls-17" d="m735.46,91.87h-13.75c-1.26,0-2.29,1.03-2.29,2.3s1.03,2.3,2.29,2.3h13.75c1.26,0,2.29-1.03,2.29-2.3s-1.03-2.3-2.29-2.3Z"/><circle class="cls-18" cx="827.27" cy="424.39" r="48.56"/><path class="cls-17" d="m852.33,405.11c-.97-.78-2.27-1.16-3.57-1.05-3.54.31-10.58-.34-17.92-8.15-.89-.94-2.19-1.48-3.58-1.48s-2.7.54-3.58,1.48c-7.33,7.81-14.36,8.46-17.92,8.15-1.29-.11-2.6.27-3.57,1.05-.98.79-1.54,1.91-1.54,3.08v18.61c0,8.9,16.56,21.6,23.69,26.65.86.61,1.89.91,2.92.91s2.06-.3,2.92-.91c21.38-15.16,23.69-23.69,23.69-26.65v-18.61c0-1.17-.56-2.29-1.54-3.08Zm-3.86,21.68c0,3.46-5.56,11.43-21.2,22.6-15.64-11.17-21.2-19.14-21.2-22.6v-17.92c4.69.22,12.97-.89,21.2-9.31,8.23,8.42,16.5,9.53,21.2,9.31v17.92Z"/><path class="cls-17" d="m839.25,414.36c-1.05-.8-2.56-.6-3.36.46l-10.71,14.1-6.78-6.55c-.95-.92-2.47-.89-3.39.06-.92.95-.89,2.47.06,3.39l8.73,8.43s.08.06.11.09c.04.03.06.07.1.1.03.02.06.04.09.06.05.03.1.07.15.1.08.04.15.08.23.12.05.02.1.05.15.07.09.03.18.06.27.08.04.01.09.02.13.03.14.02.28.04.42.04h0c.17,0,.34-.02.51-.06.05-.01.1-.03.15-.05.11-.03.22-.07.33-.12.06-.03.12-.06.18-.09.09-.05.18-.11.27-.17.06-.04.11-.09.17-.14.04-.04.09-.06.12-.1.04-.04.07-.09.1-.13.03-.03.06-.05.08-.09l12.34-16.25c.8-1.06.59-2.56-.46-3.36Z"/><circle class="cls-18" cx="733.51" cy="515.92" r="53.32"/><rect class="cls-17" x="747.93" y="486.78" width="16.33" height="58.27" rx="5.21" ry="5.21"/><rect class="cls-17" x="725.34" y="503.92" width="16.33" height="41.13" rx="5.21" ry="5.21"/><rect class="cls-17" x="702.76" y="519.57" width="16.33" height="25.49" rx="5.21" ry="5.21"/><circle class="cls-18" cx="893.11" cy="299.27" r="52.07"/><path class="cls-17" d="m907.53,278.09h-28.84c-9.5,0-17.2,7.09-17.2,15.84v6.76c0,8.59,7.42,15.57,16.68,15.83l-1.54,3.08c-.25.49.28,1.02.83.83l11.57-3.89h18.5c9.5,0,17.2-7.09,17.2-15.84v-6.76c0-8.75-7.7-15.84-17.2-15.84Z"/><circle class="cls-18" cx="877.63" cy="297.46" r="5.18"/><circle class="cls-18" cx="893.11" cy="297.46" r="5.18"/><circle class="cls-18" cx="908.59" cy="297.46" r="5.18"/><path class="cls-17" d="m283.57,107.16c-23.08,0-41.86-18.78-41.86-41.86s18.78-41.86,41.86-41.86,41.86,18.78,41.86,41.86-18.78,41.86-41.86,41.86Z"/><path class="cls-18" d="m283.57,31.94c18.39,0,33.36,14.96,33.36,33.36s-14.96,33.36-33.36,33.36-33.36-14.96-33.36-33.36,14.96-33.36,33.36-33.36m0-17c-27.81,0-50.36,22.55-50.36,50.36s22.55,50.36,50.36,50.36,50.36-22.55,50.36-50.36-22.55-50.36-50.36-50.36h0Z"/><path class="cls-18" d="m279.57,34.99c-2.55,0-4.62,2.07-4.62,4.62v29.88c0,2.55,2.07,4.62,4.62,4.62h22.5c2.55,0,4.62-2.07,4.62-4.62s-2.07-4.62-4.62-4.62h-17.88v-25.26c0-2.55-2.07-4.62-4.62-4.62h0Z"/><circle class="cls-18" cx="79.86" cy="252.27" r="62.13"/><rect class="cls-17" x="60.05" y="215.42" width="5.81" height="16" rx="2.08" ry="2.08"/><rect class="cls-17" x="95.53" y="215.42" width="5.81" height="16" rx="2.08" ry="2.08"/><path class="cls-17" d="m104.49,224.03v6.62c0,2.99-2.43,5.42-5.42,5.42h-1.85c-2.99,0-5.42-2.43-5.42-5.42v-6.66h-22.62v6.66c0,2.99-2.43,5.42-5.42,5.42h-2.43c-2.99,0-5.42-2.43-5.42-5.42v-6.65c-8.01.18-14.45,6.73-14.45,14.79v35.52c0,8.17,6.63,14.8,14.8,14.8h47.22c8.17,0,14.8-6.63,14.8-14.8v-35.52c0-7.83-6.08-14.24-13.78-14.76Zm10.81,46.41c0,8.66-7.02,15.68-15.68,15.68h-38.38c-8.66,0-15.68-7.02-15.68-15.68v-28.19h69.74v28.19Z"/><rect class="cls-17" x="53.08" y="248.7" width="13.95" height="13.95"/><rect class="cls-17" x="73.45" y="248.7" width="13.95" height="13.95"/><rect class="cls-17" x="93.04" y="248.7" width="13.95" height="13.95"/><rect class="cls-17" x="53.08" y="266.69" width="13.95" height="13.95"/><rect class="cls-17" x="73.45" y="266.69" width="13.95" height="13.95"/><rect class="cls-17" x="93.04" y="266.69" width="13.95" height="13.95"/><circle class="cls-18" cx="848.47" cy="148.48" r="53.28"/><path class="cls-17" d="m873.72,164.31c-5.17-1.82-5.09-7.28-5.09-7.28l-.32-12.29s1.88-6.82-3.52-14.55c-2.94-4.21-7.51-5.79-11.07-6.35.17-.64.27-1.32.27-2.02,0-3.62-2.47-6.56-5.53-6.56s-5.53,2.94-5.53,6.56c0,.71.1,1.38.27,2.02-3.56.57-8.13,2.15-11.07,6.35-5.4,7.73-3.52,14.55-3.52,14.55l-.32,12.29s.08,5.46-5.09,7.28c-5.17,1.82-1.17,7.96-1.17,7.96h52.86s3.99-6.14-1.17-7.96Z"/><path class="cls-17" d="m842.94,174.85v2.73c.94,4.78,5.53,4.09,5.53,4.09,0,0,4.59.68,5.53-4.09v-2.73h-11.06Z"/><path class="cls-8" d="m602.6,477.64s1.86-.57,5.22-1.73"/><path class="cls-1" d="m618.28,472.03c53.09-20.73,219.03-100.81,150.31-271.31"/><path class="cls-8" d="m766.46,195.55c-.71-1.67-1.45-3.35-2.2-5.04"/><path class="cls-3" d="m173.56,341.86l-5.36-6.41c-1.1-1.32-3.19-1.13-4.04.36l-3.64,6.36,4.35-7.6c.54-.94.06-2.13-.98-2.44l-7.7-2.27,7.1,2.09c1.35.4,2.71-.56,2.79-1.96l.48-8.05-.4,6.64c-.12,2.02,1.8,3.54,3.74,2.97l7.4-2.19-7.19,2.13c-1.98.59-2.71,3.01-1.38,4.59l4.84,5.78Z"/><path class="cls-3" d="m20.37,360.65l-5.36-6.41c-1.1-1.32-3.19-1.13-4.04.36l-3.64,6.36,4.35-7.6c.54-.94.06-2.13-.98-2.44l-7.7-2.27,7.1,2.09c1.35.4,2.71-.56,2.79-1.96l.48-8.05-.4,6.64c-.12,2.02,1.8,3.54,3.74,2.97l7.4-2.19-7.19,2.13c-1.98.59-2.71,3.01-1.38,4.59l4.84,5.78Z"/><path class="cls-3" d="m293.95,174.32l-5.36-6.41c-1.1-1.32-3.19-1.13-4.04.36l-3.64,6.36,4.35-7.6c.54-.94.06-2.13-.98-2.44l-7.7-2.27,7.1,2.09c1.35.4,2.71-.56,2.79-1.96l.48-8.05-.4,6.64c-.12,2.02,1.8,3.54,3.74,2.97l7.4-2.19-7.19,2.13c-1.98.59-2.71,3.01-1.38,4.59l4.84,5.78Z"/><path class="cls-3" d="m236.99,484.97l-15.75-5.69c-3.24-1.17-6.66,1.25-6.64,4.69l.11,14.69-.13-17.55c-.02-2.17-2.05-3.75-4.16-3.24l-15.62,3.83,14.41-3.53c2.73-.67,4.13-3.71,2.86-6.22l-7.29-14.43,6.01,11.91c1.82,3.61,6.68,4.32,9.46,1.37l10.6-11.25-10.31,10.94c-2.84,3.01-1.66,7.94,2.23,9.34l14.21,5.14Z"/><path class="cls-3" d="m670.44,463.87l-7.92-9.47c-1.63-1.95-4.7-1.68-5.97.53l-5.38,9.39,6.42-11.23c.79-1.39.08-3.15-1.45-3.6l-11.37-3.35,10.48,3.09c1.99.59,4-.83,4.13-2.9l.71-11.89-.58,9.81c-.18,2.98,2.66,5.23,5.52,4.38l10.92-3.24-10.62,3.15c-2.92.87-4,4.44-2.04,6.78l7.15,8.54Z"/><path class="cls-6" d="m731.96,168.4l-5.36-6.41c-1.1-1.32-3.19-1.13-4.04.36l-3.64,6.36,4.35-7.6c.54-.94.06-2.13-.98-2.44l-7.7-2.27,7.1,2.09c1.35.4,2.71-.56,2.79-1.96l.48-8.05-.4,6.64c-.12,2.02,1.8,3.54,3.74,2.97l7.4-2.19-7.19,2.13c-1.98.59-2.71,3.01-1.38,4.59l4.84,5.78Z"/><path class="cls-6" d="m455.38,38.11l-5.36-6.41c-1.1-1.32-3.19-1.13-4.04.36l-3.64,6.36,4.35-7.6c.54-.94.06-2.13-.98-2.44l-7.7-2.27,7.1,2.09c1.35.4,2.71-.56,2.79-1.96l.48-8.05-.4,6.64c-.12,2.02,1.8,3.54,3.74,2.97l7.4-2.19-7.19,2.13c-1.98.59-2.71,3.01-1.38,4.59l4.84,5.78Z"/></svg>